<svg xmlns="http://www.w3.org/2000/svg" width="175.346" height="210.432" viewBox="0 0 175.346 210.432">
  <path id="Path_136318" data-name="Path 136318" d="M173.979,141.6c5.176-37.552-4.862-76.04-21.413-110.491-3.6-7.5-8.028-14.958-15.112-20.2C127.536,3.576,113.82,1.559,100.723.677a301.307,301.307,0,0,0-50.117.815c-6.544.653-13.256,1.576-19,4.5C21.831,10.962,16.7,20.7,12.986,30A178.591,178.591,0,0,0,1.634,120.667c1.417,10.227,3.768,20.4,8.165,29.892,8.251,17.815,23.388,32.514,40.4,44.588,12.011,8.524,26.36,16.23,42.016,15.191,14.687-.975,27.354-9.4,39.032-17.464,6.247-4.316,39.523-28,42.73-51.271" transform="translate(0 0)" fill="#fff"/>
</svg>
