<svg xmlns="http://www.w3.org/2000/svg" width="183.653" height="223.934" viewBox="0 0 183.653 223.934">
  <path id="Path_136316" data-name="Path 136316" d="M4.221,64.187c-9.194,39-2.471,80.5,11.508,118.4,3.044,8.256,6.955,16.54,13.886,22.762,9.7,8.711,23.936,12.2,37.63,14.436a318.517,318.517,0,0,0,52.818,4.142c6.951-.034,14.105-.335,20.437-2.836,10.786-4.258,17.155-13.993,21.994-23.411a188.779,188.779,0,0,0,20.991-94.271c-.47-10.9-1.929-21.84-5.608-32.269C170.97,51.574,156.508,34.6,139.81,20.195,128.02,10.027,113.691.487,97.113.018,81.562-.422,67.392,7.176,54.3,14.5c-7,3.917-44.382,25.524-50.078,49.686" transform="translate(0 0)" fill="#fff"/>
</svg>
