<svg xmlns="http://www.w3.org/2000/svg" width="173.752" height="211.862" viewBox="0 0 173.752 211.862">
  <path id="Path_136314" data-name="Path 136314" d="M3.993,60.727c-8.7,36.9-2.338,76.16,10.888,112.019,2.88,7.811,6.58,15.648,13.137,21.535,9.181,8.241,22.646,11.543,35.6,13.658a301.347,301.347,0,0,0,49.971,3.919c6.576-.032,13.345-.317,19.335-2.683,10.205-4.028,16.23-13.239,20.808-22.149a178.6,178.6,0,0,0,19.859-89.189c-.445-10.314-1.825-20.663-5.306-30.529-6.533-18.514-20.215-34.576-36.013-48.2C121.119,9.486,107.562.461,91.878.017,77.165-.4,63.759,6.789,51.371,13.719,44.745,17.425,9.382,37.867,3.993,60.727" transform="translate(0 0)" fill="#fff"/>
</svg>
