<svg xmlns="http://www.w3.org/2000/svg" width="55.941" height="39.153" viewBox="0 0 55.941 39.153">
  <g id="Group_2613" data-name="Group 2613" transform="translate(1623.97 911.071)" opacity="0.497">
    <circle id="Ellipse_25" data-name="Ellipse 25" cx="3.969" cy="3.969" r="3.969" transform="translate(-1611.63 -897.368)" fill="none" stroke="#fff" stroke-linejoin="round" stroke-width="1"/>
    <circle id="Ellipse_26" data-name="Ellipse 26" cx="3.969" cy="3.969" r="3.969" transform="translate(-1603.613 -880.355)" fill="none" stroke="#fff" stroke-linejoin="round" stroke-width="1"/>
    <circle id="Ellipse_27" data-name="Ellipse 27" cx="3.969" cy="3.969" r="3.969" transform="translate(-1623.47 -884.138)" fill="none" stroke="#fff" stroke-linejoin="round" stroke-width="1"/>
    <path id="Path_801" data-name="Path 801" d="M18,23H30.594" transform="translate(-1621.627 -916.372)" fill="none" stroke="#fff" stroke-linecap="round" stroke-linejoin="round" stroke-width="1"/>
    <path id="Path_802" data-name="Path 802" d="M34.824,28H24.5a2.643,2.643,0,0,0-1.693.622l-6.456,5.384a2.648,2.648,0,0,1-1.693.609H9" transform="translate(-1624.533 -914.758)" fill="none" stroke="#fff" stroke-linecap="round" stroke-linejoin="round" stroke-width="1"/>
    <circle id="Ellipse_28" data-name="Ellipse 28" cx="3.969" cy="3.969" r="3.969" transform="translate(-1623.47 -910.571)" fill="none" stroke="#fff" stroke-linejoin="round" stroke-width="1"/>
    <path id="Path_803" data-name="Path 803" d="M34.824,19.615H24.5a2.648,2.648,0,0,1-1.693-.609l-6.456-5.4A2.648,2.648,0,0,0,14.662,13H9" transform="translate(-1624.533 -919.602)" fill="none" stroke="#fff" stroke-linecap="round" stroke-linejoin="round" stroke-width="1"/>
    <path id="Path_804" data-name="Path 804" d="M24,37.455h4.551a4.378,4.378,0,0,0,3.387-1.64l3.969-4.974" transform="translate(-1619.689 -913.841)" fill="none" stroke="#fff" stroke-linecap="round" stroke-linejoin="round" stroke-width="1"/>
    <path id="Path_805" data-name="Path 805" d="M36.5,36.375,47.123,31.11V18L36.5,23.212V36.375Z" transform="translate(-1615.652 -917.987)" fill="none" stroke="#fff" stroke-linejoin="round" stroke-width="1"/>
    <path id="Path_806" data-name="Path 806" d="M39.14,36.375,28.53,31.11V18l10.61,5.212V36.375Z" transform="translate(-1618.226 -917.987)" fill="none" stroke="#fff" stroke-linejoin="round" stroke-width="1"/>
    <path id="Path_807" data-name="Path 807" d="M49.7,19.166,39.074,13.94h.066L28.53,19.166v.146l10.61,5.212h-.066L49.7,19.311Z" transform="translate(-1618.226 -919.298)" fill="none" stroke="#fff" stroke-linejoin="round" stroke-width="1"/>
  </g>
</svg>
