<svg xmlns="http://www.w3.org/2000/svg" width="57.027" height="45.146" viewBox="0 0 57.027 45.146">
  <g id="Group_2616" data-name="Group 2616" transform="translate(956.956 925.543)" opacity="0.497">
    <path id="Path_797" data-name="Path 797" d="M23.98,45.5l11.813-5.847V25.06l-11.813,5.8V45.5Z" transform="translate(-952.435 -926.46)" fill="none" stroke="#fff" stroke-linejoin="round" stroke-width="1"/>
    <path id="Path_798" data-name="Path 798" d="M27.813,45.5,16,39.656V25.06l11.813,5.8V45.5Z" transform="translate(-956.208 -926.46)" fill="none" stroke="#fff" stroke-linejoin="round" stroke-width="1"/>
    <path id="Path_799" data-name="Path 799" d="M39.566,26.8,27.754,21h.059L16,26.8v.177l11.813,5.8h-.059l11.813-5.8Z" transform="translate(-956.208 -928.38)" fill="none" stroke="#fff" stroke-linejoin="round" stroke-width="1"/>
    <path id="Path_800" data-name="Path 800" d="M49.191,38.44h1.473a10.31,10.31,0,1,0-3.888-19.855,14.729,14.729,0,0,0-27.573,0A10.31,10.31,0,1,0,15.315,38.44h1.473" transform="translate(-961.415 -934.037)" fill="none" stroke="#fff" stroke-linecap="round" stroke-linejoin="round" stroke-width="1"/>
  </g>
</svg>
