<svg xmlns="http://www.w3.org/2000/svg" width="50.158" height="51.425" viewBox="0 0 50.158 51.425">
  <g id="Group_2615" data-name="Group 2615" transform="translate(1179.079 925.5)" opacity="0.497">
    <path id="Path_787" data-name="Path 787" d="M31.929,39.784V32H19V47.515h5.2" transform="translate(-1179.478 -922.091)" fill="none" stroke="#fff" stroke-linecap="round" stroke-linejoin="round" stroke-width="1"/>
    <path id="Path_788" data-name="Path 788" d="M23.02,38.02v7.732l7.758-7.732Z" transform="translate(-1178.3 -920.327)" fill="none" stroke="#fff" stroke-linejoin="round" stroke-width="1"/>
    <path id="Path_789" data-name="Path 789" d="M17.929,39.784V32H5V47.515h5.211" transform="translate(-1183.579 -922.091)" fill="none" stroke="#fff" stroke-linecap="round" stroke-linejoin="round" stroke-width="1"/>
    <path id="Path_790" data-name="Path 790" d="M9.03,38.02v7.732l7.758-7.732Z" transform="translate(-1182.398 -920.327)" fill="none" stroke="#fff" stroke-linejoin="round" stroke-width="1"/>
    <path id="Path_791" data-name="Path 791" d="M45.929,39.784V32H33V47.515h5.2" transform="translate(-1175.376 -922.091)" fill="none" stroke="#fff" stroke-linecap="round" stroke-linejoin="round" stroke-width="1"/>
    <path id="Path_792" data-name="Path 792" d="M37.02,38.02v7.732l7.758-7.732Z" transform="translate(-1174.199 -920.327)" fill="none" stroke="#fff" stroke-linejoin="round" stroke-width="1"/>
    <path id="Path_793" data-name="Path 793" d="M28.1,28H12.586A2.585,2.585,0,0,0,10,30.586v2.586" transform="translate(-1182.114 -923.262)" fill="none" stroke="#fff" stroke-linecap="round" stroke-linejoin="round" stroke-width="1"/>
    <path id="Path_794" data-name="Path 794" d="M24,28H39.515A2.585,2.585,0,0,1,42.1,30.586v2.586" transform="translate(-1178.013 -923.262)" fill="none" stroke="#fff" stroke-linecap="round" stroke-linejoin="round" stroke-width="1"/>
    <line id="Line_26" data-name="Line 26" y2="11.636" transform="translate(-1154.013 -901.727)" fill="none" stroke="#fff" stroke-linecap="round" stroke-linejoin="round" stroke-width="1"/>
    <ellipse id="Ellipse_24" data-name="Ellipse 24" cx="10.344" cy="3.879" rx="10.344" ry="3.879" transform="translate(-1164.292 -925)" fill="none" stroke="#fff" stroke-linejoin="round" stroke-width="1"/>
    <path id="Path_795" data-name="Path 795" d="M36.737,14c0,2.146-4.629,3.879-10.344,3.879S16.05,16.146,16.05,14" transform="translate(-1180.342 -927.364)" fill="none" stroke="#fff" stroke-linejoin="round" stroke-width="1"/>
    <path id="Path_796" data-name="Path 796" d="M36.737,8V23.515c0,2.146-4.629,3.879-10.344,3.879S16.05,25.662,16.05,23.515V8" transform="translate(-1180.342 -929.121)" fill="none" stroke="#fff" stroke-linecap="round" stroke-linejoin="round" stroke-width="1"/>
  </g>
</svg>
