<svg width="1095" height="1158" viewBox="0 0 1095 1158" fill="none" xmlns="http://www.w3.org/2000/svg">
<path d="M435 571.936C435 513.066 475.165 462.663 530.688 452.031C594.086 439.824 654.925 483.927 666.541 550.081C667.919 557.366 668.51 564.848 668.51 572.33C668.51 631.199 628.148 681.603 572.822 692.235C509.424 704.442 448.585 660.339 436.969 594.184C435.591 586.899 435 579.418 435 571.936Z" fill="#0D2A55"/>
<path d="M415.437 571.8C415.437 502.086 465.318 441.587 531.426 431.17C605.747 419.551 675.26 473.239 686.479 550.765C687.48 557.777 688.081 564.989 688.081 572.2C688.081 641.914 638.2 702.413 572.092 712.83C497.771 724.449 428.257 670.761 417.039 593.235C415.837 586.023 415.437 579.011 415.437 571.8ZM672.055 572.2C672.055 565.99 671.654 559.58 670.653 553.37C660.837 484.658 599.337 437.18 533.629 447.597C475.134 456.812 431.062 510.299 431.062 572C431.062 578.21 431.463 584.621 432.464 590.831C442.28 659.543 503.781 707.02 569.488 696.603C627.983 687.388 672.055 633.901 672.055 572.2Z" fill="#0D2A55"/>
<path d="M397.808 571.8C397.808 491.068 455.702 422.556 532.427 412.54C616.565 401.522 693.49 464.024 704.107 551.967C704.909 558.578 705.309 565.389 705.309 572.2C705.309 652.932 647.415 721.444 570.69 731.46C486.552 742.478 409.627 679.976 399.01 592.033C398.208 585.422 397.808 578.611 397.808 571.8ZM690.285 572.2C690.285 566.191 689.884 559.98 689.283 553.971C679.667 474.641 610.354 418.349 534.431 428.165C465.318 437.18 413.032 499.081 413.032 571.8C413.032 577.809 413.433 584.02 414.034 590.029C423.65 669.359 492.963 725.651 568.887 715.835C637.999 706.62 690.285 644.919 690.285 572.2Z" fill="#0D2A55"/>
<path d="M380.179 571.8C380.179 480.05 446.087 403.525 533.429 393.909C578.903 388.901 623.576 402.724 659.234 432.573C694.893 462.622 717.129 505.491 721.937 552.969C722.538 559.379 722.938 565.79 722.938 572.2C722.938 663.95 657.031 740.274 569.688 750.091C475.735 760.507 391.197 689.191 381.181 591.031C380.58 584.621 380.179 578.21 380.179 571.8ZM708.515 572.2C708.515 566.391 708.114 560.381 707.513 554.572C703.106 511.101 682.673 471.837 650.019 444.392C617.366 416.947 576.499 404.326 534.831 408.934C454.901 417.748 394.603 487.863 394.603 571.8C394.603 577.609 395.003 583.619 395.404 589.428C404.619 679.375 481.945 744.682 568.086 735.266C648.216 726.252 708.515 656.137 708.515 572.2Z" fill="#0D2A55"/>
<path d="M362.75 571.8C362.75 469.032 436.671 384.694 534.631 375.279C638.4 365.463 730.551 445.594 739.966 554.171C740.567 560.181 740.767 566.191 740.767 572.2C740.767 674.968 666.847 759.306 568.887 768.721C518.605 773.529 469.525 757.503 430.862 723.848C391.998 689.992 368.159 642.515 363.552 590.029C362.951 583.819 362.75 577.809 362.75 571.8ZM726.744 572.2C726.744 566.591 726.544 560.982 725.943 555.373C717.129 454.809 631.789 380.488 535.633 389.502C444.885 398.116 376.373 476.444 376.373 571.8C376.373 577.409 376.573 583.018 377.174 588.627C381.381 637.307 403.617 681.378 439.476 712.83C475.334 744.081 520.808 758.905 567.485 754.498C658.233 745.683 726.744 667.356 726.744 572.2Z" fill="#0D2A55"/>
<path d="M344.922 571.8C344.922 460.017 428.658 365.463 535.432 356.649C649.018 347.233 748.58 436.379 757.595 555.173C757.995 560.782 758.196 566.591 758.196 572.2C758.196 684.183 674.459 778.537 567.685 787.351C454.1 796.767 354.537 707.621 345.523 589.028C345.322 583.218 344.922 577.409 344.922 571.8ZM745.175 572.2C745.175 566.992 744.974 561.583 744.574 556.174C736.16 444.993 642.808 361.657 536.434 370.271C436.471 378.484 357.943 467.029 357.943 571.8C357.943 577.008 358.143 582.417 358.544 587.826C366.958 699.007 460.31 782.343 566.683 773.729C666.847 765.516 745.175 676.971 745.175 572.2Z" fill="#0D2A55"/>
<path d="M327.293 571.8C327.293 448.999 419.243 346.432 536.434 338.018C659.835 329.204 767.01 427.164 775.424 556.174C775.824 561.583 776.025 566.992 776.025 572.2C776.025 695.001 684.275 797.568 566.884 805.982C443.482 814.796 336.307 716.836 327.894 587.826C327.493 582.617 327.293 577.008 327.293 571.8ZM763.404 572.2C763.404 567.192 763.204 561.984 763.004 556.976C755.191 435.177 653.825 342.826 537.235 351.04C426.454 358.852 339.713 455.81 339.713 571.8C339.713 576.808 339.913 582.016 340.114 587.025C347.926 708.823 449.292 801.174 565.882 792.96C676.663 785.148 763.404 688.19 763.404 572.2Z" fill="#0D2A55"/>
<path d="M309.664 571.8C309.664 438.182 409.627 327.401 537.435 319.388C670.653 311.175 785.44 417.748 793.253 556.975C793.453 561.984 793.653 566.992 793.653 572C793.653 705.618 693.69 816.399 565.882 824.412C432.664 832.625 317.877 726.051 310.064 586.824C309.664 581.816 309.664 576.808 309.664 571.8ZM781.834 572.2C781.834 567.393 781.634 562.585 781.433 557.777C774.021 425.361 664.843 323.795 538.036 331.608C416.438 339.02 321.283 444.592 321.283 571.599C321.283 576.407 321.483 581.215 321.683 586.023C329.096 718.439 438.274 820.005 565.08 812.192C686.679 804.78 781.834 699.408 781.834 572.2Z" fill="#0D2A55"/>
<path d="M291.835 571.8C291.835 427.364 400.011 308.37 538.237 300.958C681.27 293.345 803.67 408.734 810.882 558.177C811.082 562.785 811.282 567.593 811.282 572.2C811.282 716.636 703.106 835.83 564.88 843.042C421.847 850.655 299.447 735.266 292.236 585.823C292.035 581.215 291.835 576.407 291.835 571.8ZM800.264 572.2C800.264 567.793 800.064 563.186 799.864 558.578C792.852 415.545 675.661 304.964 538.838 312.376C402.215 319.789 296.242 440.986 303.254 585.222C310.265 728.255 427.456 838.835 564.279 831.423C696.695 824.412 800.264 710.626 800.264 572.2Z" fill="#0D2A55"/>
<path d="M274.206 571.8C274.206 416.346 390.596 289.139 539.238 282.327C692.088 275.116 821.899 399.318 828.711 559.179C835.722 720.242 716.728 854.661 563.879 861.873C411.029 869.085 281.218 744.882 274.406 585.021C274.206 580.614 274.206 576.207 274.206 571.8ZM818.694 572.2C818.694 567.993 818.694 563.787 818.494 559.58C811.883 405.729 686.879 286.334 539.839 293.145C392.799 299.956 278.413 429.167 285.024 584.42C291.635 738.271 416.638 857.666 563.678 850.855C706.511 844.244 818.694 721.844 818.694 572.2Z" fill="#0D2A55"/>
<path d="M256.377 571.8C256.377 405.528 380.98 270.108 540.04 263.697C618.768 260.492 694.091 289.539 751.986 345.631C809.88 401.522 843.335 477.846 846.54 560.181C852.95 731.861 725.943 873.892 563.078 880.503C400.412 887.114 262.988 754.097 256.578 584.22C256.578 580.013 256.377 575.806 256.377 571.8ZM837.125 572.2C837.125 568.394 837.125 564.388 836.924 560.381C833.919 480.651 801.466 407.131 745.575 352.842C689.684 298.754 616.765 270.708 540.641 273.713C386.79 279.924 266.193 410.737 266.193 571.599C266.193 575.406 266.193 579.412 266.394 583.419C272.604 747.887 405.42 876.296 562.677 869.886C716.528 863.876 837.125 733.063 837.125 572.2Z" fill="#0D2A55"/>
<path d="M238.748 571.8C238.748 486.661 269.999 406.129 326.491 344.829C383.184 283.329 459.508 248.072 541.041 245.067C624.578 242.062 704.308 273.313 765.207 333.01C826.307 392.708 861.564 473.64 864.369 560.982C864.569 564.788 864.569 568.394 864.569 572.2C864.569 657.339 833.318 737.871 776.826 799.171C720.134 860.671 643.809 896.129 562.276 898.933C389.795 904.943 244.758 763.312 238.949 583.018C238.748 579.212 238.748 575.606 238.748 571.8ZM855.555 572.2C855.555 568.594 855.554 564.989 855.354 561.383C852.55 476.644 818.494 397.916 759.197 340.022C699.901 282.127 622.574 251.677 541.442 254.682C376.773 260.492 247.763 399.919 247.763 572C247.763 575.606 247.763 579.212 247.963 582.818C253.572 757.903 394.402 895.528 561.875 889.518C726.544 883.708 855.555 744.281 855.555 572.2Z" fill="#0D2A55"/>
<path d="M220.919 571.8C220.919 481.653 253.973 396.113 314.272 331.408C374.57 266.502 455.502 229.241 542.043 226.436C630.387 223.832 714.324 257.086 778.629 320.59C842.934 383.893 879.794 469.633 882.198 561.984C884.802 656.137 851.548 745.483 789.046 812.793C728.748 877.699 647.816 914.96 561.275 917.764C378.977 923.373 226.328 772.928 221.12 582.417C220.919 578.611 220.919 575.205 220.919 571.8ZM873.985 572.2C873.985 568.795 873.985 565.59 873.784 562.184C871.18 472.237 835.322 388.701 772.82 327C710.117 265.3 628.384 232.646 542.244 235.251C363.552 240.659 224.125 394.11 229.533 581.816C234.742 767.519 383.384 914.158 561.074 908.749C736.561 903.341 873.985 755.499 873.985 572.2Z" fill="#0D2A55"/>
<path d="M203.09 571.8C203.09 476.444 238.147 386.297 301.851 317.785C365.755 249.274 451.295 210.21 542.644 207.806C734.757 202.798 895.019 362.058 899.827 562.785C902.231 661.746 866.973 755.499 801.066 826.014C737.161 894.526 651.622 933.59 560.273 935.994C368.159 941.002 207.898 781.742 203.09 581.015C203.09 578.01 203.09 575.005 203.09 571.8ZM892.415 572.2C892.415 569.195 892.415 565.99 892.214 562.985C887.406 366.665 730.751 211.011 543.045 215.819C353.936 220.827 206.295 382.291 210.903 580.814C215.711 777.135 372.366 932.789 560.072 927.981C746.376 923.173 892.415 766.918 892.415 572.2Z" fill="#0D2A55"/>
<path d="M185.261 571.8C185.261 471.236 222.322 376.281 289.631 304.363C356.941 232.246 447.289 191.379 543.646 189.175C641.405 186.972 734.157 224.633 804.872 295.549C875.587 366.264 915.653 461.62 917.656 563.787C919.86 667.756 882.599 765.716 813.486 839.637C746.176 911.754 655.829 952.621 559.472 954.825C357.542 959.432 189.869 791.358 185.462 580.414C185.462 577.409 185.261 574.604 185.261 571.8ZM910.845 572.2C910.845 569.396 910.845 566.792 910.845 563.987C908.842 463.824 869.578 370.271 800.265 300.958C730.951 231.645 640.003 194.584 544.047 196.788C347.726 201.195 188.266 374.077 192.673 580.213C196.68 786.951 361.348 951.82 559.271 947.412C753.188 943.005 910.845 774.731 910.845 572.2Z" fill="#0D2A55"/>
<path d="M167.632 571.8C167.632 466.027 206.696 366.264 277.612 290.741C348.527 215.218 443.482 172.348 544.848 170.545C647.415 168.542 744.574 208.407 818.494 282.928C892.415 357.45 934.083 457.413 935.886 564.588C935.886 566.992 935.886 569.596 935.886 572C935.886 677.572 896.822 777.535 826.107 852.858C755.191 928.381 660.236 971.251 558.871 973.054C347.125 977.061 171.839 800.373 167.833 579.011C167.632 576.808 167.632 574.404 167.632 571.8ZM929.275 572.2C929.275 569.796 929.275 567.392 929.275 564.788C927.472 459.416 886.405 361.056 813.887 287.736C741.368 214.617 645.812 175.353 544.848 177.156C340.514 180.962 174.043 358.051 174.043 571.8C174.043 574.204 174.043 576.608 174.043 579.212C177.849 796.767 350.33 970.65 558.47 966.644C763.004 962.838 929.275 785.749 929.275 572.2Z" fill="#0D2A55"/>
<path d="M149.803 571.8C149.803 461.019 190.87 356.448 265.192 277.319C339.713 198.19 439.276 153.718 545.449 151.915C652.824 150.112 754.39 192.381 831.315 270.308C908.441 348.435 951.712 453.206 953.314 565.389C954.917 678.975 913.85 785.749 837.926 866.48C763.404 945.61 663.842 990.082 557.669 991.885C336.107 995.491 153.209 809.788 149.803 578.41C149.803 576.207 149.803 574.003 149.803 571.8ZM947.705 572.2C947.705 569.997 947.705 567.793 947.705 565.79C946.103 455.209 903.433 351.841 827.509 274.915C751.585 197.99 651.422 156.522 545.649 158.125C330.498 161.53 155.613 347.233 155.613 572C155.613 574.204 155.613 576.407 155.613 578.41C159.018 806.583 339.313 989.481 557.669 986.076C772.82 982.47 947.705 796.967 947.705 572.2Z" fill="#0D2A55"/>
<path d="M131.974 571.8C131.974 455.81 174.844 346.432 252.972 263.897C331.099 181.162 435.269 134.887 546.45 133.485C658.433 132.082 764.406 176.355 844.737 258.088C924.868 339.821 969.941 449.4 971.343 566.591C972.746 684.784 929.675 796.166 850.346 880.103C772.219 962.838 668.049 1009.11 556.867 1010.52C444.885 1011.92 338.912 967.645 258.581 885.912C178.25 804.179 133.376 694.6 131.974 577.409C131.974 575.606 131.974 573.803 131.974 571.8ZM966.135 572.2C966.135 570.397 966.135 568.594 966.135 566.591C964.733 450.802 920.26 342.626 841.131 261.894C761.802 180.962 657.231 137.291 546.45 138.893C320.682 141.898 137.183 336.215 137.183 572C137.183 573.803 137.183 575.606 137.183 577.609C138.585 693.398 183.057 801.575 262.187 882.306C341.516 963.038 446.087 1006.91 556.867 1005.31C782.435 1002.3 966.135 807.985 966.135 572.2Z" fill="#0D2A55"/>
<path d="M114.345 572C114.345 450.802 159.218 336.616 240.751 250.475C322.284 164.335 431.262 116.056 547.251 114.854C664.042 113.652 774.422 160.128 857.758 245.467C941.094 331.007 987.77 445.393 988.972 567.393V572C988.972 693.198 944.099 807.384 862.566 893.525C781.033 979.665 672.055 1027.94 556.066 1029.15C439.275 1030.35 328.895 983.872 245.559 898.533C162.223 812.993 115.547 698.607 114.345 576.607V572ZM984.565 572V567.393C983.363 446.395 937.288 333.21 854.753 248.673C772.218 164.135 663.04 118.059 547.251 119.261C310.866 121.866 118.552 324.797 118.552 572V576.607C119.754 697.405 165.829 810.589 248.364 895.327C330.899 979.865 440.077 1025.94 555.865 1024.74C792.251 1022.13 984.565 819.203 984.565 572Z" fill="#0D2A55"/>
<path d="M96.5163 572C96.5163 445.594 143.393 326.6 228.532 237.054C313.67 147.307 427.256 97.4258 548.253 96.4242C799.263 94.4209 1005 306.166 1006.8 568.594V572.401C1006.8 698.807 959.925 817.601 874.786 907.347C789.647 997.093 676.062 1046.97 555.064 1047.98C433.466 1048.98 318.879 1000.3 232.137 911.153C145.596 822.008 97.3176 703.014 96.3159 575.806L96.5163 572ZM1003 572V568.394C1000.99 308.17 797.059 98.0268 548.053 100.03C301.05 102.033 100.122 313.578 100.122 571.8V575.406C101.124 701.411 148.802 819.604 234.742 908.148C320.682 996.492 434.468 1044.77 555.064 1043.77C802.067 1041.97 1003 830.221 1003 572Z" fill="#0D2A55"/>
<path d="M78.6875 572C78.6875 440.586 127.567 316.784 216.312 223.431C304.856 130.079 423.049 78.3948 549.055 77.5935C809.88 76.1912 1023.23 296.751 1024.63 569.195V572C1024.63 703.414 975.751 827.216 887.006 920.569C798.261 1013.92 680.069 1065.61 554.263 1066.41C427.857 1067.21 308.863 1016.32 219.117 923.574C129.37 830.622 79.4888 706.82 78.6875 574.805V572ZM1021.63 572V569.195C1020.02 298.554 808.077 79.3964 549.055 80.7987C291.435 82.201 81.6924 302.56 81.6924 572V574.805C82.2934 706.019 131.974 829.019 221.12 921.37C310.466 1013.72 428.658 1064 554.063 1063.4C811.884 1061.6 1021.63 841.44 1021.63 572Z" fill="#0D2A55"/>
<path d="M60.8582 572C60.8582 435.377 111.741 306.767 203.892 210.009C296.242 113.051 419.042 59.5641 549.856 58.9631C820.497 57.9614 1041.46 287.135 1042.26 570.197V572C1042.26 708.623 991.376 837.233 899.226 933.991C806.875 1030.75 684.075 1084.44 553.261 1084.84C282.82 1086.04 61.8598 856.664 60.8582 573.803V572ZM1040.06 572V570.197C1039.05 288.738 819.095 60.5657 549.856 61.5673C281.618 62.569 63.2621 291.542 63.2621 572V573.803C64.2637 855.262 284.022 1083.43 553.462 1082.43C821.699 1081.43 1040.06 852.458 1040.06 572Z" fill="#0D2A55"/>
<path d="M43.0293 572C43.0293 430.169 95.7152 296.751 191.672 196.387C287.628 96.0235 415.036 40.7333 550.657 40.3327C686.679 40.1323 814.288 95.2222 910.645 195.386C1006.8 295.549 1059.89 428.967 1060.29 570.998V572C1060.29 713.831 1007.4 847.249 911.646 947.613C815.89 1047.98 688.282 1103.47 552.661 1103.67C416.639 1103.87 288.83 1048.78 192.673 948.414C96.5165 848.251 43.43 714.833 43.0293 572.801V572ZM1058.49 572V570.998C1058.09 278.922 830.314 41.5346 550.858 42.1356C271.802 42.7366 44.8322 280.324 44.8322 572V573.002C45.2329 865.078 273.004 1102.47 552.46 1101.86C831.516 1101.26 1058.49 863.676 1058.49 572Z" fill="#0D2A55"/>
<path d="M25.1997 572C25.1997 497.679 39.2226 425.761 66.467 357.851C92.9102 292.344 130.972 233.448 179.251 182.965C227.53 132.483 283.822 92.8183 346.524 64.9729C411.43 36.3261 480.342 21.7023 551.458 21.7023C622.574 21.7023 691.487 36.3261 756.393 64.9729C819.095 92.618 875.387 132.283 923.665 182.965C971.944 233.448 1010.01 292.344 1036.45 357.851C1064.09 425.761 1077.92 497.679 1077.92 572C1077.92 646.321 1064.09 718.239 1036.65 786.149C1010.01 851.656 972.145 910.552 923.866 961.035C875.587 1011.52 819.295 1051.18 756.593 1079.03C691.687 1107.67 622.775 1122.3 551.659 1122.3C480.543 1122.3 411.63 1107.67 346.724 1079.03C284.022 1051.38 227.73 1011.72 179.451 961.035C131.173 910.552 93.1105 851.656 66.6674 786.149C39.2226 718.239 25.1997 646.321 25.1997 572ZM1076.92 572C1076.92 269.306 841.331 22.9042 551.659 22.9042C261.986 22.9042 26.4017 269.306 26.4017 572C26.4017 874.694 261.986 1121.1 551.659 1121.1C841.331 1121.1 1076.92 874.694 1076.92 572Z" fill="#0D2A55"/>
</svg>