<svg xmlns="http://www.w3.org/2000/svg" xmlns:xlink="http://www.w3.org/1999/xlink" width="84" height="68.184" viewBox="0 0 84 68.184">
  <defs>
    <linearGradient id="linear-gradient" x1="0.5" x2="0.5" y2="1" gradientUnits="objectBoundingBox">
      <stop offset="0" stop-color="#739d41"/>
      <stop offset="1" stop-color="#1e84bd"/>
    </linearGradient>
  </defs>
  <g id="digital-transformation" transform="translate(0 -48.2)">
    <path id="Path_22654" data-name="Path 22654" d="M157.6,80.333H147.061a2.461,2.461,0,0,0-2.461,2.461V93.338a2.461,2.461,0,0,0,2.461,2.461H157.6a2.461,2.461,0,0,0,2.461-2.461V82.794A2.461,2.461,0,0,0,157.6,80.333Z" transform="translate(-120.877 -26.861)" fill="url(#linear-gradient)"/>
    <path id="Path_22655" data-name="Path 22655" d="M144,221.871V211.327a2.461,2.461,0,0,0-2.461-2.461H130.994a2.461,2.461,0,0,0-2.461,2.461v10.544a2.461,2.461,0,0,0,2.461,2.461h10.544A2.461,2.461,0,0,0,144,221.871Z" transform="translate(-107.446 -134.307)" fill="url(#linear-gradient)"/>
    <path id="Path_22656" data-name="Path 22656" d="M157.6,337.4H147.061a2.461,2.461,0,0,0-2.461,2.461V350.4a2.461,2.461,0,0,0,2.461,2.461H157.6a2.461,2.461,0,0,0,2.461-2.461V339.861A2.461,2.461,0,0,0,157.6,337.4Z" transform="translate(-120.877 -241.753)" fill="url(#linear-gradient)"/>
    <path id="Path_22657" data-name="Path 22657" d="M13,273.133H2.461A2.461,2.461,0,0,0,0,275.594v10.544A2.461,2.461,0,0,0,2.461,288.6H13a2.461,2.461,0,0,0,2.461-2.461V275.594A2.461,2.461,0,0,0,13,273.133Z" transform="translate(0 -188.03)" fill="url(#linear-gradient)"/>
    <path id="Path_22658" data-name="Path 22658" d="M13,144.6H2.461A2.461,2.461,0,0,0,0,147.061V157.6a2.461,2.461,0,0,0,2.461,2.461H13a2.461,2.461,0,0,0,2.461-2.461V147.061A2.461,2.461,0,0,0,13,144.6Z" transform="translate(0 -80.584)" fill="url(#linear-gradient)"/>
    <path id="Path_22659" data-name="Path 22659" d="M311.462,91.1l-6.029-5.17a26.5,26.5,0,0,0,0-7.282l6.029-5.17a2.461,2.461,0,0,0,.529-3.1L306.06,60.11a2.461,2.461,0,0,0-2.948-1.091l-7.5,2.638a25.96,25.96,0,0,0-6.3-3.646l-1.464-7.8a2.461,2.461,0,0,0-2.419-2.007h-9.839a2.461,2.461,0,0,0-2.461,2.461V69.7a2.461,2.461,0,0,0,3.19,2.35,10.72,10.72,0,1,1,0,20.478,2.461,2.461,0,0,0-3.19,2.35v19.042a2.461,2.461,0,0,0,2.461,2.461h9.839a2.461,2.461,0,0,0,2.419-2.007l1.464-7.8a25.965,25.965,0,0,0,6.3-3.646l7.5,2.638a2.461,2.461,0,0,0,2.948-1.091L311.991,94.2A2.461,2.461,0,0,0,311.462,91.1Z" transform="translate(-228.321)" fill="url(#linear-gradient)"/>
  </g>
</svg>
