<?xml version="1.0" encoding="UTF-8"?>
<svg xmlns="http://www.w3.org/2000/svg" viewBox="0 0 154.45 112.327">
  <defs>
    <style>
      .cls-1 {
        fill: #03eac1;
      }
    </style>
  </defs>
  <g id="Layer_2" data-name="Layer 2">
    <g id="Layer_1-2" data-name="Layer 1">
      <g id="Mail">
        <path class="cls-1" d="M140.409,0H14.041A14.042,14.042,0,0,0,0,14.041V98.286a14.042,14.042,0,0,0,14.041,14.041H140.409A14.042,14.042,0,0,0,154.45,98.286V14.041A14.042,14.042,0,0,0,140.409,0ZM14.041,7.02H140.409a6.925,6.925,0,0,1,2.341.432L81.983,68.216a6.719,6.719,0,0,1-9.516,0L11.7,7.452A6.908,6.908,0,0,1,14.041,7.02ZM7.02,98.286V14.041a7.118,7.118,0,0,1,.124-1.221L50.487,56.164,7.144,99.507A7.118,7.118,0,0,1,7.02,98.286Zm133.389,7.021H14.041a6.955,6.955,0,0,1-2.338-.429L55.451,61.127,67.5,73.18a13.738,13.738,0,0,0,19.443,0L99,61.127l43.755,43.751A7.014,7.014,0,0,1,140.409,105.307Zm7.02-7.021a7.117,7.117,0,0,1-.123,1.221L103.963,56.164,147.306,12.82a7.117,7.117,0,0,1,.123,1.221Z"/>
      </g>
    </g>
  </g>
</svg>
