<?xml version="1.0" encoding="UTF-8"?>
<svg xmlns="http://www.w3.org/2000/svg" viewBox="0 0 154.45 126.382">
  <defs>
    <style>
      .cls-1 {
        fill: #03eac1;
      }
    </style>
  </defs>
  <g id="Layer_2" data-name="Layer 2">
    <g id="Layer_1-2" data-name="Layer 1">
      <g id="Users_2_2x.png" data-name="Users 2@2x.png">
        <path class="cls-1" d="M16.951,94.519c4.717-1.3,12.841-6.643,12.841-18.727,0-10.815-3.524-15.583-5.416-18.144l-.236-.319c-.021-.031-.042-.058-.062-.085-.151-.453-.6-2.294.36-6.232a7.483,7.483,0,0,0-.5-4.728c-1.423-3.116-4.069-8.916-2.211-13.279,3.082-7.487,4.374-8.049,7.829-9.558a7,7,0,0,0,.967-.514,18.653,18.653,0,0,1,8.035-1.872,9.693,9.693,0,0,1,4.366.906,25.78,25.78,0,0,1,1.167-3.634c.428-1.07.879-1.988,1.325-2.945a17.224,17.224,0,0,0-6.858-1.347,24.908,24.908,0,0,0-11.809,2.972c-5.618,2.451-7.97,4.714-11.515,13.318-3.074,7.229.587,15.072,2.386,19.018-2.2,9.016.854,12.118.854,12.118,1.594,2.184,4.3,5.344,4.3,14.325C22.772,86.015,14.9,87.8,14.9,87.8,8.511,90.032,0,94.783,0,108.824a3.438,3.438,0,0,0,3.51,3.51l15.654,0a29.2,29.2,0,0,1,3.3-7.021l-15.184,0C8.33,98.639,12.471,96.123,16.951,94.519Zm88.267,1.015s-12.581-3-12.581-16.143c0-11.545,5.169-15.61,7.164-18.418,0,0,4.1-3.592,1.355-15.186,4.576-6.352,6.067-16.7.462-29.47C98.492,8.855,95.736,4.768,91.533,2.393A20.154,20.154,0,0,0,81.541,0C75.2,0,69.179,2.245,66.776,3.819,59.756,6.973,55.032,9.876,50.6,20.942c-3.842,9.3.73,19.381,2.983,24.451-2.746,11.593,1.062,15.58,1.062,15.58,1.995,2.808,7.165,6.873,7.165,18.418,0,13.143-12.581,16.143-12.581,16.143-7.987,2.876-24.66,8.381-24.66,27.338a3.438,3.438,0,0,0,3.51,3.51h98.286a3.438,3.438,0,0,0,3.51-3.51C129.878,103.915,113.205,98.41,105.218,95.534ZM31.87,119.362c1.638-9.887,10.294-13.836,19.141-17.01l.278-.1c6.311-1.68,17.544-8.412,17.544-22.865,0-12.258-4.967-18.24-7.637-21.455-.535-.651-1.176-1.481-1.029-1.3-.219-.473-1.268-3.223.25-9.626a5.844,5.844,0,0,0-.493-4.641c-1.916-4.313-5.481-12.338-2.8-18.82,3.589-8.967,6.767-10.736,12.533-13.328a6.945,6.945,0,0,0,.97-.527A23.842,23.842,0,0,1,81.541,7.02a13.139,13.139,0,0,1,6.537,1.485c2.087,1.179,4.089,3.421,7.113,10.633,5.639,12.859,2.067,20.05.267,22.546a7.025,7.025,0,0,0-1.135,5.721c1.4,5.893.487,8.378.257,8.875-.061.069-.9,1.142-1.326,1.656-2.67,3.215-7.638,9.2-7.638,21.455,0,14.453,11.234,21.185,17.545,22.865l.277.1c8.848,3.174,17.5,7.123,19.142,17.01ZM139.549,87.8s-7.871-1.785-7.871-12.008c0-8.981,2.708-12.141,4.3-14.325,0,0,3.051-3.1.853-12.118,1.8-3.946,5.461-11.789,2.386-19.018-3.544-8.6-5.9-10.867-11.514-13.318A24.912,24.912,0,0,0,115.9,14.041a17.081,17.081,0,0,0-7.079,1.447,52.216,52.216,0,0,1,2.192,6.739c.091-.055.182-.12.272-.172a9.57,9.57,0,0,1,4.615-.994,18.653,18.653,0,0,1,8.035,1.872,6.945,6.945,0,0,0,.967.514c3.455,1.509,4.747,2.071,7.829,9.558,1.858,4.363-.789,10.163-2.211,13.279a7.483,7.483,0,0,0-.5,4.728c.96,3.938.511,5.779.36,6.232-.021.027-.041.054-.062.085l-.236.319c-1.893,2.561-5.417,7.329-5.417,18.144,0,12.084,8.124,17.428,12.842,18.727,4.48,1.6,8.621,4.12,9.673,10.795l-15.182,0a29.278,29.278,0,0,1,3.3,7.021l15.654,0a3.438,3.438,0,0,0,3.51-3.51C154.45,94.783,145.938,90.032,139.549,87.8Z"/>
      </g>
    </g>
  </g>
</svg>
