<svg xmlns="http://www.w3.org/2000/svg" xmlns:xlink="http://www.w3.org/1999/xlink" width="83.999" height="83.829" viewBox="0 0 83.999 83.829">
  <defs>
    <linearGradient id="linear-gradient" x1="0.5" x2="0.5" y2="1" gradientUnits="objectBoundingBox">
      <stop offset="0" stop-color="#739d41"/>
      <stop offset="1" stop-color="#1e84bd"/>
    </linearGradient>
  </defs>
  <g id="infrastructure_1_" data-name="infrastructure (1)" transform="translate(-0.525 -0.425)">
    <path id="Path_22632" data-name="Path 22632" d="M20.4,20.3H36.294V36.194H20.4Z" transform="translate(14.092 14.092)" fill="url(#linear-gradient)"/>
    <path id="Path_22633" data-name="Path 22633" d="M32.879,55.1a1.2,1.2,0,1,0,2.393,0V51.508H39.2V55.1a1.2,1.2,0,1,0,2.393,0V51.508h3.931V55.1a1.2,1.2,0,1,0,2.393,0V51.166a5.337,5.337,0,0,0,2.734-2.734h3.931a1.2,1.2,0,1,0,0-2.393H51V42.108h3.589a1.2,1.2,0,1,0,0-2.393H51V35.785h3.589a1.2,1.2,0,1,0,0-2.393H51V28.949h3.589a1.2,1.2,0,1,0,0-2.393H51V22.625h3.589a1.2,1.2,0,1,0,0-2.393H50.653A4.343,4.343,0,0,0,47.919,17.5V13.567a1.2,1.2,0,0,0-2.393,0v3.418h-3.76V13.4a1.2,1.2,0,0,0-2.393,0v3.589H35.443V13.4a1.2,1.2,0,0,0-2.393,0v3.589h-4.1V13.4a1.2,1.2,0,0,0-2.393,0v3.589H22.625V13.4a1.2,1.2,0,0,0-2.393,0v3.931A5.337,5.337,0,0,0,17.5,20.062H13.567a1.2,1.2,0,1,0,0,2.393h3.418v3.589H13.4a1.2,1.2,0,0,0,0,2.393h3.589v3.931H13.4a1.2,1.2,0,0,0,0,2.393h3.589V39.2H13.4a1.2,1.2,0,0,0,0,2.393h3.589v3.931H13.4a1.2,1.2,0,0,0,0,2.393h3.931a4.343,4.343,0,0,0,2.734,2.734v3.931a1.2,1.2,0,1,0,2.393,0V51.166h3.589v3.589a1.2,1.2,0,1,0,2.393,0V51.166h3.931V55.1ZM24.847,44.5a1.168,1.168,0,0,1-1.2-1.2V24.847a1.168,1.168,0,0,1,1.2-1.2H43.3a1.168,1.168,0,0,1,1.2,1.2V43.3a1.168,1.168,0,0,1-1.2,1.2Z" transform="translate(8.278 8.349)" fill="url(#linear-gradient)"/>
    <path id="Path_22634" data-name="Path 22634" d="M15.426,11.915a4,4,0,0,0,2.905-1.2l1.88,1.025v2.222a1.2,1.2,0,0,0,2.393,0V10.889a1.154,1.154,0,0,0-.684-1.025L19.357,8.5a3.752,3.752,0,0,0-1.2-3.418,4.449,4.449,0,0,0-5.982,0,4.449,4.449,0,0,0,0,5.982,11.427,11.427,0,0,0,3.247.855Z" transform="translate(7.445 2.482)" fill="url(#linear-gradient)"/>
    <path id="Path_22635" data-name="Path 22635" d="M36.756,4.888a4.511,4.511,0,0,0-1.2,3.247L32.484,9.673A1.405,1.405,0,0,0,31.8,10.7v3.076a1.2,1.2,0,1,0,2.393,0V11.724l2.222-1.2.171.171a4.126,4.126,0,0,0,5.811,0,4.449,4.449,0,0,0,0-5.982,4.2,4.2,0,0,0-5.64.171Z" transform="translate(22.175 2.331)" fill="url(#linear-gradient)"/>
    <path id="Path_22636" data-name="Path 22636" d="M29.338,17.644a1.168,1.168,0,0,0,1.2-1.2V10.978l1.88-2.393a3.763,3.763,0,0,0,1.367.171,4,4,0,0,0,2.905-1.2,4.449,4.449,0,0,0,0-5.982,4.454,4.454,0,0,0-5.982,0,4.363,4.363,0,0,0-.513,5.3L28.142,9.611a1.3,1.3,0,0,0-.342.684v5.811a1.637,1.637,0,0,0,1.538,1.538Z" transform="translate(19.339 0)" fill="url(#linear-gradient)"/>
    <path id="Path_22637" data-name="Path 22637" d="M25.359,11.715v2.393a1.2,1.2,0,0,0,2.393,0V11.886A3.546,3.546,0,0,0,29.46,10.86a4.449,4.449,0,0,0,0-5.982,4.454,4.454,0,0,0-5.982,0,4.449,4.449,0,0,0,0,5.982c.855.342,1.367.684,1.88.855Z" transform="translate(15.457 2.34)" fill="url(#linear-gradient)"/>
    <path id="Path_22638" data-name="Path 22638" d="M19.926,8.757a4.99,4.99,0,0,0,1.538-.342l2.051,2.393v5.469a1.2,1.2,0,0,0,2.393,0V10.466c0-.342-.171-.513-.342-.855L23.173,6.706a4.16,4.16,0,0,0-.513-5.127,4.449,4.449,0,0,0-5.982,0,4.449,4.449,0,0,0,0,5.982,4.794,4.794,0,0,0,3.247,1.2Z" transform="translate(10.636 0)" fill="url(#linear-gradient)"/>
    <path id="Path_22639" data-name="Path 22639" d="M19.215,46.365,21.778,45a1.405,1.405,0,0,0,.684-1.025V40.9a1.2,1.2,0,0,0-2.393,0v2.222l-1.88.855a4.126,4.126,0,0,0-5.811,0,4.449,4.449,0,0,0,0,5.982,4.449,4.449,0,0,0,5.982,0,4.725,4.725,0,0,0,.855-3.589Z" transform="translate(7.587 27.847)" fill="url(#linear-gradient)"/>
    <path id="Path_22640" data-name="Path 22640" d="M39.591,42.747a4,4,0,0,0-2.905,1.2l-.171.171-2.222-1.2V40.7a1.2,1.2,0,0,0-2.393,0v3.076a1.154,1.154,0,0,0,.684,1.025l3.076,1.538a3.9,3.9,0,0,0,1.2,3.247A4.23,4.23,0,1,0,42.838,43.6,11.427,11.427,0,0,0,39.591,42.747Z" transform="translate(22.246 27.706)" fill="url(#linear-gradient)"/>
    <path id="Path_22641" data-name="Path 22641" d="M33.64,48.387c-.513,0-.855.171-1.367.171l-1.88-2.393V40.7A1.2,1.2,0,1,0,28,40.7v5.811a.888.888,0,0,0,.342.684l2.051,2.734a4.409,4.409,0,0,0,.513,5.3,4.23,4.23,0,0,0,5.982-5.982,7.666,7.666,0,0,0-3.247-.855Z" transform="translate(19.481 27.706)" fill="url(#linear-gradient)"/>
    <path id="Path_22642" data-name="Path 22642" d="M27.609,42.918V40.7a1.2,1.2,0,0,0-2.393,0v2.393a6.927,6.927,0,0,0-1.538.855,4.449,4.449,0,0,0,0,5.982,4.454,4.454,0,0,0,5.982,0,4.449,4.449,0,0,0,0-5.982,11.486,11.486,0,0,0-2.051-1.025Z" transform="translate(15.599 27.706)" fill="url(#linear-gradient)"/>
    <path id="Path_22643" data-name="Path 22643" d="M24.669,39.5a1.168,1.168,0,0,0-1.2,1.2v5.469l-2.051,2.393a4.99,4.99,0,0,0-1.538-.342,4,4,0,0,0-2.905,1.2,4.449,4.449,0,0,0,0,5.982,4.449,4.449,0,0,0,5.982,0,4.117,4.117,0,0,0,.513-5.127l2.393-2.905a1.305,1.305,0,0,0,.342-.855V40.7a1.825,1.825,0,0,0-1.538-1.2Z" transform="translate(10.848 27.706)" fill="url(#linear-gradient)"/>
    <path id="Path_22644" data-name="Path 22644" d="M40.838,22.8h3.076a1.154,1.154,0,0,0,1.025-.684l1.367-2.564a3.752,3.752,0,0,0,3.418-1.2,4.448,4.448,0,0,0,0-5.982,4.449,4.449,0,0,0-5.982,0,4.126,4.126,0,0,0,0,5.811l-1.025,1.88H40.5a1.168,1.168,0,0,0-1.2,1.2C39.642,22.12,40.155,22.8,40.838,22.8Z" transform="translate(27.493 7.658)" fill="url(#linear-gradient)"/>
    <path id="Path_22645" data-name="Path 22645" d="M46.536,35.56,45,32.484a1.405,1.405,0,0,0-1.025-.684H40.9a1.2,1.2,0,1,0,0,2.393h2.222l1.2,2.222-.171.171a4.126,4.126,0,0,0,0,5.811,4.23,4.23,0,0,0,5.982-5.982,9.185,9.185,0,0,0-3.589-.855Z" transform="translate(27.777 22.246)" fill="url(#linear-gradient)"/>
    <path id="Path_22646" data-name="Path 22646" d="M50.025,30.293l-2.734-2.051a1.3,1.3,0,0,0-.684-.342H40.8a1.2,1.2,0,1,0,0,2.393h5.469l2.393,1.88a3.763,3.763,0,0,0-.171,1.367,4,4,0,0,0,1.2,2.905,4.23,4.23,0,0,0,5.982-5.982,5.569,5.569,0,0,0-5.64-.171Z" transform="translate(27.706 19.481)" fill="url(#linear-gradient)"/>
    <path id="Path_22647" data-name="Path 22647" d="M43.943,23.751a3.493,3.493,0,0,0-.855,1.538H40.7a1.2,1.2,0,0,0,0,2.393h2.222a3.546,3.546,0,0,0,1.025,1.709,4.449,4.449,0,0,0,5.982,0,4.454,4.454,0,0,0,0-5.982,4.481,4.481,0,0,0-5.982.342Z" transform="translate(27.635 15.597)" fill="url(#linear-gradient)"/>
    <path id="Path_22648" data-name="Path 22648" d="M40.7,26.007h5.811c.342,0,.513-.171.855-.342l2.905-2.393a4.16,4.16,0,0,0,5.127-.513,4.448,4.448,0,0,0,0-5.982,4.449,4.449,0,0,0-5.982,0,4,4,0,0,0-1.2,2.905,4.99,4.99,0,0,0,.342,1.538l-2.393,2.051H40.7a1.168,1.168,0,0,0-1.2,1.2c0,1.025.513,1.538,1.2,1.538Z" transform="translate(27.635 10.777)" fill="url(#linear-gradient)"/>
    <path id="Path_22649" data-name="Path 22649" d="M8.3,19.215l1.367,2.564a1.405,1.405,0,0,0,1.025.684h3.076a1.2,1.2,0,0,0,0-2.393H11.715l-.855-1.88a4.126,4.126,0,0,0,0-5.811,4.449,4.449,0,0,0-5.982,0,4.449,4.449,0,0,0,0,5.982,4.186,4.186,0,0,0,3.418.855Z" transform="translate(2.269 7.658)" fill="url(#linear-gradient)"/>
    <path id="Path_22650" data-name="Path 22650" d="M14.037,31.7H10.96a1.154,1.154,0,0,0-1.025.684L8.226,35.631a3.9,3.9,0,0,0-3.247,1.2,4.449,4.449,0,0,0,0,5.982,4.448,4.448,0,0,0,5.982,0,4,4,0,0,0,1.2-2.905,4.387,4.387,0,0,0-1.2-3.076l-.171-.171,1.2-2.222h2.222a1.168,1.168,0,0,0,1.2-1.2c-.171-1.025-.684-1.538-1.367-1.538Z" transform="translate(2.34 22.175)" fill="url(#linear-gradient)"/>
    <path id="Path_22651" data-name="Path 22651" d="M16.376,27.9H10.395a.888.888,0,0,0-.684.342L6.977,30.293a4.409,4.409,0,0,0-5.3.513,4.454,4.454,0,0,0,0,5.982,4.449,4.449,0,0,0,5.982,0,4,4,0,0,0,1.2-2.905c0-.513-.171-.855-.171-1.367l2.393-1.88h5.469a1.168,1.168,0,0,0,1.2-1.2A1.643,1.643,0,0,0,16.376,27.9Z" transform="translate(0 19.481)" fill="url(#linear-gradient)"/>
    <path id="Path_22652" data-name="Path 22652" d="M10.86,29.418a3.546,3.546,0,0,0,1.025-1.709h2.222a1.2,1.2,0,1,0,0-2.393H11.715a6.927,6.927,0,0,0-.855-1.538,4.449,4.449,0,0,0-5.982,0,4.454,4.454,0,0,0,0,5.982A4.481,4.481,0,0,0,10.86,29.418Z" transform="translate(2.269 15.741)" fill="url(#linear-gradient)"/>
    <path id="Path_22653" data-name="Path 22653" d="M16.376,23.373H10.907L8.515,21.322a4.99,4.99,0,0,0,.342-1.538,4,4,0,0,0-1.2-2.905,4.449,4.449,0,0,0-5.982,0,4.449,4.449,0,0,0,0,5.982,4.117,4.117,0,0,0,5.127.513l2.905,2.393a1.305,1.305,0,0,0,.855.342h5.811a1.168,1.168,0,0,0,1.2-1.2,1.381,1.381,0,0,0-1.2-1.538Z" transform="translate(0 10.848)" fill="url(#linear-gradient)"/>
  </g>
</svg>
