<svg xmlns="http://www.w3.org/2000/svg" width="44.199" height="45.397" viewBox="0 0 44.199 45.397">
  <g id="Group_2617" data-name="Group 2617" transform="translate(283 -94.603)">
    <path id="Path_808" data-name="Path 808" d="M32.619,41.7,22.123,48.4,11.651,41.7a14.766,14.766,0,0,1-6.6-12.494V11.943L22.123,5l17.13,6.943v3.335" transform="translate(-287.049 90.603)" fill="none" stroke="#fff" stroke-linecap="round" stroke-linejoin="round" stroke-width="2" opacity="0.503"/>
    <circle id="Ellipse_29" data-name="Ellipse 29" cx="3.5" cy="3.5" r="3.5" transform="translate(-257 110)" fill="none" stroke="#fff" stroke-linejoin="round" stroke-width="2" opacity="0.503"/>
    <circle id="Ellipse_30" data-name="Ellipse 30" cx="3.426" cy="3.426" r="3.426" transform="translate(-246.653 121.87)" fill="none" stroke="#fff" stroke-linejoin="round" stroke-width="2" opacity="0.503"/>
    <path id="Path_809" data-name="Path 809" d="M29.272,21H11" transform="translate(-286.204 92.876)" fill="none" stroke="#fff" stroke-linecap="round" stroke-linejoin="round" stroke-width="2" opacity="0.503"/>
    <path id="Path_810" data-name="Path 810" d="M11,26H26.577a1.142,1.142,0,0,1,.719.263l6.224,5.185a1.142,1.142,0,0,0,.719.263h5.31" transform="translate(-286.204 93.586)" fill="none" stroke="#fff" stroke-linecap="round" stroke-linejoin="round" stroke-width="2" opacity="0.503"/>
    <path id="Path_811" data-name="Path 811" d="M25.335,31.71H20.859a2.659,2.659,0,0,1-2.056-.982L15,26" transform="translate(-285.636 93.586)" fill="none" stroke="#fff" stroke-linecap="round" stroke-linejoin="round" stroke-width="2" opacity="0.503"/>
  </g>
</svg>
