<svg xmlns="http://www.w3.org/2000/svg" xmlns:xlink="http://www.w3.org/1999/xlink" width="85.024" height="85.03" viewBox="0 0 85.024 85.03">
  <defs>
    <linearGradient id="linear-gradient" x1="0.5" x2="0.5" y2="1" gradientUnits="objectBoundingBox">
      <stop offset="0" stop-color="#739d41"/>
      <stop offset="1" stop-color="#1e84bd"/>
    </linearGradient>
  </defs>
  <path id="internet-security" d="M30.357,18.942A75.906,75.906,0,0,0,45.076,20.5v6.975c-4.924,4.032-7.947,5.4-13.317,3.557a1,1,0,0,0-1.325.946V45.259H25.3c.114-9.741,1.889-18.934,5.058-26.317Zm-.564-3.525a28.4,28.4,0,0,1,8.255-10.4,41.856,41.856,0,0,0-18.02,8.3A39.517,39.517,0,0,0,29.2,16.636c.194-.412.39-.82.593-1.219Zm-1.417,3.07a39.774,39.774,0,0,1-10-3.791,41.927,41.927,0,0,0-14.3,30.563H23.3a72.358,72.358,0,0,1,5.078-26.772ZM23.3,47.26H4.076a41.928,41.928,0,0,0,14.3,30.563,39.774,39.774,0,0,1,10-3.791A72.362,72.362,0,0,1,23.3,47.26ZM45.076,4.3c-5.038.495-9.8,4.72-13.5,12.025q-.191.377-.376.761A74.449,74.449,0,0,0,45.076,18.5V4.3ZM62.359,15.417c.2.4.4.807.593,1.219a39.509,39.509,0,0,0,9.172-3.316,41.857,41.857,0,0,0-18.02-8.3,28.4,28.4,0,0,1,8.255,10.4Zm-1.785.9c-3.7-7.3-8.46-11.53-13.5-12.025V18.5A74.435,74.435,0,0,0,60.95,17.082Q60.765,16.7,60.574,16.321Zm1.144,32.6c0,7.634-5.98,14.3-14.642,16.446v6.652A75.911,75.911,0,0,1,61.8,73.576C64.964,66.194,66.739,57,66.853,47.26H61.718v1.657ZM60.393,31.036a1,1,0,0,1,1.325.946V45.259h5.134c-.114-9.741-1.889-18.934-5.058-26.317A75.911,75.911,0,0,1,47.076,20.5v6.975c4.924,4.032,7.947,5.4,13.317,3.557ZM60.574,76.2q.191-.377.376-.762a74.438,74.438,0,0,0-13.875-1.422V88.223c5.039-.495,9.8-4.72,13.5-12.025Zm-30.781.9c-.2-.4-.4-.808-.593-1.22A39.511,39.511,0,0,0,20.028,79.2a41.856,41.856,0,0,0,18.02,8.3A28.4,28.4,0,0,1,29.793,77.1Zm32.566,0A28.4,28.4,0,0,1,54.1,87.5a41.856,41.856,0,0,0,18.02-8.3,39.522,39.522,0,0,0-9.173-3.316C62.758,76.295,62.561,76.7,62.359,77.1Zm6.494-31.843H88.076A41.928,41.928,0,0,0,73.772,14.7a39.771,39.771,0,0,1-10,3.791,72.362,72.362,0,0,1,5.078,26.772ZM63.776,74.032a39.775,39.775,0,0,1,10,3.791,41.927,41.927,0,0,0,14.3-30.563H68.853a72.361,72.361,0,0,1-5.077,26.772ZM31.578,76.2c3.7,7.3,8.459,11.53,13.5,12.025V74.015A74.439,74.439,0,0,0,31.2,75.437q.186.385.376.762ZM30.434,48.917V47.26H25.3c.114,9.741,1.889,18.934,5.057,26.317a75.91,75.91,0,0,1,14.719-1.562V65.363c-8.662-2.146-14.642-8.812-14.642-16.446Zm29.284,0V33.332c-5.815,1.54-9.457-.678-13.642-4.086-4.185,3.408-7.826,5.625-13.642,4.086V48.917c0,6.852,5.6,12.841,13.642,14.627C54.119,61.758,59.718,55.768,59.718,48.917Z" transform="translate(-3.564 -3.745)" stroke="rgba(0,0,0,0)" stroke-miterlimit="10" stroke-width="1" fill="url(#linear-gradient)"/>
</svg>
