<?xml version="1.0" encoding="UTF-8"?><svg id="Layer_1" xmlns="http://www.w3.org/2000/svg" viewBox="0 0 800 450"><defs><style>.cls-1{fill:#202945;}.cls-1,.cls-2{stroke-width:0px;}.cls-2{fill:#e9485b;}</style></defs><path class="cls-1" d="M69.71,243.04c9.08-4.09,14.48-12.29,14.48-22.02,0-16.24-11.52-25.18-32.45-25.18-7.39,0-21.55.65-26.83,1.49l-.25.04v74.21h16.93v-24.89h11.56l18.31,24.77.09.12h20.19l-22.04-28.55ZM66.88,221.52c0,7.74-5.09,11.65-15.13,11.65h-10.15v-22.82c1.69-.11,8.61-.23,10.15-.23,9.76,0,15.13,4.05,15.13,11.4"/><path class="cls-1" d="M145.53,239.18c0-17.83-9.41-27.66-26.5-27.66s-29.89,12.59-29.89,31.31,12.69,30,32.34,30c9.08,0,16.9-1.92,22.02-5.39l.14-.09v-13.98l-.46.27c-6.3,3.57-12.49,5.17-20.07,5.17s-16.2-3.78-17.46-12.02h39.89v-7.6ZM105.83,236.79c1.6-7.48,6.24-11.75,12.79-11.75s10.83,4.28,11.08,11.75h-23.87Z"/><path class="cls-1" d="M176.18,234.98c-5.59-1.27-7.67-2.78-7.67-5.56,0-2.95,2.72-4.64,7.47-4.64,5.84,0,11.13,1.71,17.16,5.55l.48.3v-14.68l-.16-.09c-5.64-3.04-11.03-4.33-18.02-4.33-14.72,0-23.51,7.08-23.51,18.93,0,10.69,5.73,16.02,19.77,18.41,6.84,1.33,9.02,2.78,9.02,5.95s-2.74,4.77-8.15,4.77c-6.1,0-13.63-2.53-19.2-6.45l-.49-.34v15.22l.15.09c4.87,2.97,12.32,4.74,19.95,4.74,15.55,0,24.47-6.8,24.47-18.67,0-11-6.17-16.55-21.26-19.18"/><path class="cls-1" d="M234.54,211.53c-18.5,0-31.93,12.89-31.93,30.66s13.43,30.65,31.93,30.65,32.06-12.89,32.06-30.65-13.49-30.66-32.06-30.66M234.54,258.67c-8.9,0-14.9-6.63-14.9-16.49s5.99-16.5,14.9-16.5,14.89,6.63,14.89,16.5-5.98,16.49-14.89,16.49"/><path class="cls-1" d="M333.24,212.83v45.76c-2.65.45-5.91.73-8.38.73-8.15,0-11.63-3.14-11.63-10.5v-36h-17.04v37.3c0,15.71,8.88,22.71,28.81,22.71,8.03,0,18.33-1.24,25.05-3l.23-.06v-56.94h-17.04Z"/><rect class="cls-1" x="408.42" y="212.83" width="16.9" height="58.7"/><path class="cls-1" d="M463.5,211.52c-18.5,0-31.93,12.9-31.93,30.66s13.43,30.66,31.93,30.66,32.06-12.9,32.06-30.66-13.48-30.66-32.06-30.66M478.38,242.18c0,9.87-5.98,16.49-14.89,16.49s-14.9-6.62-14.9-16.49,5.98-16.49,14.9-16.49,14.89,6.62,14.89,16.49"/><path class="cls-1" d="M531.02,211.52c-9.15,0-20.54,2-29.01,5.1l-.2.07v54.84h16.9v-43.71c3.48-1.04,7.4-1.61,11.09-1.61,6.91,0,10.41,3.23,10.41,9.59v35.73h17.04v-36.78c0-15.85-8.33-23.23-26.23-23.23"/><polygon class="cls-1" points="610.06 256.46 610.06 193.55 592.21 193.55 592.21 271.53 641.68 271.53 641.68 256.46 610.06 256.46"/><rect class="cls-1" x="648.51" y="212.83" width="16.9" height="58.7"/><rect class="cls-1" x="648.65" y="189.56" width="16.61" height="15.81"/><path class="cls-1" d="M707.32,199.85h7.09v-14.81h-9.27c-14.55,0-22.57,8.2-22.57,23.1v4.69h-9.5v13.64h9.5v45.06h17.04v-45.06h14.8v-13.64h-14.8v-4.95c0-5.4,2.52-8.03,7.7-8.03"/><path class="cls-1" d="M772.69,239.18c0-17.83-9.41-27.66-26.5-27.66s-29.89,12.59-29.89,31.31,12.69,30,32.34,30c9.08,0,16.9-1.92,22.02-5.39l.13-.09v-13.98l-.46.27c-6.3,3.57-12.49,5.17-20.07,5.17s-16.2-3.78-17.46-12.02h39.89v-7.6ZM733,236.79c1.6-7.48,6.24-11.75,12.79-11.75s10.84,4.28,11.08,11.75h-23.87Z"/><polygon class="cls-1" points="272.41 190.9 272.21 190.98 272.21 271.53 289.11 271.53 289.11 184.29 272.41 190.9"/><path class="cls-1" d="M400.29,255.68c-3.05,1.51-5.95,2.22-9.11,2.22-5.42,0-7.83-2.6-7.83-8.42v-23h17.23v-13.64h-17.23v-21.39l-16.91,6.52v14.87h-9.09v13.64h9.09v27.17c0,12.2,7.39,19.19,20.26,19.19,5.36,0,9.89-.8,13.84-2.42l.19-.08v-14.88l-.44.22Z"/><polygon class="cls-2" points="408.41 205 408.41 165.69 491.78 165.69 408.41 205"/></svg>