<?xml version="1.0" encoding="UTF-8"?><svg id="Layer_1" xmlns="http://www.w3.org/2000/svg" viewBox="0 0 800 450"><defs><style>.cls-1,.cls-2,.cls-3{stroke-width:0px;}.cls-1,.cls-3{fill:#000;}.cls-2{fill:#00be26;}.cls-3{fill-rule:evenodd;}</style></defs><g id="Layer_1-2"><path class="cls-2" d="M173.82,289.77v8.87h-8.29v-34.09h31.55c6.68.35,11.86,5.99,11.75,12.67.12,4.84-2.65,9.33-7.02,11.52l7.37,10.02h-10.48l-6.68-8.87-18.2-.12ZM598.55,298.63c-2.3-.12-4.61-1.04-6.22-2.76-1.73-1.73-2.65-4.15-2.65-6.56v-15.43c0-2.42.92-4.84,2.65-6.68,1.61-1.73,3.8-2.65,6.22-2.76h34.43v8.87h-31.21c-.92,0-1.73.35-2.3,1.04-.69.69-1.04,1.5-1.04,2.53v8.75c0,1.15.46,2.3,1.15,3.11.81.81,1.84,1.27,2.88,1.27h21.88v-6.79h8.29v15.43h-34.09ZM394.25,298.63h-34.09c-2.3,0-4.61-1.04-6.22-2.76-1.73-1.73-2.65-4.15-2.65-6.56v-15.43c0-2.42.81-4.61,2.42-6.45,1.61-1.73,3.8-2.76,6.22-2.76h34.43v8.64h-31.09c-.92,0-1.73.35-2.3,1.04-.69.69-1.04,1.5-1.04,2.53v8.75c0,1.15.46,2.3,1.15,3.11s1.84,1.27,2.88,1.27h30.4v8.75l-.12-.12ZM281.62,278.25l-15.09,20.38h-10.94c5.3-7.26,10.6-15.09,16.35-22,7.49-9.33,9.79-12.09,17.27-12.09h15.09v34.09h-8.52v-25.11h-5.99c-1.61-.12-3.11.23-4.49.92-1.5,1.15-2.76,2.42-3.69,3.8ZM451.37,298.63h-9.9v-34.09h9.9v34.09ZM529.45,298.63l-21.88-22v22.11h-9.33v-34.09h10.36l24.76,25.22v-25.34h9.33v34.09h-13.24ZM173.82,273.3v7.83h23.26c1.96-.23,3.45-1.96,3.34-3.92,0-2.07-1.61-3.8-3.69-3.92h-22.92Z"/><path class="cls-3" d="M227.83,355.99v-16.35h11.63v3.11h-8.18v3.92h7.14v2.88h-7.14v6.68l-3.45-.23ZM254.09,355.99l-2.53-2.42v-11.4l2.53-2.53h8.98l2.53,2.53v11.4l-2.53,2.42h-8.98ZM255.93,353.22h5.07l.92-.92v-8.98l-.92-.92h-5.07l-.92.92v8.98c.12,0,.92.92.92.92ZM278.97,355.99v-16.35h10.36l2.53,2.53v5.76l-2.07,2.07,2.65,6.22h-3.69l-2.3-5.76h-3.92v5.76l-3.57-.23ZM282.42,347.46h5.07l.92-.92v-3.11l-.92-.92h-5.07v4.95h0ZM305.45,355.99v-16.35h3.92l4.49,10.94,4.49-10.94h3.8v16.35h-3.45v-10.13l-4.03,9.79h-1.84l-4.03-9.79v10.13h-3.34ZM338.28,355.99l-2.42-2.42v-13.93h3.45v12.67l.92.92h4.95l.92-.92v-12.67h3.45v13.93l-2.53,2.42h-8.75ZM363.15,355.99v-16.35h3.45v13.47h7.83v3.11l-11.29-.23ZM385.95,355.99l5.07-16.35h5.41l5.07,16.35h-3.69l-1.04-3.57h-6.22l-1.04,3.57h-3.57ZM391.37,349.54h4.72l-1.96-7.02h-.69l-1.96,7.02h-.12ZM429.83,355.99v-16.35h11.86v3.11h-8.41v3.57h7.6v2.88h-7.6v4.15h8.41v3.11l-11.86-.46ZM474.17,355.99v-13.36h-4.61v-3.11h12.67v3.11h-4.61v13.47h-3.45v-.12ZM494.78,355.99v-16.35h11.86v3.11h-8.29v3.57h7.6v2.88h-7.6v4.15h8.41v3.11l-11.98-.46ZM518.51,355.99l5.07-16.35h5.41l5.07,16.35h-3.69l-1.15-3.57h-6.22l-1.04,3.57h-3.45ZM523.92,349.54h4.61l-1.96-7.02h-.69l-1.96,7.02ZM546.49,355.99v-16.35h3.8l4.49,10.94,4.49-10.94h3.8v16.35h-3.45v-10.13l-4.03,9.79h-1.61l-4.03-9.79v10.13h-3.45Z"/><path class="cls-2" d="M618.59,344.01h107.22v-62.42h7.72v70.13h-114.93v-7.72ZM179.93,351.72h-114.93v-70.13h7.72v62.42h107.22v7.72Z"/><path class="cls-1" d="M609.72,334.8c7.14,0,13.01,5.87,13.01,13.01s-5.87,13.01-13.01,13.01-13.01-5.87-13.01-13.01h0c0-7.14,5.87-13.01,13.01-13.01ZM609.72,341.01c-3.69,0-6.68,3.11-6.68,6.79s3.11,6.68,6.79,6.68,6.56-2.99,6.56-6.56-2.99-6.68-6.68-6.68h-.12v-.23h.12ZM188.79,334.8c-7.14,0-13.01,5.87-13.01,13.01s5.87,13.01,13.01,13.01,13.01-5.87,13.01-13.01h0c0-7.14-5.87-13.01-13.01-13.01ZM188.79,341.01c3.69,0,6.68,3.11,6.68,6.79s-3.11,6.68-6.79,6.68-6.56-2.99-6.56-6.56,2.99-6.68,6.68-6.68h.12v-.23h-.12Z"/><path class="cls-2" d="M609.72,334.8c7.14,0,13.01,5.87,13.01,13.01s-5.87,13.01-13.01,13.01-13.01-5.87-13.01-13.01h0c0-7.14,5.87-13.01,13.01-13.01ZM188.79,334.8c-7.14,0-13.01,5.87-13.01,13.01s5.87,13.01,13.01,13.01,13.01-5.87,13.01-13.01h0c0-7.14-5.87-13.01-13.01-13.01ZM188.79,341.01c3.69,0,6.68,3.11,6.68,6.79s-3.11,6.68-6.79,6.68-6.56-2.99-6.56-6.56,2.99-6.68,6.68-6.68h.12v-.23h-.12ZM609.72,341.01c-3.69,0-6.68,3.11-6.68,6.79s3.11,6.68,6.79,6.68,6.56-2.99,6.56-6.56-2.99-6.68-6.68-6.68h-.12v-.23h.12Z"/><path class="cls-1" d="M275.74,200.97c-13.82,15.43-45.49,10.13-69.56,3.11-14.05-4.03-15.09,2.76-11.86,9.9,3.22,7.14,14.28,18.31,34.43,20.04,10.94,1.04,21.88-1.73,30.98-7.72.58-.46.23-1.15-.46-.81-14.28,7.26-39.85,4.38-45.49-5.41-.81-1.38-.23-2.19,3.69-1.27,28.22,6.45,48.6-.35,59.08-17.62v-.35c-.12,0-.35.12-.35.23l-.46-.12ZM184.53,137.4c-.69.46-.23,1.15.46.92,14.17-7.37,39.62-4.49,45.37,5.3.69,1.38.23,2.19-3.69,1.27-28.22-6.45-48.6.35-59.08,17.62-.23.46.23.58.58.23,13.82-15.43,45.49-10.13,69.56-3.22,14.05,4.03,15.09-2.76,11.86-9.9-3.22-7.14-14.4-18.31-34.32-19.92-1.38,0-2.76-.23-4.15-.23-9.56-.23-18.77,2.65-26.6,7.95ZM221.96,123.58c30.75,0,55.85,24.65,56.32,55.39,0,11.4-9.44,19.81-28.1,19.81-22.92,0-46.41-10.36-61.15-10.36-4.72-.12-8.64,3.57-8.75,8.29v.69c0,17.62,18.54,38.58,41.69,41.34.92,0,.92,1.15,0,1.15-30.75,0-55.85-24.65-56.32-55.39,0-11.4,9.56-19.81,28.1-19.81,22.8,0,45.95,10.36,61.15,10.36,4.72.12,8.64-3.57,8.75-8.29v-.69c0-17.62-18.31-38.35-41.69-41.34-1.04-.12-.92-1.15,0-1.15ZM632.87,184.51c0-1.84-.12-3.69-.46-5.53-.35-1.84-.92-3.57-1.84-5.18s-2.3-2.88-3.92-3.92c-2.07-1.04-4.38-1.61-6.68-1.5-3.34-.12-6.79.69-9.79,2.07-2.76,1.27-4.95,3.34-6.56,5.87v-7.14h-11.63v42.38h12.9v-24.3c.35-1.15.92-2.19,1.61-3.11.69-.92,1.38-1.73,2.3-2.3.81-.69,1.73-1.15,2.65-1.61.92-.35,1.84-.58,2.76-.58,1.61,0,3.11.69,4.15,1.96,1.27,1.84,1.84,4.03,1.61,6.22v23.84h12.9v-27.18h0ZM554.32,186c.46-1.27,1.15-2.53,1.96-3.57.81-.92,1.96-1.73,3.11-2.3s2.42-.81,3.8-.81c2.53,0,5.07,1.15,6.68,3.11,1.84,2.3,2.76,5.07,2.65,8.06,0,1.5-.23,2.99-.69,4.49-.46,1.27-1.15,2.42-1.96,3.45-.81.92-1.84,1.73-2.99,2.3s-2.42.81-3.69.81c-2.65,0-5.07-1.04-6.79-3.11-1.84-2.3-2.76-5.18-2.65-8.06,0-1.5.23-2.99.69-4.49h-.12v.12ZM572.63,210.76c2.65-1.04,5.07-2.76,7.14-4.84,1.96-1.96,3.45-4.38,4.38-7.02,2.07-5.41,2.07-11.29,0-16.7-1.04-2.65-2.53-4.95-4.38-7.02-2.07-2.07-4.49-3.69-7.14-4.84-2.99-1.27-6.33-1.84-9.56-1.84s-6.56.58-9.67,1.84c-2.65,1.15-5.07,2.76-7.14,4.84-1.96,2.07-3.45,4.38-4.38,7.02-1.96,5.41-1.96,11.29,0,16.7,1.04,2.65,2.53,5.07,4.38,7.02,1.96,2.07,4.49,3.69,7.14,4.84,6.22,2.42,13.13,2.42,19.23,0h0ZM533.94,152.84h-12.9v11.75h12.9v-11.75ZM533.94,169.42h-12.9v42.27h12.9v-42.27h0ZM510.22,208.81c3.11-2.42,4.84-6.1,4.72-10.02,0-1.61-.23-3.11-.92-4.61-.69-1.38-1.61-2.53-2.76-3.45-1.5-1.15-3.22-2.07-5.07-2.65-2.07-.81-4.61-1.61-7.6-2.42-2.07-.46-4.03-1.04-5.87-1.96-1.5-.81-1.96-2.76-1.15-4.26.23-.46.69-.81,1.15-1.15,1.04-.58,2.3-.92,3.57-.92,1.84,0,3.8.46,5.53,1.15,2.3.92,4.49,2.19,6.45,3.57l5.07-7.72c-2.3-2.07-5.07-3.69-8.06-4.72-2.88-.92-5.87-1.27-8.87-1.27-2.3,0-4.61.35-6.79,1.04-1.96.69-3.8,1.61-5.3,2.88-3.11,2.53-4.95,6.33-4.84,10.36,0,1.38.23,2.88.81,4.15s1.5,2.3,2.65,3.11c1.5,1.04,3.11,1.84,4.84,2.53,1.96.69,4.38,1.5,7.26,2.3,2.19.46,4.26,1.15,6.22,2.19,1.04.46,1.73,1.61,1.73,2.76,0,1.04-.46,2.07-1.38,2.53-1.15.69-2.53.92-3.92.92-2.42,0-4.84-.58-7.02-1.5-2.65-1.15-5.18-2.53-7.49-4.15l-4.61,7.95c2.53,2.3,5.64,4.03,8.87,5.07,3.45,1.15,7.02,1.73,10.6,1.73,4.49.23,8.98-1.04,12.67-3.69l-.46.23ZM471.98,152.84h-12.9v11.75h12.9v-11.75ZM471.98,169.42h-12.9v42.27h12.9v-42.27h0ZM439.28,211.68l14.97-42.38h-12.09l-9.33,32.02-9.33-32.02h-13.36l14.97,42.38h14.17ZM406.68,184.62c0-1.84-.12-3.69-.46-5.53-.35-1.84-.92-3.57-1.84-5.18-.92-1.61-2.3-2.88-3.92-3.92-2.07-1.04-4.38-1.61-6.68-1.5-3.34-.12-6.79.58-9.79,2.07-2.65,1.27-4.95,3.34-6.45,5.87v-7.14h-11.75v42.38h12.9v-24.3c.35-1.15.92-2.19,1.61-3.11.69-.92,1.5-1.73,2.3-2.3.81-.69,1.73-1.15,2.65-1.61.92-.35,1.84-.58,2.76-.58,1.61,0,3.11.69,4.15,1.96,1.27,1.84,1.84,4.03,1.61,6.22v23.84h12.9v-27.18h0ZM331.83,200.05v-12.21h22.57v-10.71h-22.57v-11.17h26.26v-11.63h-39.5v57.24h40.19v-11.63l-26.95.12Z"/><path class="cls-2" d="M725.8,164.24v-62.42H72.71v62.42h-7.72v-70.13h668.53v70.13h-7.72Z"/></g></svg>