<?xml version="1.0" encoding="UTF-8"?><svg id="Layer_1" xmlns="http://www.w3.org/2000/svg" xmlns:xlink="http://www.w3.org/1999/xlink" viewBox="0 0 800 450"><defs><style>.cls-1{mask:url(#mask);}.cls-2{fill:#fff;}.cls-2,.cls-3,.cls-4{fill-rule:evenodd;stroke-width:0px;}.cls-3{fill:#00a1e0;}.cls-4{fill:#fffffe;}</style><mask id="mask" x="168.38" y="62.13" width="463.51" height="324.4" maskUnits="userSpaceOnUse"><g id="b"><path id="a" class="cls-2" d="M168.89,62.13h462.99v323.42H168.89V62.13Z"/></g></mask></defs><g class="cls-1"><path class="cls-3" d="M361.14,97.54c14.95-15.56,35.75-25.19,58.73-25.19,30.64,0,57.19,17.02,71.49,42.38,12.69-5.67,26.44-8.6,40.34-8.6,55.15,0,99.92,45.11,99.92,100.77s-44.77,100.77-99.92,100.77c-6.74,0-13.31-.68-19.75-1.96-12.51,22.3-36.43,37.45-63.66,37.45-11.09.02-22.03-2.49-32-7.35-12.68,29.79-42.21,50.73-76.6,50.73s-66.39-22.64-78.13-54.47c-5.23,1.1-10.56,1.66-15.9,1.65-42.72,0-77.28-35.07-77.28-78.13,0-28.94,15.56-54.13,38.64-67.75-4.9-11.28-7.42-23.45-7.4-35.75,0-49.7,40.34-89.88,90.05-89.88,29.11,0,55.15,13.87,71.49,35.41"/></g><path class="cls-4" d="M235.86,230.31c-.29.76.1.92.2,1.05.87.63,1.75,1.09,2.64,1.6,4.73,2.5,9.19,3.23,13.86,3.23,9.5,0,15.4-5.06,15.4-13.19v-.16c0-7.52-6.67-10.26-12.9-12.22l-.82-.26c-4.72-1.53-8.78-2.86-8.78-5.96v-.16c0-2.66,2.38-4.61,6.06-4.61,4.09,0,8.95,1.36,12.07,3.08,0,0,.92.6,1.26-.29.18-.48,1.77-4.73,1.94-5.21.18-.5-.14-.87-.46-1.07-3.57-2.18-8.51-3.66-13.62-3.66h-.95c-8.7,0-14.77,5.26-14.77,12.79v.16c0,7.93,6.71,10.52,12.97,12.31l1.01.31c4.56,1.4,8.51,2.62,8.51,5.82v.16c0,2.94-2.57,5.14-6.69,5.14-1.6,0-6.71-.03-12.24-3.52-.67-.39-1.05-.67-1.57-.99-.27-.17-.95-.46-1.25.43l-1.87,5.21M374.92,230.29c-.29.76.1.92.2,1.05.87.63,1.75,1.09,2.64,1.6,4.73,2.5,9.19,3.23,13.86,3.23,9.5,0,15.4-5.06,15.4-13.19v-.16c0-7.52-6.66-10.26-12.9-12.22l-.82-.26c-4.72-1.53-8.78-2.86-8.78-5.96v-.16c0-2.66,2.38-4.61,6.06-4.61,4.09,0,8.94,1.36,12.07,3.08,0,0,.92.6,1.26-.29.18-.48,1.77-4.73,1.92-5.21.18-.5-.14-.87-.46-1.07-3.57-2.18-8.51-3.66-13.62-3.66h-.95c-8.7,0-14.77,5.26-14.77,12.79v.16c0,7.93,6.71,10.52,12.97,12.31l1.01.31c4.58,1.4,8.51,2.62,8.51,5.82v.16c0,2.94-2.57,5.14-6.69,5.14-1.61,0-6.72-.03-12.24-3.52-.67-.39-1.06-.66-1.57-.99-.17-.11-.97-.42-1.25.43l-1.87,5.21M469.88,214.35c0,4.6-.86,8.22-2.54,10.79-1.67,2.54-4.2,3.78-7.73,3.78s-6.04-1.23-7.69-3.76c-1.66-2.55-2.5-6.2-2.5-10.79s.84-8.2,2.5-10.74c1.65-2.52,4.15-3.73,7.69-3.73s6.06,1.22,7.73,3.73c1.69,2.54,2.54,6.14,2.54,10.74M477.81,205.84c-.78-2.64-1.99-4.95-3.61-6.89-1.62-1.94-3.66-3.51-6.09-4.63-2.42-1.13-5.28-1.7-8.51-1.7s-6.08.57-8.51,1.7c-2.42,1.13-4.48,2.69-6.09,4.63-1.61,1.94-2.83,4.26-3.61,6.89-.77,2.62-1.17,5.48-1.17,8.53s.39,5.91,1.17,8.53c.78,2.64,1.99,4.95,3.61,6.89,1.62,1.94,3.68,3.49,6.09,4.6,2.43,1.1,5.29,1.66,8.51,1.66s6.08-.56,8.49-1.66c2.42-1.1,4.48-2.66,6.09-4.6,1.62-1.94,2.83-4.26,3.61-6.89.77-2.62,1.17-5.48,1.17-8.53s-.39-5.91-1.17-8.53M542.99,227.62c-.26-.77-1.01-.48-1.01-.48-1.15.44-2.38.85-3.69,1.05-1.32.21-2.79.31-4.34.31-3.83,0-6.89-1.14-9.07-3.4-2.2-2.26-3.42-5.91-3.4-10.84.01-4.49,1.1-7.86,3.05-10.45,1.92-2.55,4.89-3.88,8.8-3.88,3.27,0,5.77.38,8.39,1.2,0,0,.62.27.92-.55.7-1.92,1.21-3.3,1.96-5.41.21-.6-.31-.86-.5-.93-1.03-.4-3.46-1.06-5.29-1.34-1.72-.26-3.71-.4-5.96-.4-3.34,0-6.3.57-8.83,1.7-2.54,1.13-4.68,2.69-6.38,4.63-1.7,1.94-3,4.26-3.86,6.89-.86,2.62-1.29,5.5-1.29,8.54,0,6.57,1.77,11.9,5.28,15.8,3.51,3.92,8.78,5.89,15.66,5.89,4.07,0,8.24-.82,11.23-2.01,0,0,.57-.28.32-.94l-1.96-5.38M556.87,209.92c.38-2.55,1.08-4.68,2.18-6.33,1.65-2.52,4.15-3.9,7.68-3.9s5.86,1.39,7.52,3.9c1.11,1.66,1.59,3.86,1.77,6.33h-19.23s.09,0,.09,0ZM583.59,204.3c-.68-2.54-2.35-5.11-3.44-6.28-1.74-1.86-3.42-3.17-5.11-3.88-2.43-1.03-5.05-1.57-7.69-1.56-3.35,0-6.4.57-8.87,1.72-2.47,1.16-4.54,2.74-6.18,4.72-1.63,1.97-2.86,4.31-3.64,6.98-.78,2.64-1.18,5.53-1.18,8.56s.41,5.97,1.22,8.58c.82,2.62,2.13,4.92,3.9,6.83,1.77,1.92,4.03,3.42,6.76,4.48,2.71,1.05,5.99,1.59,9.75,1.58,7.76-.03,11.85-1.75,13.52-2.69.3-.17.58-.45.23-1.28l-1.75-4.92c-.27-.73-1.01-.47-1.01-.47-1.92.72-4.65,2.01-11.03,1.99-4.17,0-7.25-1.24-9.19-3.17-1.97-1.97-2.96-4.85-3.12-8.94l26.89.02s.71,0,.78-.7c.03-.29.92-5.52-.8-11.56h-.04ZM341.88,209.92c.38-2.55,1.08-4.68,2.18-6.33,1.65-2.52,4.15-3.9,7.68-3.9s5.86,1.39,7.52,3.9c1.1,1.66,1.59,3.86,1.77,6.33h-19.23s.09,0,.09,0ZM368.61,204.3c-.67-2.54-2.35-5.11-3.44-6.28-1.74-1.86-3.42-3.17-5.11-3.88-2.43-1.03-5.05-1.57-7.69-1.56-3.35,0-6.4.57-8.87,1.72-2.47,1.16-4.54,2.74-6.18,4.72-1.63,1.97-2.86,4.31-3.64,6.98-.78,2.64-1.17,5.53-1.17,8.56s.41,5.97,1.22,8.58c.81,2.62,2.13,4.92,3.88,6.83,1.77,1.92,4.03,3.42,6.76,4.48,2.71,1.05,5.97,1.59,9.75,1.58,7.76-.03,11.85-1.75,13.52-2.69.3-.17.58-.45.23-1.28l-1.75-4.92c-.27-.73-1.01-.47-1.01-.47-1.92.72-4.65,2.01-11.03,1.99-4.15,0-7.25-1.24-9.19-3.17-1.97-1.97-2.96-4.85-3.12-8.94l26.89.02s.71,0,.78-.7c.03-.29.92-5.52-.8-11.56h-.02ZM283.84,227.45c-1.05-.84-1.2-1.05-1.55-1.59-.53-.82-.81-1.99-.81-3.49,0-2.35.78-4.05,2.4-5.19-.02,0,2.31-2.01,7.8-1.94,2.44.04,4.87.25,7.29.62v12.2h0s-3.4.73-7.25.97c-5.46.33-7.88-1.57-7.86-1.57h-.02ZM294.53,208.56c-1.09-.08-2.5-.12-4.19-.12-2.3,0-4.53.29-6.6.85-2.09.57-3.98,1.44-5.6,2.6-1.62,1.16-2.96,2.67-3.9,4.43-.95,1.77-1.44,3.85-1.44,6.2s.41,4.44,1.23,6.13c.8,1.67,2.01,3.12,3.51,4.2,1.49,1.09,3.34,1.89,5.46,2.37,2.11.48,4.49.73,7.12.73,2.76,0,5.5-.23,8.15-.68,2.26-.39,4.51-.83,6.76-1.31.9-.21,1.89-.48,1.89-.48.66-.17.61-.88.61-.88l-.02-24.51c0-5.38-1.44-9.38-4.27-11.85-2.83-2.47-6.96-3.71-12.32-3.71-2.01,0-5.26.27-7.2.66,0,0-5.86,1.14-8.27,3.03,0,0-.53.33-.24,1.07l1.91,5.11c.24.66.88.44.88.44,0,0,.2-.08.44-.22,5.16-2.81,11.69-2.72,11.69-2.72,2.89,0,5.14.59,6.64,1.74,1.47,1.13,2.21,2.83,2.21,6.4v1.14c-2.3-.33-4.43-.53-4.43-.53l-.03-.06ZM510.71,194.72c.16-.37-.01-.8-.38-.96,0,0-.02,0-.02,0-.46-.17-2.74-.66-4.49-.76-3.37-.21-5.24.36-6.93,1.11-1.66.75-3.51,1.96-4.53,3.35v-3.27c0-.45-.32-.81-.77-.81h-6.88c-.45,0-.77.36-.77.81v40c0,.45.37.81.82.82h7.05c.45,0,.81-.37.81-.82v-20.09c0-2.69.3-5.36.89-7.05.58-1.67,1.37-3,2.35-3.95.93-.92,2.07-1.6,3.32-1.99,1.17-.34,2.39-.51,3.61-.51,1.4,0,2.94.36,2.94.36.52.06.81-.26.98-.73.46-1.23,1.77-4.9,2.03-5.63"/><path class="cls-4" d="M444.89,176.26c-.87-.26-1.76-.47-2.65-.63-1.21-.2-2.43-.3-3.65-.28-4.86,0-8.68,1.37-11.37,4.08-2.67,2.69-4.49,6.79-5.4,12.18l-.33,1.82h-6.1s-.74-.03-.9.78l-1,5.58c-.07.53.16.87.87.86h5.93l-6.02,33.61c-.47,2.71-1.01,4.93-1.61,6.62-.59,1.66-1.16,2.91-1.87,3.82-.69.88-1.34,1.52-2.46,1.9-.93.31-1.99.45-3.16.45-.65,0-1.51-.11-2.15-.24-.64-.13-.97-.27-1.45-.47,0,0-.7-.27-.97.43-.22.57-1.8,4.92-1.99,5.46-.19.53.08.95.41,1.07.79.28,1.38.46,2.45.72,1.49.35,2.75.37,3.93.37,2.47,0,4.72-.35,6.59-1.02,1.88-.68,3.52-1.86,4.96-3.46,1.56-1.73,2.55-3.54,3.49-6.01.93-2.45,1.72-5.48,2.36-9.02l6.05-34.23h8.84s.75.03.9-.78l1-5.58c.07-.53-.16-.87-.88-.86h-8.58c.04-.19.43-3.21,1.42-6.06.42-1.21,1.21-2.19,1.88-2.86.63-.64,1.4-1.12,2.25-1.4.93-.29,1.91-.43,2.88-.42.81,0,1.6.1,2.21.22.83.18,1.16.27,1.37.34.87.27.99,0,1.16-.42l2.05-5.64c.21-.61-.3-.86-.49-.94M324.93,234.33c0,.45-.32.82-.77.82h-7.12c-.45,0-.77-.37-.77-.82v-57.31c0-.45.32-.81.77-.81h7.12c.45,0,.77.36.77.81v57.31"/></svg>