<?xml version="1.0" encoding="UTF-8"?><svg id="Layer_1" xmlns="http://www.w3.org/2000/svg" viewBox="0 0 800 450"><defs><style>.cls-1{fill:#0061aa;}.cls-1,.cls-2{stroke-width:0px;}.cls-2{fill:#fff;}</style></defs><g id="Logo"><path id="Octagon-Body" class="cls-1" d="M322.25,37.2l-110.05,109.97v155.65l110.05,109.97h155.5l110.05-109.97v-155.65l-110.05-109.97h-155.5Z"/><path id="ADT" class="cls-2" d="M471.68,285.7v-95.1h-35.86v-25.96h98.59v25.96h-36.19v95.1h-26.54ZM394.81,285.7l-1.1-2.15-30.1-58.94v-60.31h41.27c9.02-.06,17.96,1.78,26.22,5.41v25.63h27.69c4.82,9.11,7.29,19.28,7.19,29.59.13,8.05-1.35,16.05-4.35,23.52-3,7.47-7.45,14.27-13.11,20-5.78,5.6-12.62,10.01-20.11,12.98-7.49,2.96-15.49,4.42-23.54,4.29h-10.06ZM390.12,259.1h14.76c4.57.24,9.14-.47,13.41-2.1,4.28-1.62,8.17-4.12,11.42-7.34,3.26-3.21,5.8-7.07,7.48-11.33,1.68-4.26,2.45-8.81,2.26-13.39.19-4.57-.57-9.14-2.25-13.4-1.67-4.26-4.22-8.12-7.48-11.34-3.26-3.22-7.15-5.72-11.43-7.35-4.28-1.63-8.85-2.34-13.42-2.1h-14.74l-.02,68.34ZM354.5,273.29h-53.74l-6.46,12.41h-28.7l62.04-121.12,61.86,121.11h-28.69l-6.31-12.39ZM313.53,248.15h28.03l-13.93-27.3-14.1,27.3Z"/></g></svg>