<?xml version="1.0" encoding="UTF-8"?><svg id="Layer_1" xmlns="http://www.w3.org/2000/svg" viewBox="0 0 800 450"><defs><style>.cls-1{fill:#000;}.cls-1,.cls-2{stroke-width:0px;}.cls-2{fill:#a22928;}</style></defs><path class="cls-1" d="M147.19,374.24h26.71v5.65h-20.4v9.34h18.04v5.66h-18.04v9.67h20.64v5.67h-26.95s0-36,0-36Z"/><path class="cls-1" d="M187.3,374.24h5.87l19.33,24.88v-24.88h6.17v36h-5.29l-19.89-25.63v25.63h-6.19s0-36,0-36Z"/><path class="cls-1" d="M241.38,380.08h-11.41v-5.84h29.27v5.84h-11.41v30.15h-6.45s0-30.15,0-30.15Z"/><path class="cls-1" d="M271.57,374.24h26.69v5.65h-20.38v9.34h18.08v5.66h-18.08v9.67h20.67v5.67h-26.98s0-36,0-36Z"/><path class="cls-1" d="M327.31,392.06c4.54,0,7.4-2.39,7.4-6.02v-.1c0-3.85-2.79-5.96-7.46-5.96h-9.23v12.08h9.29ZM311.76,374.24h16.02c4.53,0,8.06,1.28,10.42,3.58,1.88,1.94,2.95,4.64,2.95,7.78v.06c0,5.92-3.55,9.51-8.6,10.95l9.72,13.62h-7.47l-8.84-12.56h-7.94v12.56h-6.26v-36Z"/><path class="cls-1" d="M362.39,380.08h-11.39v-5.84h29.21v5.84h-11.41v30.15h-6.4s0-30.15,0-30.15Z"/><path class="cls-1" d="M407.68,395.92l-6.23-14.39-6.16,14.39h12.39ZM398.61,373.96h5.87l15.85,36.27h-6.69l-3.67-8.66h-17l-3.71,8.66h-6.49s15.84-36.27,15.84-36.27Z"/><path class="cls-1" d="M430.46,374.24h6.33v36h-6.33v-36Z"/><path class="cls-1" d="M452.1,374.24h5.87l19.29,24.88v-24.88h6.25v36h-5.33l-19.86-25.63v25.63h-6.21v-36Z"/><path class="cls-1" d="M498.4,374.24h6.75l10.95,17,10.98-17h6.74v36h-6.33v-25.82l-11.39,16.97h-.22l-11.27-16.88v25.73h-6.21s0-36,0-36Z"/><path class="cls-1" d="M548.71,374.24h26.71v5.65h-20.35v9.34h18.06v5.66h-18.06v9.67h20.6v5.67h-26.95s0-36,0-36Z"/><path class="cls-1" d="M588.84,374.24h5.9l19.26,24.88v-24.88h6.24v36h-5.3l-19.85-25.63v25.63h-6.24s0-36,0-36Z"/><path class="cls-1" d="M644.02,380.08h-11.46v-5.84h29.25v5.84h-11.42v30.15h-6.37s0-30.15,0-30.15Z"/><path class="cls-1" d="M674.16,401.34c1.01,0,1.55-.54,1.55-1.29v-.05c0-.87-.6-1.32-1.6-1.32h-1.95v2.66s2,0,2,0ZM670.16,396.91h4.02c1.23,0,2.17.35,2.81.99.49.51.75,1.18.75,1.98v.05c0,1.47-.8,2.38-1.95,2.81l2.22,3.25h-2.34l-1.94-2.92h-1.58v2.92h-2v-9.08ZM681.21,401.7v-.05c0-4.17-3.23-7.54-7.52-7.54s-7.56,3.42-7.56,7.59v.05c0,4.16,3.23,7.54,7.52,7.54s7.56-3.41,7.56-7.59M665.13,401.75v-.05c0-4.65,3.76-8.54,8.56-8.54s8.52,3.84,8.52,8.48v.05c0,4.64-3.78,8.53-8.56,8.53s-8.51-3.85-8.51-8.48"/><path class="cls-2" d="M183.75,349.42c-24.85,0-40.34-16.7-40.34-35.29s16.9-38.08,40.77-38.08c10.09,0,20.77,4.07,23.03,5.8.74.64,1.85,8.41,2.06,15.08,0,.5-1.71.41-1.84.07-1.85-8.38-9.79-17.69-25.82-17.69s-28.28,11.35-28.28,30.84c0,23.78,16.02,35.82,31.36,35.82,11.24,0,22.31-6.65,23.15-17.63,0-.35,2.03-.44,2.03.22-.3,6.64-1.35,14.42-2.25,15.05-3.86,2.91-10.63,5.8-23.86,5.8"/><path class="cls-2" d="M249.8,317.43h22.17l-10.04-27.54s-12.13,27.54-12.13,27.54ZM289.42,347.26c-6.36,0-11.95.1-16.5.66-.82.2-.41-2.06-.07-2.06,4.92-.54,7.5-.41,7.5-3.34,0-3.23-2.04-8.18-4.08-13.58l-3.2-8.56h-24.58l-3.73,8.56c-2.8,6.37-4.62,10.57-4.62,13.58,0,2.45,2.04,2.92,6.84,3.34.57,0,.75,2.26-.07,2.06-3.39-.47-5.81-.66-10.32-.66-6.4,0-6.47.1-11.01.66-.88.2-.4-2.06-.06-2.06,7.27-.54,10.01-5.03,15.34-17.11l23.38-52.01c.4-.84,1.82-.61,2.03,0l19.88,52.01c5,13.02,7.03,16.57,15.97,17.19.28.1.75,2.08-.35,1.98-3.35-.47-7.85-.66-12.36-.66"/><path class="cls-2" d="M365.8,347.73c-4.01,0-10.88-.5-18.82-.5-10.88,0-21.96.1-29.83.66-.94.1-.41-2.06-.1-2.06,10.89-1.21,11.07-.76,11.07-17.01v-32.27c0-16.32-.19-15.91-11.07-17.23-.31,0-.97-2.07.1-1.91,7.88.53,18.42.75,29.36.75,8.01,0,15.28-.22,21.68-.75-.7,1.97-.75,3.98-.75,6.23,0,1.06,0,3.2.05,4.08.16.54-1.77.34-1.9,0-.82-4.76-3.11-6.11-17.23-6.11h-10.33c-.44,2.66-.52,7.62-.52,14.36v13.8h11.07c11.83,0,10.97-.84,11.63-3.63.07-.34,1.78,0,1.97.18-.39,1.64-.58,4.21-.58,6.66,0,1.21,0,3.35.12,4.2.22.57-1.83.47-1.94.13-.66-3.35-1.29-4.62-11.19-4.62h-11.07v15.73c0,13.97,1.72,15.28,6.67,15.28h5.72c16.43,0,17.4-1.42,19-8.54,0-.22,2.07-.22,1.98.34-.43,2.67-1.44,7.78-2.07,10.01-.57,1.91-1.17,2.22-3.02,2.22"/><path class="cls-2" d="M390.55,342.2c-.53-.41.22-6.66.64-14.22,0-.5,1.93-.41,1.93-.1.75,10.96,6.78,18.17,17.98,18.17,7.3,0,14.3-3.96,14.3-12.58,0-17.86-32.41-17.98-32.41-37.56,0-9.88,8.72-19.88,21.2-19.88,6.25,0,10.36,1.41,14.1,3.38.87.5,1.66,4.55,1.66,11.8,0,.52-2.19.4-2.19.08-1.26-7.96-6.55-12.01-14.4-12.01-6.74,0-12.95,4.26-12.95,10.94,0,17.1,31.76,16.78,31.76,37.33,0,11.83-9.11,21.84-22.02,21.84-7.69,0-13.93-2.45-19.61-7.21"/><path class="cls-2" d="M465.64,317.43h22.18l-10.04-27.54s-12.14,27.54-12.14,27.54ZM505.21,347.26c-6.33,0-11.93.1-16.43.66-.87.2-.46-2.06-.12-2.06,4.93-.54,7.56-.41,7.56-3.34,0-3.23-2.07-8.18-4.14-13.58l-3.19-8.56h-24.54l-3.79,8.56c-2.79,6.37-4.62,10.57-4.62,13.58,0,2.45,2.07,2.92,6.87,3.34.57,0,.78,2.26-.07,2.06-3.34-.47-5.82-.66-10.34-.66-6.34,0-6.43.1-10.97.66-.82.2-.41-2.06-.07-2.06,7.27-.54,9.97-5.03,15.34-17.11l23.38-52.01c.43-.84,1.82-.61,2.04,0l19.92,52.01c4.92,13.02,6.98,16.57,15.93,17.19.29.1.76,2.08-.35,1.98-3.35-.47-7.87-.66-12.4-.66"/><path class="cls-2" d="M549.81,280.46c-.52,2.28-.75,7.22-.75,15.06v17.86c1.52.07,2.25,0,4.08,0,16.15,0,21.86-5.81,21.86-14.72,0-14.68-9.66-18.39-20.39-18.39-1.67,0-2.98.06-4.8.19M561.78,315.78c-2.82.41-6.26.6-8.54.6-2.14,0-2.66,0-4.18-.19v12.67c0,15.51,0,16.25,10.04,17.01.27,0,.82,2.16-.23,2.06-3.35-.47-8.62-.66-13.33-.66-6.28,0-11.33.1-15.84.66-.85.2-.43-2.06-.12-2.06,9.68-.97,10.09-.88,10.09-17.01v-32.39c0-12.15-.19-15.94-6.35-15.94-1.18,0-2.56.22-4.06.44-.54.12-1.2-1.61-.23-1.95,4.42-1.38,15.17-1.78,27.01-1.78,15.72,0,28.61,4.82,28.61,16.76,0,6.02-3.72,14.87-15.05,19.46,5.81,15.51,22.73,34.14,34.8,34.14.31,0,.8,2.04-.16,2.04-25.2,0-37.74-16.92-42.46-33.85"/><path class="cls-2" d="M617.93,342.2c-.53-.41.22-6.66.63-14.22,0-.5,1.94-.41,1.94-.1.72,10.96,6.81,18.17,17.98,18.17,7.32,0,14.3-3.96,14.3-12.58,0-17.86-32.37-17.98-32.37-37.56,0-9.88,8.69-19.88,21.18-19.88,6.2,0,10.34,1.41,14.12,3.38.85.5,1.6,4.55,1.6,11.8,0,.52-2.13.4-2.13.08-1.32-7.96-6.59-12.01-14.46-12.01-6.75,0-12.87,4.26-12.87,10.94,0,17.1,31.74,16.78,31.74,37.33,0,11.83-9.16,21.84-22.09,21.84-7.65,0-13.89-2.45-19.57-7.21"/><path class="cls-1" d="M402.73,222.37c-28.31-.11-44.87-5.01-44.35-40.21,24.88,8.05,20.28,33.06,44.35,40.21"/><path class="cls-1" d="M378.13,84.43c-19.38,17.53-38.75,1.03-56.98,18.3,14.24-24.45,26.77-36.34,56.98-18.3"/><path class="cls-1" d="M321.89,94.75c3.73-26.8-13.06-41.5,27.64-68.82,18.5,34.48-12.52,40.22-27.64,68.82"/><path class="cls-1" d="M353.31,100.9c-8.03,24.9-33.05,20.28-40.2,44.35.1-28.29,5-44.86,40.2-44.35"/><path class="cls-1" d="M309.77,139.53c-10.17-25.08-32.05-29.41-10.47-73.42,33.27,20.62,9.28,41.11,10.47,73.42"/><path class="cls-1" d="M275.88,126.02c39.11,1.21,28.56,30.96,45.76,58.34-21.34-16.62-42.44-9.43-45.76-58.34"/><path class="cls-1" d="M285.54,189.62c34.49-18.51,40.23,12.52,68.83,27.63-26.81-3.72-41.49,13.05-68.83-27.63"/><path class="cls-1" d="M327.41,186.11c-14.07-24.58-18.09-41.38,12.64-58.53,5.5,25.57-18.48,34.11-12.64,58.53"/><path class="cls-1" d="M341.9,157.34c17.53,19.38,1.03,38.76,18.31,56.98-24.46-14.25-36.36-26.77-18.31-56.98"/><path class="cls-1" d="M325.72,239.85c20.61-33.27,41.11-9.26,73.41-10.47-25.08,10.18-29.41,32.05-73.41,10.47"/><path class="cls-1" d="M406.41,222.37c28.31-.11,44.86-5.01,44.33-40.22-24.87,8.04-20.27,33.05-44.33,40.22"/><path class="cls-1" d="M431.01,84.43c19.38,17.52,38.75,1.03,56.97,18.3-14.24-24.46-26.76-36.35-56.97-18.3"/><path class="cls-1" d="M487.24,94.75c-3.73-26.8,13.06-41.5-27.63-68.82-18.5,34.48,12.52,40.23,27.63,68.82"/><path class="cls-1" d="M455.82,100.89c8.04,24.89,33.06,20.29,40.2,44.36-.1-28.29-5-44.86-40.2-44.36"/><path class="cls-1" d="M499.36,139.53c10.17-25.08,32.05-29.41,10.48-73.43-33.27,20.62-9.28,41.11-10.48,73.43"/><path class="cls-1" d="M533.26,126.02c-39.12,1.21-28.58,30.96-45.77,58.34,21.34-16.62,42.45-9.43,45.77-58.34"/><path class="cls-1" d="M523.59,189.62c-34.48-18.51-40.23,12.52-68.82,27.63,26.81-3.72,41.49,13.05,68.82-27.63"/><path class="cls-1" d="M481.73,186.11c14.06-24.58,18.1-41.39-12.64-58.53-5.5,25.56,18.48,34.1,12.64,58.53"/><path class="cls-1" d="M467.23,157.33c-17.53,19.38-1.03,38.76-18.31,56.98,24.46-14.25,36.34-26.77,18.31-56.98"/><path class="cls-1" d="M483.41,239.84c-20.61-33.26-41.11-9.25-73.42-10.47,25.08,10.2,29.42,32.05,73.42,10.47"/></svg>