<?xml version="1.0" encoding="UTF-8"?><svg id="Layer_1" xmlns="http://www.w3.org/2000/svg" viewBox="0 0 800 450"><defs><style>.cls-1{fill:#a4a8a4;}.cls-1,.cls-2{stroke-width:0px;}.cls-2{fill:#017848;}</style></defs><path class="cls-1" d="M386.04,235.27l25.4-39.66v57.57h8.22v-73.29h-7.5l-28.63,45.7-28.73-45.7h-7.5v73.29h8.22v-57.57l25.4,39.66h5.11ZM456.3,199.46c-15.52,0-26.97,12.08-26.97,27.48s11.45,27.49,26.97,27.49,26.86-12.08,26.86-27.49-11.45-27.48-26.86-27.48h0ZM456.3,207.06c10.93,0,18.63,9.06,18.63,19.88s-7.71,19.89-18.63,19.89-18.74-9.06-18.74-19.89,7.7-19.88,18.74-19.88ZM550.98,245.48c-2.29,1.25-4.9,1.56-6.35,1.56-5.73,0-9.05-3.12-9.05-9.48v-30.09h13.53v-6.77h-13.53v-14.47h-8.02v52.16c0,10.21,6.04,16.04,15.51,16.04,3.33,0,6.04-.63,7.91-1.56v-7.4h0ZM500.18,200.71h-7.81v52.47h8.01v-26.65c0-11.87,6.56-19.05,16.24-19.05.73,0,1.67,0,2.19.1v-7.8c-.63-.21-1.88-.31-2.92-.31-7.08,0-13.01,3.95-15.72,11.35v-10.1ZM598.13,244.02v6.56c0,10.93-7.39,17.39-17.7,17.39-7.7,0-14.26-3.23-18.42-8.43l-5.42,5.1c5.31,6.66,13.74,10.62,23.84,10.62,14.58,0,25.41-9.48,25.41-23.85v-50.7h-8.02v8.96c-3.12-5.94-10.83-10.21-18.53-10.21-13.95,0-24.99,11.66-24.99,27.48s11.03,27.49,24.99,27.49c7.81,0,15.72-4.37,18.84-10.41ZM580.54,247.04c-9.89,0-18.11-8.43-18.11-20.1s8.22-20.09,18.11-20.09c9.06,0,17.8,7.29,17.8,20.09s-8.85,20.1-17.8,20.1ZM648.74,218.51v2.5c-17.39-1.35-34.46,2.39-34.46,18.11,0,9.06,7.18,15.31,16.76,15.31,7.91,0,14.47-3.95,18.22-10.73v9.48h7.5v-34.05c0-12.18-8.12-19.67-20.82-19.67-9.06,0-15.83,3.85-20.3,9.16l4.26,5.21c3.44-3.95,8.95-7.19,15.41-7.19,8.33,0,13.43,4.58,13.43,11.87h0ZM632.19,247.56c-5.83,0-10.1-3.54-10.1-8.85,0-9.26,9.58-11.87,19.58-11.87,2.5,0,5,.1,7.39.42v3.85c0,8.22-7.29,16.45-16.86,16.45ZM708.96,244.02v6.56c0,10.93-7.39,17.39-17.7,17.39-7.71,0-14.27-3.23-18.43-8.43l-5.42,5.1c5.31,6.66,13.74,10.62,23.85,10.62,14.58,0,25.4-9.48,25.4-23.85v-50.7h-8.02v8.96c-3.12-5.94-10.83-10.21-18.53-10.21-13.95,0-24.99,11.66-24.99,27.48s11.04,27.49,24.99,27.49c7.81,0,15.72-4.37,18.84-10.41ZM691.36,247.04c-9.89,0-18.11-8.43-18.11-20.1s8.22-20.09,18.11-20.09c9.06,0,17.8,7.29,17.8,20.09s-8.85,20.1-17.8,20.1ZM751.15,199.46c-15.41,0-26.34,12.08-26.34,27.48s10.93,27.49,27.59,27.49c8.53,0,15.41-2.92,21.13-9.16l-5-5.52c-3.97,4.67-9.8,7.34-15.93,7.29-10.31,0-18.42-6.87-19.37-17.8h41.44c.26-1.65.4-3.32.42-5,0-13.74-9.26-24.78-23.95-24.78h0ZM751.15,206.74c8.85,0,15.83,6.04,16.14,15.72v.21h-33.94c1.25-9.48,8.43-15.93,17.8-15.93Z"/><path class="cls-2" d="M274,252.2h17.73v-34.45c1.65-5.2,9.38-10.06,20.54-7.63v-16.88c-9.27,0-17.25,6.02-20.54,15.61v-14.45h-17.73v57.8ZM245.13,205.85c5.4,0,8.1,2.89,8.1,5.67,0,4.04-3.29,8.1-21.6,10.17,0-9.48,6.11-15.83,13.5-15.83ZM267.78,246.88v-15.37c-5.87,4.86-13.73,7.52-20.08,7.52s-11.85-3.46-14.45-9.01c23.24-1.61,34.63-9.49,34.63-20.57,0-8.91-9.27-16.42-22.19-16.42-17.14,0-30.98,12.37-30.98,30.41,0,16.99,14.2,29.58,32.05,29.58,7.64-.01,15.38-2.2,21.02-6.14ZM201.81,234.28v-28.43h12.08v-11.32l-12.09.12v-13.87l-33.58,23.35v-20.34l-28.05,20.8v1.28h10.57v31.66c0,10.06,7.51,15.38,17.73,15.38,4.46,0,8.22-.81,11.62-2.77v-11.91c-1.65.93-3.64,1.63-5.87,1.63-3.75,0-5.99-1.85-5.99-5.09v-28.9h16.08v31.55c0,10.17,7.51,15.49,17.84,15.49,4.58,0,8.33-.58,11.97-2.77v-12.02c-1.89,1.1-4.03,1.7-6.22,1.73-3.76-.03-6.11-1.99-6.11-5.57ZM116.23,205.85c5.41,0,8.11,2.89,8.11,5.67,0,4.04-3.29,8.1-21.61,10.17,0-9.48,6.1-15.83,13.5-15.83h0ZM138.89,246.88v-15.37c-5.87,4.86-13.73,7.52-20.08,7.52s-11.86-3.46-14.45-9.01c23.24-1.61,34.63-9.49,34.63-20.57,0-8.91-9.27-16.42-22.19-16.42-17.14,0-30.99,12.37-30.99,30.41,0,16.99,14.2,29.58,32.05,29.58,7.63-.01,15.38-2.2,21.02-6.14ZM53.66,221.11c5.51,0,10.1,3.35,10.1,9.01,0,5.32-4.58,8.56-10.1,8.56h-13.38v-17.57h13.38ZM52.72,191.53c5.28,0,9.51,3.23,9.51,8.2,0,5.32-4.23,8.55-9.51,8.55h-12.44v-16.76h12.44ZM22.08,178.11v74.08h35.45c13.61,0,24.31-8.2,24.31-20.69,0-7.98-5.17-14.33-12.68-17.34,6.81-3,11.39-8.9,11.39-15.95,0-12.13-10.8-20.11-24.54-20.11H22.08Z"/></svg>