<?xml version="1.0" encoding="UTF-8"?><svg id="Layer_1" xmlns="http://www.w3.org/2000/svg" viewBox="0 0 800 450"><defs><style>.cls-1{fill:#292526;}.cls-1,.cls-2,.cls-3,.cls-4{stroke-width:0px;}.cls-2{fill:#ffe800;}.cls-3{fill:#0450a1;}.cls-4{fill:#fff;}</style></defs><g id="layer1"><g id="g19563"><path id="path19014" class="cls-3" d="M48.73,300.78v-120.88h717.59v120.88H48.73Z"/><path id="path19016" class="cls-2" d="M632.97,277.11H48.75v7.57h581.44l2.78-7.57"/><path id="path19018" class="cls-4" d="M264.89,208.01l-19.09,28.98s1.21-15.16,1.51-18.81c.23-2.78-.11-10.16-6.88-10.16h-30.29l-19.87,53.96h23.69l14.39-39.03-3.03,39.03h21.05l25.82-38.35-14.09,38.35h23.84l19.86-53.96h-36.91"/><path id="path19020" class="cls-4" d="M393.93,260.97c-1.16.19-10.21,1.94-19.72,2.2-16.96.47-31.75-6.32-31.88-18.57-.23-21.22,21.23-32.85,37.05-36.09,7.1-1.45,20.76-3.05,34.37.31l-7.91,18.96c-2.27-5.16-8.1-5.26-10.49-5.31-5.78-.12-10.56,1.41-14.08,3.02-8,3.66-14.97,15.41-3.65,19.94,6.28,2.51,14.27.51,22.61-.81l-6.29,16.36"/><path id="path19022" class="cls-4" d="M637.02,261.97h-26.15l19.85-53.96h26.15l-19.86,53.96"/><path id="path19024" class="cls-4" d="M323.14,261.97h-26.15l19.88-53.96h26.12l-19.85,53.96"/><path id="path19026" class="cls-4" d="M464.17,208.01l-7.2,19.44h-13.15l7.15-19.44h-24.93l-19.81,53.97h24.84l6.78-18.29h13.17l-6.77,18.29h24.89l19.9-53.97h-24.86"/><path id="path19028" class="cls-4" d="M583.91,244.05l13.24-36.04h-25.41l-19.88,53.97h51.06l6.6-17.93h-25.61"/><path id="path19030" class="cls-4" d="M721.32,208.01l-13.63,37.03c.19-3.73.93-18.46,1.39-26.94.19-3.49-.57-6.16-2.25-7.93-2.02-2.14-4.71-2.16-4.74-2.16h-30.37l-19.85,53.97h22.05l14.07-38.22-1.66,38.22h36.99l19.86-53.97h-21.86"/><path id="path19032" class="cls-4" d="M513.95,247.41l2.24-5.99h28.39l4.88-13.28h-28.39l2.18-5.99h29.8l5.25-14.13h-54.5l-19.86,53.97h55.12l5.34-14.57h-30.43"/><path id="path19034" class="cls-1" d="M192.48,232.58c1.5-2.26-.19-6.98-3.49-10.88-3.08-3.65-7.11-4.64-7.38-6.44,3.91-8.08-.31-15.07-6.42-17.71.24-3.83-1.27-7.66-4.45-10.5,1.46-3.08,3.06-12.19-3.63-17.89,2.65-11.27-8.73-17.61-14.88-18.18-2.98-2.1-7.28-3.5-12.5-4.06,3.8-5.7,2.83-13.48-1.8-17.65.26-6.22-3.97-12.07-10.34-14.27-2.1-5.2-13.69-4.36-15.04.45-6.68,2.4-10.71,9.91-10.01,16.53-4.1,4.37-3.92,11.95-.14,16.78-3.55-.08-8.52.87-12.05,2.29,0,0,0,0,0,0-.06-.02-.16-.05-.16-.04-2.89-1.41-6.08-1.94-9.25-1.54-.85-.53-2.9-1.45-4.24-1.79-1.23-1.82-2.82-3.29-4.73-4.39-.76-3.13-3.46-5.67-5.9-6.88.24-2.35-.68-5.28-1.46-6.63-1.41-2.47-1.07-6.13-.65-6.66,1.61-2.01.21-3.86-.51-4.56-3.68-3.61-7.32-1.71-8.38-.03-3.51-6.25-7.53-7.91-9.92-7.09-3.12-2.45-8.1-.94-8.03,2.06-2.04,1.43-3.45,2.11-.25,7.95-.64,12.18.71,15.81,8.73,22.36-2.49,2.39-3.83,7.81-1.41,11.72-.64,5.85,2.47,11.45,6.38,14.42,1.11,8.4,9.25,13.37,14.59,14.48,3.59,5.22,8.85,7.82,13.91,8.33.29,2.34,1.19,4.61,2.66,6.76-1.32,4.8-1.19,9.26.38,13.28-3.75,4.09-5.08,10.05-3.29,16.36-4.39,5.21-5.89,13.44-2.8,20.3-.02.04-1.4,2.02-1.83,3.73-3.11,1.52-5.97,4.9-7.56,8.97-1.29,3.36-.79,7.8-.03,11.34-4.77,4.02-7.57,14.17,1.04,22.4-1.87,5.83-5.89,10.95-10.67,17.05-3.39,4.32-3.98,6.65-.06,11.77,3.06,3.99,8.52,7.06,13.01,7.24,8.86.35,14.95-1.58,15.91-7.89.57-3.74-1.87-11.37-2.08-13.22-.21-1.85.49-4.77,2.27-9.41,7.94-1.83,12.17-7.73,12.65-13.5,6.06-3.36,10.23-10.22,8.33-17.84,1.08-1.39,1.43-2.2,2.07-4.24,0,3.36,2.27,5.59,3.33,7.55-3.5,8.51,1.12,16.26,6.26,19.58-8.88,12.59.71,18.69,3.27,21.34,3.01,3.12,3.45,8.42,8.46,10.21,4.32,1.55,18.28.07,20.98-5.83.7-1.51,1.33-3.2.58-4.32.11-4.22-2.61-7.31-7.37-10.02-5.34-3.05-5.23-2.2-7.79-10.29,8.3-4.01,9.77-13.49,9.35-17.23,5.81-7.21,5.45-13.37,2.26-17.67,1.03-2.97.88-5.72.13-8.1,4.77-4.55,7.09-11.1,5.14-18.05,2.9-4.28,3.95-9.09,2.76-14.33,2.52,3.8,6.41,5.35,10.87,5.21.03.1.39,1.35.61,1.91-1.3,2.42-.71,5.32,2.69,7.82.3,1.12.91,2.01,1.8,2.62-.05,1.16,2.84,5.91,6.32,3.36.09-.07,3.85-2.46,4.08-2.61,2.94,2.66,10.36.54,9.64-4.43"/><path id="path19036" class="cls-4" d="M158.66,208.71c9.24-.79,17.64-11.02,9.48-18.84-1.15,1.62-3.77,3.67-5.41,4.3-.6,3.94-2.95,7.34-4.66,9.22.33,1.4.58,5.08.59,5.32"/><path id="path19038" class="cls-4" d="M173.65,201.07c-2.25,5.95-8.29,9.22-15.13,10.07-1.02,4.9,5.27,12.17,14.76,7.91,6.73-3.02,9.33-13.98.38-17.98"/><path id="path19040" class="cls-4" d="M170.94,226.78c-.83.9-.59,2.86.57,3.6.04-.13.57-2.21,1.12-3.02-.61-.77-1.37-.92-1.69-.58"/><path id="path19042" class="cls-4" d="M176.97,231.17c-.61-1.09-.27-2.34-2.01-2.96-1.79-.64-1.92,5.1-.52,4.9.59-.71,1.41-1.33,2.53-1.94"/><path id="path19044" class="cls-4" d="M179.37,231.98c-2.4.73-4.33,2.56-3.39,4.1.43.71.72.69,2.22-.23.95-.58,2.4-1.76,2.69-1.97-.49-1.06-1.52-1.9-1.52-1.9"/><path id="path19046" class="cls-4" d="M181.73,220.84c-.83-.47-2.23-1.67-2.94-2.75-1.84,2.04-6.01,3.96-7.6,4.38.06.19.6,2.06.86,2.43.73.23,1.57.82,2.09,1.51,1.01-.3,3.53.11,4.15,2.79,1.1.75,3.25,1.55,3.93,2.43,2.94,3.83,5.16,3.15,5.81,2.64,2.59-2.01-.94-3.77-2.92-6.2-.87-1.07-3.9-5.32-3.78-6.2.06-.41.74-.14,1.2.64.27.46,4.31,5.1,6.33,6.81-1.77-6.08-7.11-8.49-7.11-8.49"/><path id="path19048" class="cls-4" d="M124.15,212.34c34.64-.34,38.72-20.96,34.25-28.9-10.62,11.08-46.07,17.26-63.54,3.5-3.4,3.5-7.56,4.73-11.38,5.17,1.19,10.39,19.57,20.44,40.66,20.23"/><path id="path19050" class="cls-4" d="M100.72,169.13c.62,6.62-2.27,13.05-3.64,15.31,3.12,2.47,9.81,7.18,24.84,7.42,22.56.36,46.54-10.65,33.08-28.98-6.04,7.38-34.53,13.98-54.28,6.25"/><path id="path19052" class="cls-4" d="M70.82,166.59c5.28-5.09,5.74-11.57,3.14-16.08-.57-.99-1.25-1.92-2.27-2.77-1.36,9.68-14.73,16.97-23.34,10.67,2.99,13.43,16.73,13.7,22.47,8.17"/><path id="path19054" class="cls-4" d="M81.8,175.71c7.92-8.86-.09-22.72-3.86-23.46,2.75,13.53-10.84,24.13-22.81,18.93,2.88,8.21,17.06,15.28,26.68,4.53"/><path id="path19056" class="cls-4" d="M70.7,184.18c7.08,7.41,25.56,6.89,26.74-10.29.79-11.52-4.3-18.01-12.63-20.21,9.76,17.96-1.58,30.32-14.12,30.5"/><path id="path19058" class="cls-4" d="M85.49,202.37c-3.26,19.73,22.96,26.12,38.66,25.57,26.35-.93,32.19-13.81,30.98-21.35-16.8,13.06-52.65,11.62-69.64-4.21"/><path id="path19060" class="cls-4" d="M98.97,243.91c13.93,3.2,25.41-3.57,25.22-12.96-6.87.1-28.95-.27-39.44-15.07-7.32,10.13,1.15,24.49,14.21,28.03"/><path id="path19062" class="cls-4" d="M118.16,244.41c-12.79,6.58-30.21,1.83-36.96-11.75-9.28,15.07,6.51,28.44,17.95,27.85,14.24-.73,18.39-9.77,19.01-16.1"/><path id="path19064" class="cls-4" d="M78.92,252.48c-4.54,8,1,16.67,6.87,18.97,12.38,4.84,20.71-3.39,20.15-9.33-10.06,2.44-20.24-.72-27.01-9.64"/><path id="path19066" class="cls-4" d="M68.87,276.77c-5.67,4.99-1.68,17.53,7.06,20.57,12.47,4.33,17.77-4,18.71-8.63-3.33.79-17.82,3.76-25.77-11.94"/><path id="path19068" class="cls-4" d="M85.02,273.66c-6.52-3.37-10.44-8.36-10.96-15.48-9.37,9.4-1.58,24.41,7.14,27.44,17.52,6.08,23.72-8.68,22.27-13.27-6.92,4.89-15.25,2.96-18.45,1.31"/><path id="path19070" class="cls-4" d="M147.83,317.08l.49.35c-1.31,2.93-11.88,5.34-16.17,3.35-5.07-2.36-4.28-5.23-7.5-8.28-7.18-6.79-6.19-9.62-5.17-13.42.46-1.72,1.39-2.84,2.84-4.78,4.78,1.94,7.07,1.55,11.38.43.05.35.31,1.45.4,1.86-3.26.34-5.94,1.02-5.94,1.02l.83,2.47s2.75-.71,5.8-.94c0,0,.67,1.85.91,2.37-2.87.2-5.52,1.06-5.52,1.06l.8,2.36s3.77-1.19,6.74-.92c2.88,2.78,14.82,5.78,9.03,11.73-2.3,2.37-7.97,3.2-12.1,3.06l-.26.62c.85,1.16,9.09,1.56,13.45-2.34"/><path id="path19072" class="cls-4" d="M142.05,279.37c-2.75,2.18-7.07,3.99-12.35,3.82-5.97-.19-10.3-2.62-14-6.78-2.2,10.85,4.77,16.12,12.36,16.49,13.96.68,14.24-11.99,13.99-13.54"/><path id="path19074" class="cls-4" d="M129.5,280.63c14.74.07,19.38-12.34,16.52-17.73-8.42,10.34-28.05,8.27-31.7-4.54-5.35,8.91,3.2,22.21,15.18,22.27"/><path id="path19076" class="cls-4" d="M131.48,267c7.35.06,15.49-5.24,13.55-14.15-8.32,5.42-19.01,4.9-26.09-.48-.61,1.22-1.71,2.88-2.49,3.86.93,6.66,8.06,10.72,15.02,10.78"/><path id="path19078" class="cls-4" d="M122.36,241.56c-.28.25-.57.5-.86.73.03,2.32-.67,5.69-1.39,7.84,10.18,8.76,31.64,3.47,30.23-14.3-7.35,7.2-19.22,8.92-27.97,5.74"/><path id="path19080" class="cls-4" d="M127.35,230.86c.08,3.25-1.21,6.42-3,8.93,13.29,3.84,29.67-2.97,28.62-18.59-4.02,4.05-12.29,8.93-25.62,9.66"/><path id="path19082" class="cls-4" d="M61.25,157.09c9.73-4.4,9.04-14.78,3.18-17.17-1.28,1.21-1.12,4.49-1.06,5.19.16,1.65-2.34,2.54-2.71,2.08-.86-1.09,1.22-2.2.34-4.66-.83-2.36,1.72-3.56,1.72-7.08,0-2.04-1.74-5.49-1.98-6.14-.79-2.11-.74-6.23.4-8.24-.86-.8-2.24-1.97-3.54.03-1.74,2.68-1.12,6.03.12,8.62-.17.08-1.75.03-2.65,2.88-.02.05-.72.95-.72.95l-.58.02c-.42-2.05.28-3.32.82-4.53-.16-.47-.77-2.51-.91-5.7-1.65-4.17-4.77-8.31-6.92-8.56,1.84,2.66,5.18,9,5.53,9.85.73,1.78-.85,2.09-.85,2.09-2.45-5.23-5.23-9.81-7.34-11.91-1.42-1.42-3-1.88-3.52-.97.64.21,1.42.97,2.03,1.71,2.25,2.77,6.84,12.2,6.84,12.2,0,0-.36.47-.8.4-.74-.12-1.69-1.48-2.8-4.05-1.2-2.34-3.45-5.68-4.68-7.08-1.01-1.16-1.89-.77-2.52-.26.65,1.16,1.36,2.52,1.67,3.59,1.67-.45,3.82,1.37,4.06,3.01.25,1.64.81,6.1,1.85,7.64-.38.21-1.36.92-1.36.92-1.13-1.39-1.94-6.46-2.11-8.28-.04-.45-.59-1.38-1.68-1.67-.55-.14-.65.2-.66.59-.47,10.18.15,12.76,9.19,19.82.59.46,1.61,1.76,2.27,3.11.67,1.35,1.81,2.98,3.98,2.7l.86.89c-1.96,1.57-4.85.6-5.53-.28-.55-.71-2.04-2.91-2.04-2.91-6.3,6.67,2.12,15.71,12.1,11.2"/><path id="path19084" class="cls-4" d="M71.68,297.84c-3.85,8.29-7.29,11.64-11.64,17.75-2.59,3.64-1.64,5.4.14,7.74,3.53,4.3,9.91,6.44,14.62,5.09l-.04-.62c-5.65.55-10.62-1.56-13.2-5.39l.43-.41c6.6,5.2,15.3,3.76,18.63,2.05.91-.47,1.56-1.73,1.43-2.87-.32-2.73-1.85-7.33-2.16-9.93-.25-2.12.52-5.81,2.11-10.17-2.67.07-8.72-.66-10.32-3.23"/><path id="path19086" class="cls-4" d="M156.32,159.61c4.72,3.18,5.57,9.63,5.72,12.31,4.63-9.09-2.32-14.52-5.99-15.65.63,1.22.58,3.03.28,3.35"/><path id="path19088" class="cls-4" d="M163.48,189.51c8.83-5.28,3.06-16.14,1.64-17.04-.35,1.13-1.5,3.98-4.73,7.79,1.91,2.3,2.99,5.56,3.09,9.25"/><path id="path19090" class="cls-4" d="M100.01,165.59c6.4,2.89,13.5,4,20.5,4.02,18.78.05,31.81-5.38,32.82-10.99.84-4.68-7.76-7.55-17.12-8.08-1.36,1.48-3.23,1.97-3.68,2-.69.05-1.13-.47-.37-.86,1.41-.73,2.8-1.95,1.28-4.56,1-.16,4.43-1.41,4.71-7.31.23-4.69-2.28-7.59-4.37-8.95,0,0-.82-.88.21-1.02.52-5.68-3.32-10.49-10.48-11.96l.05-.6c.28-.02.43-.32.38-.6-.25-1.4-5.42-1.99-7.47-.09-.44.41,1.02.83,1.42.85.52.02.89.72.15.7-4.1-.07-11.71,3.54-11.41,13.42.25,0,2.38-.63,3.23-.39.58.16.38.86-.1.9-6.76.52-9.56,12.37-.21,16.57,0,0,.48.26-.12.65-1.11.71-1.96,2.13-.28,3.09.6.35,1.07.79.79,1.34-.28.56-1.23.53-2.15.07-4.64-2.32-10.08-1.09-14.3.27,3.12,2.68,5.41,7.03,6.53,11.53"/><path id="path19092" class="cls-1" d="M52.56,135.06c-.19.2-1.59-.73-2.41-1.31-1.33-.62-2.74-.38-2.79-.79-.03-.26,1.17-.57,2.29-.57.78.05,1.56.65,2.36.58.26.55.84,1.81.56,2.1"/><path id="path19094" class="cls-1" d="M76.75,311.27c-2.42-.72-5.5-1.1-7.48-1.16l.07-2.48c2.15.06,5.51.47,8.15,1.26l-.74,2.38"/><path id="path19096" class="cls-1" d="M78.16,306.31c-3.35-1-4-1.11-7.68-1.26l.1-2.48c3.9.16,4.76.3,8.31,1.37l-.74,2.37"/><path id="path19098" class="cls-1" d="M129.66,139.98c-.21.05-.58.23-.82.48-6.52-1.17-8.57.6-12.06.5.05-.44-.11-1.05-.68-.99-.21.02-.48.49-.58.65-.92,1.36-1.27,2.11-.92,2.43.38.33.85-.2,1.32-.76.58-.07,1.9-.03,3.17.83,1.09.73,3.33,3.55,5.67,2.55,1.62-.76,3.18-3.55,4.37-3.55.58,0,1.29.09,1.41.02.27-.15-.27-2.31-.89-2.17ZM124.61,144.38c-1.98,1.02-3.19-1.57-5.12-2.42,1.79-.46,5.38-.81,8.13-.31-.65.51-2.45,2.45-3.01,2.73"/><path id="path19100" class="cls-1" d="M127.43,123.56c-2.31.26-3.9,3.26-3.64,6.82.16,2.2,1.01,4.16,2.27,5.23.71.61,1.52.9,2.33.83,2.31-.2,3.91-3.21,3.65-6.85-.16-2.24-1.02-4.21-2.29-5.26-.72-.6-1.52-.86-2.33-.77"/><path id="path19102" class="cls-4" d="M130.03,133.66s0,.05.02.06c.01,0,.02,0,.03-.01.56-1.02.87-2.48.76-4.03-.14-1.84-.83-3.5-1.82-4.32-.47-.39-.96-.56-1.45-.5-1.6.18-2.77,2.67-2.57,5.43.02.25.05.5.09.74.01.04.03.06.05.06.02,0,.05-.04.05-.09.17-1.88,1.16-3.36,2.4-3.43,1.42-.09,2.64,1.7,2.72,3.99.02.76-.08,1.48-.28,2.1"/><path id="path19104" class="cls-1" d="M117.14,123.8c-2.44.23-4.25,3.24-4.12,6.88.08,2.19.87,4.17,2.13,5.31.75.68,1.62,1,2.5.95,2.45-.16,4.26-3.2,4.14-6.9-.08-2.23-.88-4.23-2.14-5.34-.75-.66-1.62-.97-2.5-.89"/><path id="path19106" class="cls-4" d="M120,133.19s0,.04.02.04c.02,0,.03-.01.04-.04.35-.9.54-1.99.5-3.12-.06-1.83-.71-3.51-1.7-4.38-.35-.3-.91-.66-1.62-.59-1.73.16-3.11,2.69-3.01,5.52.05,1.29.41,2.35.83,3.13.04.04.07.07.09.06.02,0,.02-.03.02-.06-.15-.47-.24-.99-.26-1.53-.11-2.25.96-4.11,2.38-4.17,1.42-.05,2.65,1.75,2.75,4.02.02.39,0,.77-.05,1.13"/></g></g></svg>