<?xml version="1.0" encoding="UTF-8"?><svg id="Layer_1" xmlns="http://www.w3.org/2000/svg" viewBox="0 0 800 450"><defs><style>.cls-1{fill:#263576;}.cls-1,.cls-2,.cls-3{stroke-width:0px;}.cls-2{fill:#e62530;}.cls-3{fill:#fff;}</style></defs><path class="cls-3" d="M220.58,143.33c-68.47,42.24-29.64,167.27-29.64,170.34,86.87-58.25,296.38,23.85,366.56-13.97,69.16-37.47,30.66-159.77,30.66-159.77-107.31,54.17-301.49-37.47-367.58,3.41Z"/><path class="cls-1" d="M591.91,135.84s-.34,0,0,0l-29.98-9.88h-1.02l-1.02-.34c-24.53,22.14-69.16,24.19-119.58,20.44-22.14-1.7-45.31-4.43-68.47-7.49-16.35-1.7-33.05-3.75-49.4-5.11-.68,0-1.7,0-2.73-.34-1.7,0-3.75-.34-5.45-.34-18.4-1.7-35.77-2.73-51.78-2.73-44.97,1.02-78.7,22.82-86.87,85.17v1.36c-6.13,49.74,8.86,102.2,10.56,103.22.34,0,.34.34.68.34l24.87,4.77h.34c.34,0,.68,0,1.02-.34,34.07-31,113.78-22.82,190.44-14.99,39.52,4.43,80.06,8.52,113.44,7.15,5.45-.34,10.56-.68,15.67-1.36,42.58-6.47,65.07-33.39,70.18-83.12,5.79-51.44-9.88-95.73-10.9-96.41M219.55,145.38c66.09-40.54,260.61,50.08,366.9-3.41,0,0,38.5,120.26-30.66,157.05-69.84,37.47-279.69-43.61-366.56,13.97.68-2.73-37.81-126.05,30.32-167.61M460.41,311.63c1.36,0,3.41.34,4.77.34-1.36,0-3.41-.34-4.77-.34"/><path class="cls-2" d="M278.15,227.14c5.45-3.75,8.52-9.2,8.52-16.35,0-14.31-9.2-21.8-27.25-21.8h-38.84v83.81h40.2c13.63,0,29.64-6.47,29.64-24.87,0-10.22-4.09-17.03-12.26-20.78M258.39,255.42h-17.03v-49.4h14.65c9.2,0,10.22,3.75,10.22,7.49,0,5.11-3.07,7.84-8.86,7.84h-5.11l-7.15,15.33h13.63c7.49,0,10.56,3.07,10.56,9.54.68,4.09-1.02,9.2-10.9,9.2"/><rect class="cls-2" x="295.52" y="188.98" width="21.12" height="83.81"/><polygon class="cls-2" points="367.06 236 356.5 188.64 323.46 188.64 323.46 272.11 344.24 272.11 344.24 221.01 356.5 272.11 377.63 272.11 389.89 220.33 389.89 272.11 410.67 272.11 410.67 188.64 377.63 188.64 367.06 236"/><path class="cls-2" d="M476.08,227.48c5.45-3.75,8.52-9.2,8.52-16.35,0-14.31-9.2-21.8-27.25-21.8h-38.84v83.81h40.2c13.63,0,29.64-6.47,29.64-24.87,0-9.88-4.43-17.03-12.26-20.78M456.32,255.76h-17.03v-48.72h14.65c9.2,0,10.22,3.75,10.22,7.49,0,5.11-3.07,7.84-8.86,7.84h-4.77l-7.84,15.33h13.63c7.49,0,10.56,3.07,10.56,9.54.68,3.75-.68,8.52-10.56,8.52"/><path class="cls-2" d="M532.97,187.96c-23.17,0-41.9,18.74-41.9,41.9s18.74,41.9,41.9,41.9,41.9-18.74,41.9-41.9c.34-22.82-18.4-41.9-41.9-41.9M532.97,252.01c-11.92,0-22.14-9.88-22.14-22.14s9.88-22.14,22.14-22.14,21.8,9.88,21.8,22.14c.34,12.6-9.88,22.14-21.8,22.14"/><path class="cls-1" d="M248.17,178.08c-1.7,1.02-3.75,1.7-5.79,2.04s-4.09.68-6.13.68-4.09-.34-6.13-1.02c-1.7-.68-3.41-1.7-4.77-2.73-1.36-1.36-2.38-2.73-3.07-4.43s-1.02-3.75-1.02-5.79.34-4.09,1.02-5.79,1.7-3.07,3.07-4.43c1.36-1.36,3.07-2.04,4.77-2.73,2.38-.68,4.43-1.02,6.47-1.02,2.38,0,4.43.34,6.13.68,1.7.68,3.41,1.36,4.77,2.73l-4.09,4.43c-.68-.68-1.7-1.36-2.73-1.7s-2.38-.68-4.09-.68c-1.36,0-2.38.34-3.41.68-1.02.34-2.04,1.02-2.73,1.7-.68.68-1.36,1.7-1.7,2.73s-.68,2.04-.68,3.41.34,2.38.68,3.41c.34,1.02,1.02,2.04,1.7,2.73s1.7,1.36,2.73,1.7,2.38.68,3.41.68c1.36,0,2.38,0,3.41-.34s1.7-.68,2.38-1.02v-4.43h-5.11v-5.45h10.9s0,13.97,0,13.97Z"/><path class="cls-1" d="M251.92,153.55h10.9c1.36,0,2.73,0,4.09.34,1.36.34,2.38.68,3.41,1.36s1.7,1.36,2.38,2.38.68,2.38.68,3.75c0,1.7-.34,3.41-1.36,4.77s-2.38,2.04-4.43,2.38l7.15,11.24h-7.49l-5.79-10.56h-3.07v10.56h-6.13v-26.23h-.34ZM258.05,164.46h5.45c.68,0,1.02,0,1.7-.34.34-.34,1.02-.34,1.36-1.02.34-.34.34-1.02.34-1.7s0-1.36-.34-1.7-.68-.68-1.02-1.02c-.34-.34-1.02-.34-1.36-.34h-5.79v6.13s-.34,0-.34,0Z"/><path class="cls-1" d="M299.27,169.91c0,1.7-.34,3.07-.68,4.43-.34,1.36-1.36,2.38-2.04,3.41-1.02,1.02-2.04,1.7-3.75,2.38-1.7.34-3.41.68-5.11.68-2.04,0-3.75-.34-5.11-.68-1.36-.68-2.73-1.36-3.75-2.38-1.02-1.02-1.7-2.04-2.04-3.41s-.68-2.73-.68-4.43v-16.35h6.13v16.01c0,.68,0,1.7.34,2.38s.68,1.36,1.02,1.7,1.02,1.02,1.7,1.02c.68.34,1.36.34,2.38.34.68,0,1.7,0,2.38-.34s1.36-.68,1.7-1.02c.34-.68,1.02-1.02,1.02-1.7.34-.68.34-1.36.34-2.38v-16.01h6.13v16.35Z"/><path class="cls-1" d="M303.36,153.55h10.22c1.36,0,2.73,0,4.09.34s2.38.68,3.41,1.36,1.7,1.36,2.38,2.38.68,2.38.68,3.75c0,1.7-.34,2.73-.68,3.75-.68,1.02-1.36,2.04-2.04,2.38-1.02.68-2.04,1.02-3.41,1.36-1.36.34-2.73.34-4.09.34h-4.43v10.22h-6.13s0-25.89,0-25.89ZM309.49,164.8h5.79c.34,0,1.02-.34,1.36-.34.34-.34.68-.68,1.02-1.02s.34-1.02.34-1.7,0-1.36-.34-1.7-.68-.68-1.36-1.02-1.02-.34-1.7-.34h-4.77l-.34,6.13h0Z"/><path class="cls-1" d="M326.52,166.84c0-2.04.34-4.09,1.02-5.79s1.7-3.07,3.07-4.43c1.36-1.36,3.07-2.04,4.77-2.73s3.75-1.02,6.13-1.02c2.04,0,4.09.34,6.13,1.02,1.7.68,3.41,1.7,4.77,2.73,1.36,1.36,2.38,2.73,3.07,4.43s1.02,3.75,1.02,5.79-.34,4.09-1.02,5.79-1.7,3.07-3.07,4.43c-1.36,1.36-3.07,2.04-4.77,2.73s-3.75,1.02-6.13,1.02c-2.04,0-4.09-.34-6.13-1.02-1.7-.68-3.41-1.7-4.77-2.73-1.36-1.36-2.38-2.73-3.07-4.43-.68-1.7-1.02-3.75-1.02-5.79M333,166.84c0,1.36.34,2.38.68,3.41.34,1.02,1.02,2.04,1.7,2.73s1.7,1.36,2.73,1.7,2.38.68,3.41.68c1.36,0,2.38-.34,3.41-.68,1.02-.34,2.04-1.02,2.73-1.7s1.36-1.7,1.7-2.73.68-2.04.68-3.41-.34-2.38-.68-3.41c-.34-1.02-1.02-2.04-1.7-2.73s-1.7-1.36-2.73-1.7-2.38-.68-3.41-.68c-1.36,0-2.38.34-3.41.68-1.02.34-2.04,1.02-2.73,1.7s-1.36,1.7-1.7,2.73c-.68,1.02-.68,2.04-.68,3.41"/><path class="cls-1" d="M584.75,313.67c0-1.36.34-2.38.68-3.41s1.02-2.04,2.04-2.73c.68-.68,1.7-1.36,2.73-2.04,1.02-.34,2.38-.68,3.41-.68,1.36,0,2.38.34,3.41.68,1.02.34,2.04,1.02,2.73,1.7.68.68,1.36,1.7,2.04,2.73.34,1.02.68,2.38.68,3.41,0,1.36-.34,2.38-.68,3.41s-1.02,2.04-2.04,2.73c-.68.68-1.7,1.36-2.73,2.04-1.02.34-2.38.68-3.41.68-1.36,0-2.38-.34-3.41-.68-1.02-.34-2.04-1.02-2.73-1.7-.68-.68-1.36-1.7-2.04-2.73-.34-1.02-.68-2.04-.68-3.41M586.46,313.67c0,1.02.34,2.04.68,3.07.34,1.02,1.02,1.7,1.7,2.38s1.36,1.36,2.38,1.7c1.02.34,2.04.68,3.07.68s2.04-.34,3.07-.68c1.02-.34,1.7-1.02,2.38-1.7s1.36-1.36,1.7-2.38.68-2.04.68-3.07-.34-2.04-.68-3.07c-.34-1.02-1.02-1.7-1.7-2.38s-1.36-1.36-2.38-1.7c-1.02-.34-2.04-.68-3.07-.68s-2.04.34-3.07.68c-1.02.34-1.7,1.02-2.38,1.7s-1.36,1.36-1.7,2.38c-.68,1.02-.68,2.04-.68,3.07M590.55,308.56h3.75c1.36,0,2.04.34,2.73.68s1.02,1.36,1.02,2.38-.34,1.7-.68,2.04c-.68.34-1.02.68-2.04.68l3.07,4.43h-1.7l-2.73-4.43h-1.7v4.43h-1.36v-10.22h-.34ZM591.91,313.33h2.73c.34,0,.68,0,1.02-.34.34,0,.34-.34.68-.34,0-.34.34-.68.34-1.02s0-.68-.34-1.02c0-.34-.34-.34-.68-.34s-.34-.34-.68-.34h-3.07v3.41h0Z"/></svg>