<?xml version="1.0" encoding="UTF-8"?><svg id="Layer_1" xmlns="http://www.w3.org/2000/svg" viewBox="0 0 800 450"><defs><style>.cls-1{fill:#000;stroke-width:0px;}</style></defs><path id="path2-1" class="cls-1" d="M438.23,189.57c-23.92,0-36.31,14.72-36.31,34.53s12.39,34.69,36.31,34.69c24,0,36.39-14.79,36.39-34.69.04-19.82-12.39-34.53-36.39-34.53ZM645.61,189.57c-20.24,0-30.39,8.04-30.39,22.29,0,11.58,6.75,17.03,20.71,18.52l15.53,1.65c5.92.67,8.63,2.94,8.63,5.92,0,3.37-3.96,6.4-13.49,6.4-11.02,0-15.45-2.79-16.2-8.4h-16.12c.74,15.15,10.59,22.88,31.72,22.88,19.29,0,30.08-8.48,30.08-21.23,0-11.1-6.39-17.77-18.47-19.15l-15.29-1.73c-8.94-.98-11.18-3.22-11.18-6.24,0-3.37,4.59-6.39,13.57-6.39s13.14,3.22,13.96,8.05h16.43c-.83-13.93-12.47-22.57-29.49-22.57ZM270.31,191.14v42.62c0,18.99,16.94,24.92,31.13,24.92s30.98-5.93,30.98-24.92v-42.62h-16.78v40.69h.08c0,8.56-5.25,12.01-14.23,12.01s-14.39-3.61-14.39-12.01v-40.69h-16.78ZM129.48,191.38l-58.71,36.49v29.31h.51l58.86-36.65h30.55c.94,0,1.81.74,1.81,1.81,0,.86-.39,1.22-.86,1.49l-28.9,17.34c-1.88,1.14-2.55,3.37-2.55,5.06l-.04,10.95h36.75v-63.53c0-1.22-.94-2.28-2.35-2.28h-35.06ZM221.29,191.38l-25.22,65.81h17.33l4.39-12.32h28.16l4.31,12.32h17.92l-25.53-65.81h-21.37ZM340.11,191.38v14.24h21.22v51.56h16.75v-51.56h21.14v-14.24h-59.1ZM483.76,191.38v65.81h30.75c23.57,0,30.08-8.79,30.08-33.4,0-23.11-6.23-32.41-30.08-32.41h-30.75ZM553.96,191.38v65.81h52.94v-14.25h-36.16v-11.93h29.1v-14.28h-29.1v-11.11h36.16v-14.24h-52.94ZM684.63,191.38l.08,65.81h16.71v-25l22.67,25h21.22l-30.59-32.49,30.59-33.32h-19.96l-23.92,26.72v-26.72h-16.79ZM438.23,204.37c12.51,0,19.22,7.65,19.22,19.74.04,12.36-6.71,19.9-19.22,19.9s-19.21-7.57-19.21-19.9,6.82-19.74,19.21-19.74ZM231.99,205.07l9.06,25.78h-18.27l9.22-25.78ZM500.51,205.62h13.33c10.51,0,13.65,2.86,13.65,18.17,0,13.97-3.53,19.15-13.65,19.15h-13.33v-37.32Z"/></svg>