<?xml version="1.0" encoding="UTF-8"?><svg id="Layer_1" xmlns="http://www.w3.org/2000/svg" viewBox="0 0 800 450"><defs><style>.cls-1{fill:none;}.cls-1,.cls-2,.cls-3,.cls-4{stroke-width:0px;}.cls-2{fill:#aed255;}.cls-3{fill:#00994c;}.cls-4{fill:#ee3d24;}</style></defs><rect id="_アートボード1" class="cls-1" x="205.53" y="83.71" width="388.95" height="283.44"/><g id="_アートボード11"><path class="cls-4" d="M313.67,359.46v-22.96c0-.45.44-.93,1.09-.93h3.09c.58,0,1.02.48,1.02.93v6.5l5.26-6.76c.4-.45.85-.7,1.32-.68l3.16-.03c.78.03,1.39.56,1.39,1.1,0,.2-.05.32-.17.48l-7.43,9.47,9.44,11.99c.2.22.2.45.2.65,0,.59-.51,1.13-1.32,1.1h-3.56c-.48,0-.88-.22-1.19-.68l-7.09-9.28v9.08c0,.42-.44.87-1.02.87h-3.09c-.64,0-1.09-.45-1.09-.87"/><path class="cls-4" d="M337.79,359.38v-22.88c0-.54.48-.96,1.12-.96h3.12c.58,0,1.09.42,1.09.96v22.88c0,.51-.51.96-1.09.96h-3.12c-.64,0-1.12-.45-1.12-.96"/><path class="cls-4" d="M354.62,359.38l-5.02-22.99c-.07-.52.34-.88.99-.88h3.05c.65,0,1.22.33,1.32.88l2.78,14.16c.04.11.1.14.21.14.14,0,.17-.03.24-.14l2.27-14.08c.09-.63.78-.96,1.32-.96h3.36c.54,0,1.17.29,1.29.88l2.85,14.45c.03.2.31.14.34,0l2.31-14.2c.13-.75.7-1.13,1.35-1.13h3.05c.54,0,1.09.37.98.91l-4.34,22.67c-.14.71-.68,1.16-1.36,1.16h-4.24c-.64,0-1.19-.43-1.32-.88l-2.44-11.37-2.1,11.08c-.17.71-.71,1.16-1.39,1.16h-4.21c-.61,0-1.19-.42-1.29-.88"/><path class="cls-4" d="M383.79,359.38v-22.88c0-.54.48-.96,1.12-.96h3.12c.57,0,1.08.42,1.08.96v22.88c0,.51-.51.96-1.08.96h-3.12c-.64,0-1.12-.45-1.12-.96"/><path class="cls-4" d="M396.58,359.26v-22.64c0-.64.51-1,1.19-1h12.56c.71,0,1.22.37,1.22.85v2.49c0,.48-.55.93-1.22.93h-8.62v5.4h6.58c.68,0,1.09.37,1.09.87v2.49c0,.45-.41.82-1.09.82h-6.58v9.78c0,.45-.51.87-1.16.87h-2.78c-.68,0-1.19-.34-1.19-.87"/><path class="cls-4" d="M428.6,344.25v-3.22c0-1.1-1.09-1.95-2.37-1.95h-2.34c-.3,0-.54.26-.54.51v5.94c0,.31.34.59.71.59h2.17c1.29,0,2.37-.85,2.37-1.87M417.98,359.43v-22.88c0-.51.51-.99,1.19-.99h8.31c3.9.06,6.55,2.09,6.55,4.95v4.33c0,1.72-1.29,3.31-3.15,4.16l4.28,10.46c.06.12.07.14.07.25,0,.28-.34.54-.81.54h-3.7c-.54,0-1.19-.39-1.36-.79l-3.43-8.82c-.37-.17-.71-.26-1.05-.26-.47,0-.85.14-1.16.42v8.62c0,.45-.51.82-1.15.82h-3.39c-.68,0-1.19-.37-1.19-.82"/><path class="cls-4" d="M442.85,356.86c-.78-1.07-1.17-2.24-1.17-3.48v-16.29c0-1.27.66-1.59,1.88-1.59h2.03c1.16,0,1.49.85,1.49,1.55v16.12c0,1.58,1.54,2.88,3.34,2.88h.68c1.87,0,3.37-1.3,3.37-2.88v-16.12c0-1.27.7-1.55,1.89-1.55h1.66c1.39,0,1.92.28,1.92,1.59v16.29c0,2.52-1.65,4.75-4.19,5.99-1.29.62-2.68.96-4.17.96h-1.53c-3.05,0-5.73-1.36-7.19-3.48"/><path class="cls-4" d="M467.1,359.38v-22.88c0-.54.48-.96,1.12-.96h3.12c.57,0,1.08.42,1.08.96v22.88c0,.51-.51.96-1.08.96h-3.12c-.64,0-1.12-.45-1.12-.96"/><path class="cls-4" d="M483.22,359.29v-19.77h-3.46c-.71,0-1.22-.31-1.22-.85v-2.35c0-.54.51-.85,1.22-.85h12.39c.68,0,1.26.37,1.26.85v2.35c0,.48-.58.85-1.26.85h-3.6v19.77c0,.54-.47.96-1.08.96h-3.16c-.54,0-1.09-.43-1.09-.96"/><path class="cls-4" d="M349.85,276.31c.08.42.57,3.27,5.32,5.81,2.9,1.55,7.82,3.4,15.32,3.62,9.27.28,15.45-1.96,16.99-2.54,5.81-2.19,10.03-6.61,11.58-12.12,1.42-5.08.35-10.4-2.93-14.62-2.23-2.85-6.18-4.92-10.01-6.93-4.31-2.25-8.76-4.59-10.1-7.71-1-2.33-.83-4.53.49-6.53,2.01-3.04,6.5-5.25,10.68-5.25,0,0,4.96-.44,9.77,5.09,1.08,1.24,4.21,1.82,6.26-.07.77-.71,1.11-1.73,1.09-2.83-.15-7.45-7.56-11.97-14.38-13.02-1.85-.28-3.8-.43-5.79-.43-11.9,0-26.12,5.37-29.21,17.14-1.59,6.06,1.17,12.75,7.19,17.48,1.8,1.41,3.87,2.68,5.87,3.91,4.85,2.97,9.43,5.78,9.39,9.99-.03,4.66-3.78,8.32-9.04,9.24-4.32.28-7.81-.93-10.62-3.25-3.69-3.04-7.23-1.77-7.79,1.14-.03.13-.25,1.08-.07,1.9"/><path class="cls-4" d="M577.34,303.28c-1.16-.84-2.43-1.49-3.7-2.07-4.34-1.98-8.93-3.08-13.39-3.79-1.21-.19-2.42-.35-3.63-.49-44.8-4.93-91-6.49-133.39-6.35.85-17.88,3.36-34.96,13.21-46.91,4.17-5.07,8.6-10.17,13.68-10.17,3.74,0,6.69,3.97,6.85,9.23.37,11.55-2.47,18.47-10.84,26.43-2.85,2.72-5.16,4.64-8.89,4.64-1.36,0-2.84-.25-4.54-.77-.67-.2-1.46-.41-2.23-.4-2.49.01-2.74,2.13-2.74,2.13-.14,1.61,1.08,3.05,3.44,4.07,3.31,1.43,7.52,2.22,11.86,2.22,1.83,0,3.65-.15,5.25-.42,11.35-1.93,20.41-9.2,26.2-21.04,4.28-8.73,4.51-18.86.67-29.29-2.68-7.28-8.65-11.29-16.8-11.29-3.93,0-7.47.92-9.74,1.68-8.01,2.7-14.07,7.59-17.36,10.74-1.95-3.55-6.89-8.37-13.1-10.33-.72-.23-1.38-.34-1.95-.34-1.31,0-2.03.59-2.4,1.09-.62.83-.72,1.99-.29,3.44.79,2.63-2.1,18.21-4.42,30.72-1.8,9.73-3.67,19.78-4.32,25.94-.31,2.91-.52,5.84-.57,8.79-78.97,1.21-140.87,7.86-148.51,8.39-15.45,1.08-14.85-4.81-12.49-11.6,4.86-13.99,16.04-38.37,56.67-67.96,3.69-2.69,10.56-6.32,14.71-8.37,2.24-1.11,2.97-3.29,2.49-6.09-.92-5.45-3.66-18.58-10.64-20.54-3.55-1-9.62-1.45-15.26-1.51-2.26-.02-4.61,0-7.07.05-16.56.08-55.14-.05-68.01-2.71-.46-.13-.69-.16-1.37-.38-.71-.23-1.41-.17-1.7-.07-2.62.95-1.69,8.92-1.09,11.03.95,3.32,3.22,6.25,6.33,7.8,5.48,2.73,12,2.5,12,2.5,13.57.54,48.12-.57,50.05-.59,3.86-.02,4.77.5,4.88,1.33.07.52-.26.89-1.19,1.36-6.85,3.48-60.8,48.88-74.32,96-.35.94-2.16,8.41-2.19,10.52-.03,1.96,1.8,4.23,3.43,5.88,5.85,5.93,13.28,12.47,21.58,15.33,10.89-2.86,40.17-9.24,43.32-9.86,15.33-3.03,57.17-12.88,129.63-17.73,1.66,7.14,5.24,14.12,12.13,20.6.69.65,1.37.97,2.07.97,2.54,0,2.69-3.49,2.75-5,.19-4.43.43-16.29.45-17.6,11.15-.58,22.93-1.04,35.38-1.33,11.39-.27,22.81-.41,34.27-.36,8.95.04,17.92.2,26.93.55,7.04.27,14.1.66,21.19,1.2,5.67.43,11.35.96,17.04,1.58,4.83.52,9.66,1.11,14.49,1.69,1.79.21,6.74.95,7.78,1.07-.28-1.41-1.15-2.57-2.59-3.61"/><path class="cls-4" d="M317.94,234.62c1.86-1.51,4.05-2.48,5.99-2.68.23-.03.46-.03.7-.03,1.59,0,3.1.54,3.94,1.41.48.5.69,1.2.69,1.7-.01,4.18-3.09,8.49-8.78,12.8-2.24,1.7-4.86,3.27-7.8,4.65-4.33,2.05-6.36,2.33-6.82,2.47,2.4-9.09,5.01-14.6,12.08-20.31M284.02,266.38c.8,8.4,6.38,16.17,13.89,19.33,3.89,1.64,9.03,2.54,14.49,2.54,2.98,0,5.8-.27,8.15-.78,3.68-.8,7.12-1.93,10.23-3.35,2.63-1.2,4.5-2.28,6.06-3.5,2.02-1.58,3.57-3.12,4.56-4.61,1.24-1.85,1.26-3.03,1.26-3.06.07-.96-.33-1.99-1.23-2.68-2.08-1.48-4.54-.2-6.9,1.14-2.36,1.33-10.91,5.85-19.36,6.27-3.06.15-8.53-.5-10.77-4.66-.26-.51-1.01-2.16-1.19-4.63-.13-1.75,1.44-2.12,1.44-2.12,28.16-7.93,37.89-25.55,37.89-25.55l-.04.03c1.47-2.26,2.48-4.63,2.89-6.95.98-5.67-3.51-10.91-10.39-12.44-3.99-.88-8.17-1.07-11.44-.61-11.17,1.57-18.29,5.59-23.86,10.76-12.41,11.54-16.96,21.65-15.69,34.89"/><path class="cls-4" d="M494.32,286.26c.57.21,1.09.31,1.59.31,2.18,0,3.28-1.66,3.28-4.94,0-3.4.28-6.4,1.51-11.75,1.46-6.35,5.16-17.07,7.92-21.92,3.75-6.59,6.58-10.82,14.26-14,2.93-1.21,5.01-1.41,8.44-.1,1.18.45,2.54.93,3.88.92,1.89,0,2.95-.99,3.51-1.82.97-1.45,0-3.56-1.07-5.43-3.25-5.72-8.36-9-14.01-9-2.9,0-5.82.85-8.67,2.53-7.36,4.33-10.83,8.06-12.58,10.65-1.46-2.95-4.63-6.91-11.38-8.93-2.37-.71-3.77.02-4.34.69-.66.77-.87,1.89-.63,3.32.93,5.64,1.08,9.46.42,13.56-.4,2.68-1.64,8.69-1.64,8.69-1.09,4.89-2.2,9.56-3.25,13.64-2.43,9.84,2.16,19.77,12.78,23.58"/><path class="cls-4" d="M556.74,221.95c.78.28,1.6.42,2.43.42,4.14,0,8.1-3.5,9.63-8.51,1.87-6.09-.43-12.39-5.12-14.05-.78-.28-1.6-.42-2.43-.42-4.13,0-8.09,3.5-9.63,8.51-1.87,6.09.43,12.39,5.12,14.05"/><path class="cls-4" d="M539.13,281.05c2.62,4.82,7.5,7.59,13.38,7.59,3.06,0,6.2-.75,9.33-2.22.59-.28,1.34-.71,1.82-1.52.63-1.05.58-2.44-.15-3.34-.99-1.22-2.7-1.1-2.7-1.1-3.79-.36-4.5-2.09-5.08-4.69-1.23-5.55,1.28-11.51,3.21-16.99.38-1.08.83-2.33,1.2-3.33,1.89-5.13,3.82-11.07,2.93-16.8-1.13-7.21-8.07-10.82-12.67-13.21-2-1.04-3.8-.94-4.87.19-.67.71-.98,1.73-.91,3.03.3,5.61-.77,10.05-1.85,13.66-.99,3.46-1.95,6.96-2.88,10.3-.79,2.85-1.54,5.59-2.25,8.05-2.34,8.25-1.91,14.15,1.48,20.39"/><path class="cls-4" d="M582.82,285.31l2.46,6.89,2.48-6.89h2.73v9.62h-1.77v-7.76l-2.66,7.76h-1.54l-2.69-7.76v7.76h-1.77v-9.62h2.75ZM570.24,286.92v-1.6h8.2v1.6h-3.15v8.01h-1.91v-8.01h-3.15Z"/><path class="cls-2" d="M522.91,142.67c-4.25-.3-8.65,1.69-8.65,1.69-12.59,4.88-78.32,63.02-78.32,63.02,0,0,73.44-20.44,93.37-31.15,5.01-2.69,7.71-5.69,8.97-10.12,3.84-13.54-5.75-22.76-15.37-23.44"/><path class="cls-2" d="M436.5,86.96c-.78-.88-2.06-1.08-3.06-.49-3.41,2.03-12.21,8.41-13.74,14.76-1.7,7.06.82,69.73.82,69.73,0,0,21.35-53.91,23.75-64.93,1.52-6.97-5.01-15.95-7.77-19.08"/><path class="cls-2" d="M319.27,134.62c-4.25-.7-25.76.71-27.03,2.55-1.72,2.5,4.61,23.81,7.27,27.47,1.71,2.36,1.98,2.79,6.39,4.82,9.05,4.16,81.59,34.38,81.59,34.38,0,0-53.9-56.2-60.75-65.04-2.06-2.66-4.36-3.67-7.48-4.18"/><path class="cls-3" d="M401.79,111.83c-.84-5.73-4.59-10.87-10.33-13.24-8.66-3.57-18.58.57-22.14,9.23-1.31,3.18-1.58,6.53-.97,9.68v.02c.26,1.48.97,3.33,1.54,4.45,6.43,14.97,35.03,72.57,35.03,72.57,0,0-1.03-70.15-3.13-82.68v-.02Z"/><path class="cls-3" d="M461.97,113.01c-5.42,6.68-31.91,78.5-31.91,78.5,0,0,55.04-46.03,61.43-54.52,15.96-21.19-14.4-42.62-29.51-23.98"/><path class="cls-3" d="M343.84,108.53c-5.2.96-9.11,5.44-9.29,10.64-.11,3.21,1.12,6.09,3.16,8.19h-.01c7.46,8.24,39.07,40.42,39.07,40.42,0,0-15.86-41.3-19.86-51.68-1.72-5.21-7.17-8.67-13.07-7.58"/></g></svg>