<svg xmlns="http://www.w3.org/2000/svg" width="55.57" height="52.841" viewBox="0 0 55.57 52.841">
  <g id="Group_2614" data-name="Group 2614" transform="translate(1403.285 925.5)" opacity="0.497">
    <path id="Path_771" data-name="Path 771" d="M68.128,15.494,59.94,19.588l8.187,4.094,8.187-4.094Z" transform="translate(-1443.634 -940.494)" fill="none" stroke="#fff" stroke-linejoin="round" stroke-width="1"/>
    <path id="Path_772" data-name="Path 772" d="M59.94,16.924V26.49l8.187,4.066V21.018Z" transform="translate(-1443.634 -937.83)" fill="none" stroke="#fff" stroke-linejoin="round" stroke-width="1"/>
    <path id="Path_773" data-name="Path 773" d="M70.986,16.924v9.552L62.8,30.556V21.018Z" transform="translate(-1438.306 -937.83)" fill="none" stroke="#fff" stroke-linejoin="round" stroke-width="1"/>
    <path id="Path_774" data-name="Path 774" d="M68.128,27.4,59.94,31.5l8.187,4.094L76.315,31.5Z" transform="translate(-1443.634 -918.301)" fill="none" stroke="#fff" stroke-linejoin="round" stroke-width="1"/>
    <path id="Path_775" data-name="Path 775" d="M59.94,28.831v9.579l8.187,4.066V32.925Z" transform="translate(-1443.634 -915.636)" fill="none" stroke="#fff" stroke-linejoin="round" stroke-width="1"/>
    <path id="Path_776" data-name="Path 776" d="M70.986,28.831v9.552L62.8,42.477V32.925Z" transform="translate(-1438.306 -915.636)" fill="none" stroke="#fff" stroke-linejoin="round" stroke-width="1"/>
    <path id="Path_777" data-name="Path 777" d="M74.8,21.446l-8.188,4.094L74.8,29.633l8.188-4.094Z" transform="translate(-1431.201 -929.402)" fill="none" stroke="#fff" stroke-linejoin="round" stroke-width="1"/>
    <path id="Path_778" data-name="Path 778" d="M66.611,22.875v9.579L74.8,36.521V26.969Z" transform="translate(-1431.201 -926.738)" fill="none" stroke="#fff" stroke-linejoin="round" stroke-width="1"/>
    <path id="Path_779" data-name="Path 779" d="M77.657,22.875v9.552L69.47,36.521V26.969Z" transform="translate(-1425.872 -926.738)" fill="none" stroke="#fff" stroke-linejoin="round" stroke-width="1"/>
    <path id="Path_780" data-name="Path 780" d="M61.461,21.446l-8.187,4.094,8.187,4.094,8.174-4.094Z" transform="translate(-1456.059 -929.402)" fill="none" stroke="#fff" stroke-linejoin="round" stroke-width="1"/>
    <path id="Path_781" data-name="Path 781" d="M53.274,22.875v9.579l8.187,4.066V26.969Z" transform="translate(-1456.059 -926.738)" fill="none" stroke="#fff" stroke-linejoin="round" stroke-width="1"/>
    <path id="Path_782" data-name="Path 782" d="M64.307,22.875v9.552l-8.174,4.094V26.969Z" transform="translate(-1450.73 -926.738)" fill="none" stroke="#fff" stroke-linejoin="round" stroke-width="1"/>
    <path id="Path_783" data-name="Path 783" d="M74.379,29.3v4.1a2.73,2.73,0,0,1-2.729,2.729h-4.1" transform="translate(-1429.443 -914.766)" fill="none" stroke="#fff" stroke-linejoin="round" stroke-width="1"/>
    <path id="Path_784" data-name="Path 784" d="M67.554,17.386h4.1a2.73,2.73,0,0,1,2.729,2.729v4.092" transform="translate(-1429.443 -936.969)" fill="none" stroke="#fff" stroke-linejoin="round" stroke-width="1"/>
    <path id="Path_785" data-name="Path 785" d="M55.642,24.208V20.115a2.73,2.73,0,0,1,2.729-2.729h4.1" transform="translate(-1451.645 -936.969)" fill="none" stroke="#fff" stroke-linejoin="round" stroke-width="1"/>
    <path id="Path_786" data-name="Path 786" d="M62.467,36.123h-4.1a2.73,2.73,0,0,1-2.729-2.729V29.3" transform="translate(-1451.645 -914.766)" fill="none" stroke="#fff" stroke-linejoin="round" stroke-width="1"/>
  </g>
</svg>
