<?xml version="1.0" encoding="UTF-8"?>
<svg version="1.1" xmlns="http://www.w3.org/2000/svg" width="435" height="116">
<path d="M0 0 C4.7079607 3.9167068 7.09048667 8.74162247 9.49609375 14.21875 C9.98345757 15.30328461 9.98345757 15.30328461 10.48066711 16.409729 C11.50961163 18.70244152 12.52867955 20.99937129 13.546875 23.296875 C14.57751739 25.60783787 15.61020308 27.91785983 16.6452179 30.22686768 C17.28697911 31.6600859 17.92588823 33.09458524 18.56169128 34.53045654 C19.84931163 37.7683959 19.84931163 37.7683959 21.859375 40.546875 C22.2217627 39.75627686 22.58415039 38.96567871 22.95751953 38.15112305 C24.32990509 35.16204722 25.70581422 32.17464308 27.08398438 29.18823242 C27.67487766 27.90598759 28.2644409 26.62312882 28.85253906 25.33959961 C40.39621541 0.15429208 40.39621541 0.15429208 48.609375 -3.765625 C54.14510369 -4.93664453 58.90844373 -4.18932548 64.171875 -2.203125 C70.57987231 1.96952441 72.8853408 8.18179862 74.49490356 15.3949585 C75.12590247 18.73933409 75.7064338 22.0888377 76.26953125 25.4453125 C76.48250351 26.67545074 76.69547577 27.90558899 76.91490173 29.17300415 C77.47696059 32.42653237 78.03243133 35.68108996 78.58441162 38.93634033 C79.361533 43.50869256 80.15159803 48.07882847 80.93955994 52.64932251 C81.35703685 55.07533883 81.77233145 57.50173206 82.18507385 59.92855835 C83.18630978 65.79063622 84.24289844 71.62881237 85.46913147 77.44833374 C86.68753891 84.0003406 87.01915503 91.00428032 84.234375 97.109375 C79.28401485 102.19000779 75.43849391 105.66062396 68.046875 105.796875 C62.02692176 105.70076544 58.13423219 104.02621939 53.734375 99.921875 C49.62303999 94.94726754 48.86257055 88.37842705 47.62109375 82.21484375 C47.06282573 78.74043654 47.06282573 78.74043654 45.859375 76.546875 C45.48425781 77.6090625 45.10914063 78.67125 44.72265625 79.765625 C37.44173811 100.03859621 37.44173811 100.03859621 29.10546875 104.703125 C23.85611179 106.67505735 18.85313133 106.19867995 13.609375 104.484375 C6.52562824 99.49355342 3.43131668 93.07299755 0.484375 85.109375 C0.12988281 84.18705078 -0.22460938 83.26472656 -0.58984375 82.31445312 C-1.45303992 80.06314418 -2.3028423 77.80773627 -3.140625 75.546875 C-3.28757813 76.66964844 -3.43453125 77.79242188 -3.5859375 78.94921875 C-4.95125304 88.41449067 -6.27696214 96.31556794 -13.734375 102.96875 C-18.4659459 106.22728468 -23.58161308 106.28438902 -29.140625 105.546875 C-34.5858123 103.76671761 -37.92288893 100.158614 -41.140625 95.546875 C-44.30729755 86.04685734 -41.81950569 74.63943496 -40.09375 65.01953125 C-39.88127625 63.78754501 -39.66880249 62.55555878 -39.44989014 61.28623962 C-39.00149604 58.70132236 -38.5474286 56.11738325 -38.08789062 53.53442383 C-37.39338094 49.62488872 -36.71872645 45.71231372 -36.046875 41.79882812 C-29.4621159 3.87773013 -29.4621159 3.87773013 -22.140625 -1.453125 C-14.3036269 -6.07077533 -7.35473852 -4.68028815 0 0 Z " fill="#24282B" transform="translate(228.140625,8.453125)"/>
<path d="M0 0 C11.33674953 8.41609542 19.74915538 20.56879989 22.9921875 34.4609375 C25.44056769 52.04207721 21.72759518 67.85587922 11.1171875 82.1484375 C2.20761623 92.84762028 -10.63425154 101.40508209 -24.73828125 103.16015625 C-42.20822952 104.2689682 -57.64948122 101.28265093 -71.640625 90.078125 C-82.2058594 80.22018663 -90.190562 65.80467485 -90.94140625 51.1875 C-90.9647385 49.44546826 -90.96562536 47.70300706 -90.9453125 45.9609375 C-90.93773926 45.0426416 -90.93016602 44.1243457 -90.92236328 43.17822266 C-90.74813214 35.97878854 -89.64229677 29.87662603 -86.5078125 23.3359375 C-86.06050781 22.38460937 -85.61320312 21.43328125 -85.15234375 20.453125 C-77.4962636 5.38727291 -65.41374807 -3.56668928 -49.6015625 -8.7890625 C-32.1273042 -13.73127697 -14.96705184 -9.93140823 0 0 Z " fill="#232629" transform="translate(410.5078125,11.6640625)"/>
<path d="M0 0 C4.3789649 2.30719656 7.91808851 5.29817506 9.46911621 10.09477234 C10.96439891 16.47573876 11.19001069 22.62787932 11.22265625 29.1640625 C11.23727905 30.27383957 11.25190186 31.38361664 11.26696777 32.52702332 C11.32888901 37.24210526 11.36896447 41.95730991 11.41064453 46.67260742 C11.4443348 50.12823259 11.48942851 53.58357909 11.53515625 57.0390625 C11.54043335 58.10574661 11.54571045 59.17243073 11.55114746 60.2714386 C11.56456177 61.2631456 11.57797607 62.2548526 11.59179688 63.27661133 C11.59908813 64.14659256 11.60637939 65.01657379 11.6138916 65.91291809 C11.90215356 68.47625537 12.50444028 70.09626776 13.87890625 72.26953125 C16.8688845 73.76452038 19.579334 73.38530571 22.87890625 73.26953125 C26.15664129 72.51803102 26.15664129 72.51803102 27.87890625 69.26953125 C28.18662305 66.80088811 28.18662305 66.80088811 28.15014648 64.00708008 C28.1603331 62.93198685 28.17051971 61.85689362 28.18101501 60.7492218 C28.18315506 59.58674423 28.1852951 58.42426666 28.1875 57.2265625 C28.21266885 54.76627376 28.23806674 52.30598736 28.26367188 49.84570312 C28.29236992 45.96607107 28.31638467 42.08647976 28.33520508 38.20678711 C28.35692179 34.46315931 28.39637792 30.72002019 28.4375 26.9765625 C28.43761581 25.82420609 28.43773163 24.67184967 28.43785095 23.48457336 C28.52472573 16.37989531 28.81746098 9.86280888 33.6328125 4.2109375 C34.22964844 3.75589844 34.82648438 3.30085937 35.44140625 2.83203125 C36.04082031 2.35894531 36.64023438 1.88585937 37.2578125 1.3984375 C41.95956088 -1.87579209 47.36512501 -1.43996266 52.87890625 -0.73046875 C57.71493598 1.3009449 60.97513624 3.91387623 63.87890625 8.26953125 C66.08479099 14.88718547 66.05323372 21.39728888 66.08203125 28.30078125 C66.08773132 29.36889038 66.0934314 30.43699951 66.0993042 31.53747559 C66.10873274 33.79678362 66.11527963 36.05610528 66.11914062 38.31542969 C66.12879468 41.73007038 66.15981795 45.14409543 66.19140625 48.55859375 C66.28043034 66.62337458 65.58078243 83.61581082 52.625 97.6484375 C43.51986768 106.10174827 32.43269992 111.38062677 19.87890625 111.26953125 C8.09094972 110.69079437 -4.01340226 106.18076936 -12.67578125 97.91015625 C-23.76601069 85.32124716 -26.2722674 71.57135626 -26.2890625 55.359375 C-26.2923909 54.23310196 -26.2957193 53.10682892 -26.29914856 51.94642639 C-26.30419111 49.57553514 -26.30655772 47.20463685 -26.30639648 44.83374023 C-26.30858879 41.2152134 -26.3267891 37.59698886 -26.34570312 33.97851562 C-26.34863647 31.66796979 -26.35062166 29.35742251 -26.3515625 27.046875 C-26.36234077 25.43255836 -26.36234077 25.43255836 -26.37333679 23.78562927 C-26.34926532 15.84641723 -26.03075214 9.17918964 -20.12109375 3.26953125 C-14.07067939 -1.29914898 -7.32835873 -2.52376258 0 0 Z " fill="#25282B" transform="translate(114.12109375,3.73046875)"/>
<path d="M0 0 C3.9962711 3.9962711 6.76496216 8.68276144 7.171875 14.42578125 C6.93964292 19.89152914 5.75827253 23.72555846 1.86328125 27.6484375 C-2.18605502 30.5856919 -6.33987689 31.41349064 -11.26171875 30.6484375 C-16.47571686 29.13792496 -20.52054896 26.41087407 -24.9140625 23.296875 C-27.55155277 21.65708704 -29.91474457 21.15821823 -33 21 C-32.88658466 23.40877257 -32.88658466 23.40877257 -32 26 C-28.50239942 28.5517514 -24.69935145 29.93556044 -20.66699219 31.39648438 C-12.65955692 34.29922118 -5.4926145 37.32858575 1 43 C1.88558594 43.76183594 1.88558594 43.76183594 2.7890625 44.5390625 C8.7953166 50.5453166 11.09359984 59.69588999 11.5 68 C10.9284683 79.3384514 6.60879202 88.80525279 -1.62109375 96.51953125 C-11.88237746 104.66457899 -25.42382157 105.74921914 -38 105 C-49.80925981 103.0970861 -58.75635172 98.73143812 -67 90 C-70.64196795 84.40461288 -71.70229176 79.72379329 -71 73 C-68.99703332 67.32492775 -65.38649821 63.69324911 -60 61 C-52.29879336 60.34564911 -47.25999402 61.02574963 -40.8515625 65.5 C-34.97551083 69.59574436 -34.97551083 69.59574436 -28 71 C-27.22757731 69.16299211 -27.22757731 69.16299211 -27 67 C-29.14342097 64.26423137 -31.36911458 63.28736956 -34.60546875 62.16796875 C-35.50716797 61.84376953 -36.40886719 61.51957031 -37.33789062 61.18554688 C-39.21658215 60.52755416 -41.09676652 59.87380623 -42.97851562 59.22460938 C-53.47222342 55.43376674 -61.4136979 49.45534378 -66.875 39.625 C-69.77203686 30.74306663 -69.41949219 18.55733763 -65.31640625 10.13671875 C-59.58609453 0.83558964 -51.7587275 -4.86650944 -41.25 -7.875 C-26.3412286 -11.0902421 -12.37276386 -9.07182127 0 0 Z " fill="#24272A" transform="translate(72,10)"/>
<path d="M0 0 C0.82564453 0.48339844 0.82564453 0.48339844 1.66796875 0.9765625 C1.00796875 1.6365625 0.34796875 2.2965625 -0.33203125 2.9765625 C-0.01351355 5.08477047 -0.01351355 5.08477047 0.66796875 6.9765625 C0.00796875 6.9765625 -0.65203125 6.9765625 -1.33203125 6.9765625 C-0.67203125 8.6265625 -0.01203125 10.2765625 0.66796875 11.9765625 C-0.09 11.73292969 -0.09 11.73292969 -0.86328125 11.484375 C-4.21200333 10.79555559 -7.41544479 10.84483694 -10.83203125 10.8515625 C-12.14171875 10.84898438 -13.45140625 10.84640625 -14.80078125 10.84375 C-18.66593639 10.96810971 -18.66593639 10.96810971 -22.33203125 11.9765625 C-23.6236612 14.5598224 -23.46612392 16.43228201 -23.47729492 19.32495117 C-23.48367477 20.44338913 -23.49005463 21.56182709 -23.49662781 22.7141571 C-23.49774063 23.92868057 -23.49885345 25.14320404 -23.5 26.39453125 C-23.5033284 27.6402742 -23.5066568 28.88601715 -23.51008606 30.16950989 C-23.51515822 32.81169186 -23.51792587 35.45377106 -23.51733398 38.09594727 C-23.51725283 40.79914048 -23.52417377 43.5021639 -23.5378418 46.20532227 C-23.55619096 50.10177793 -23.56107224 53.99803664 -23.5625 57.89453125 C-23.56968552 59.09893356 -23.57687103 60.30333588 -23.58427429 61.54423523 C-23.61456634 68.42553318 -23.61456634 68.42553318 -22.19262695 75.10668945 C-21.90863037 76.05374756 -21.62463379 77.00080566 -21.33203125 77.9765625 C-21.99203125 78.9665625 -22.65203125 79.9565625 -23.33203125 80.9765625 C-26.51968636 72.47614889 -26.49071776 64.02636789 -26.5 55.06640625 C-26.5033284 53.94013321 -26.5066568 52.81386017 -26.51008606 51.65345764 C-26.51512861 49.28256639 -26.51749522 46.9116681 -26.51733398 44.54077148 C-26.51952629 40.92224465 -26.5377266 37.30402011 -26.55664062 33.68554688 C-26.55957397 31.37500104 -26.56155916 29.06445376 -26.5625 26.75390625 C-26.57327827 25.13958961 -26.57327827 25.13958961 -26.58427429 23.49266052 C-26.56020282 15.55344848 -26.24168964 8.88622089 -20.33203125 2.9765625 C-14.41650973 -1.49025987 -7.05142132 -3.09459361 0 0 Z " fill="#34373A" transform="translate(114.33203125,4.0234375)"/>
<path d="M0 0 C6.21731137 2.7632495 9.8004326 6.20148778 12.328125 12.5 C13.71318158 17.65369889 13.37303771 22.361041 10.8984375 27.1171875 C7.66783281 31.46677258 4.40706492 32.94678114 -0.8515625 33.90625 C-3.11087445 34.00483816 -4.84780854 33.66221276 -7 33 C-6.34 31.68 -5.68 30.36 -5 29 C-2.69 29.33 -0.38 29.66 2 30 C2 29.01 2 28.02 2 27 C1.51144531 26.59910156 1.02289063 26.19820312 0.51953125 25.78515625 C-1.85490157 22.99565548 -1.39493865 19.92300617 -1.3125 16.4375 C-1.31572266 15.75236328 -1.31894531 15.06722656 -1.32226562 14.36132812 C-1.26727586 9.26727586 -1.26727586 9.26727586 1 7 C0.34 5.02 -0.32 3.04 -1 1 C-0.67 0.67 -0.34 0.34 0 0 Z " fill="#2D3033" transform="translate(66,7)"/>
<path d="M0 0 C-0.33 1.65 -0.66 3.3 -1 5 C-1.77085937 5.02578125 -2.54171875 5.0515625 -3.3359375 5.078125 C-4.33882813 5.13484375 -5.34171875 5.1915625 -6.375 5.25 C-7.37273437 5.29640625 -8.37046875 5.3428125 -9.3984375 5.390625 C-12.1526477 5.72160885 -12.1526477 5.72160885 -13.3515625 8.046875 C-13.56554687 8.69140625 -13.77953125 9.3359375 -14 10 C-14.66 10 -15.32 10 -16 10 C-16.33 11.65 -16.66 13.3 -17 15 C-19.31 15 -21.62 15 -24 15 C-23.66389766 9.62236259 -20.68672877 5.71077265 -17 2 C-11.52322979 -1.57830994 -6.21550522 -1.19418272 0 0 Z " fill="#36373A" transform="translate(289,5)"/>
<path d="M0 0 C0.33 0 0.66 0 1 0 C1.00808685 0.69855606 1.01617371 1.39711212 1.02450562 2.11683655 C1.10267029 8.7223555 1.1900257 15.32768285 1.28752708 21.93294621 C1.33732589 25.32822196 1.38365621 28.72346907 1.421875 32.11889648 C1.46603887 36.02865654 1.52562151 39.93811072 1.5859375 43.84765625 C1.60326431 45.66367088 1.60326431 45.66367088 1.62094116 47.51637268 C1.69294933 54.42683357 1.69294933 54.42683357 3.15087891 61.13452148 C3.43108887 62.08012939 3.71129883 63.0257373 4 64 C3.34 64.99 2.68 65.98 2 67 C-1.216956 58.42145066 -1.14955496 49.91920731 -1.1328125 40.87890625 C-1.13376923 39.73840317 -1.13472595 38.59790009 -1.13571167 37.4228363 C-1.1363892 35.02676335 -1.13456482 32.63068852 -1.13037109 30.23461914 C-1.12498208 26.55025177 -1.13034823 22.8660044 -1.13671875 19.18164062 C-1.13605857 16.85156223 -1.13477866 14.52148391 -1.1328125 12.19140625 C-1.13483673 11.08422745 -1.13686096 9.97704865 -1.13894653 8.83631897 C-1.13579437 7.82113693 -1.13264221 6.8059549 -1.12939453 5.76000977 C-1.12859894 4.8625856 -1.12780334 3.96516144 -1.12698364 3.0405426 C-1 1 -1 1 0 0 Z " fill="#828387" transform="translate(89,18)"/>
<path d="M0 0 C0.33 0 0.66 0 1 0 C1.76066009 5.59493783 2.11482483 11.13061772 2.24609375 16.7734375 C2.26274078 17.4683429 2.27938782 18.16324829 2.29653931 18.87921143 C2.36328088 21.78476923 2.42538376 24.69031951 2.47680664 27.59619141 C2.51643347 29.73888763 2.56791749 31.88104072 2.62109375 34.0234375 C2.65867798 35.92488525 2.65867798 35.92488525 2.69702148 37.86474609 C2.76659718 41.16133196 2.76659718 41.16133196 5 44 C4.66674962 47.19920361 4.01713841 49.94858478 3 53 C2.34 53 1.68 53 1 53 C-0.24177521 50.51644959 -0.12036681 48.86892378 -0.11352539 46.09130859 C-0.11344986 45.07040131 -0.11337433 44.04949402 -0.11329651 42.99765015 C-0.10813522 41.89240997 -0.10297394 40.7871698 -0.09765625 39.6484375 C-0.0962413 38.5192691 -0.09482635 37.39010071 -0.09336853 36.22671509 C-0.08775744 32.60945012 -0.07520303 28.99224636 -0.0625 25.375 C-0.05748643 22.92708423 -0.05292328 20.47916748 -0.04882812 18.03125 C-0.0377844 12.02081234 -0.02103544 6.01041054 0 0 Z " fill="#1F2225" transform="translate(90,24)"/>
<path d="M0 0 C0.33 0.66 0.66 1.32 1 2 C3.02463255 2.65213292 3.02463255 2.65213292 5 3 C4.67 3.66 4.34 4.32 4 5 C3.34 5 2.68 5 2 5 C2 6.65 2 8.3 2 10 C0.02 10.99 0.02 10.99 -2 12 C-2.33 28.17 -2.66 44.34 -3 61 C-3.33 61 -3.66 61 -4 61 C-4.05076484 53.41946272 -4.08576094 45.8389694 -4.10986328 38.25830078 C-4.11991262 35.68015912 -4.13355426 33.10202882 -4.15087891 30.52392578 C-4.17517367 26.81540111 -4.18649396 23.10702732 -4.1953125 19.3984375 C-4.20563507 18.24822113 -4.21595764 17.09800476 -4.22659302 15.91293335 C-4.22803738 5.58023481 -4.22803738 5.58023481 -2 1 C-1.34 0.67 -0.68 0.34 0 0 Z " fill="#909492" transform="translate(147,11)"/>
<path d="M0 0 C0.33 0.66 0.66 1.32 1 2 C1.66 2.33 2.32 2.66 3 3 C2.34 3 1.68 3 1 3 C1.165 4.093125 1.33 5.18625 1.5 6.3125 C2 10 2 10 2 13 C0.68 13.33 -0.64 13.66 -2 14 C-2.33 19.94 -2.66 25.88 -3 32 C-2.34 32 -1.68 32 -1 32 C-1.495 34.475 -1.495 34.475 -2 37 C-4.62684597 32.39876157 -4.38226903 28.18781242 -4.375 23 C-4.37693359 21.59391479 -4.37693359 21.59391479 -4.37890625 20.15942383 C-4.26680035 12.78272814 -3.12820565 6.74519344 0 0 Z " fill="#626365" transform="translate(324,35)"/>
<path d="M0 0 C5.47542841 4.99230238 10.05180881 11.16746212 13 18 C13 18.99 13 19.98 13 21 C11.02 21.99 11.02 21.99 9 23 C9 20 9 17 9 14 C8.34 13.67 7.68 13.34 7 13 C6.34 12.67 5.68 12.34 5 12 C4.01 11.67 3.02 11.34 2 11 C2.33 9.02 2.66 7.04 3 5 C2.01 5 1.02 5 0 5 C0 3.35 0 1.7 0 0 Z " fill="#4E4F50" transform="translate(417,18)"/>
<path d="M0 0 C0.33 0 0.66 0 1 0 C1.042721 1.66611905 1.04063832 3.33382885 1 5 C0.67 5.33 0.34 5.66 0 6 C-0.07179964 7.51928038 -0.08392007 9.04167482 -0.0625 10.5625 C-0.05347656 11.38878906 -0.04445313 12.21507812 -0.03515625 13.06640625 C-0.02355469 13.70449219 -0.01195312 14.34257812 0 15 C-0.99 15.33 -1.98 15.66 -3 16 C-3.33 15.34 -3.66 14.68 -4 14 C-4.33 18.95 -4.66 23.9 -5 29 C-5.33 29 -5.66 29 -6 29 C-6.79369854 9.99532932 -6.79369854 9.99532932 -2 2 C-1.34 1.34 -0.68 0.68 0 0 Z " fill="#4F5052" transform="translate(10,16)"/>
<path d="M0 0 C0.66 0.99 1.32 1.98 2 3 C2.66 2.67 3.32 2.34 4 2 C4 5.3 4 8.6 4 12 C2.68 12.33 1.36 12.66 0 13 C-1.38529821 18.45461169 -2.2396943 23.36718401 -2 29 C-2.66 29 -3.32 29 -4 29 C-4.33 29.66 -4.66 30.32 -5 31 C-3.83100289 20.53403763 -2.21936179 10.29783869 0 0 Z " fill="#616263" transform="translate(198,20)"/>
<path d="M0 0 C2.5 2.25 2.5 2.25 5 5 C5 6.32 5 7.64 5 9 C4.01 9 3.02 9 2 9 C0.29319053 10.62553283 -1.37660195 12.29115995 -3 14 C-3.33 14 -3.66 14 -4 14 C-4.43177893 7.73920552 -3.92739438 4.90924297 0 0 Z " fill="#313437" transform="translate(203,10)"/>
<path d="M0 0 C-3 1 -3 1 -7 1 C-7 0.34 -7 -0.32 -7 -1 C-9.94228975 -0.0420452 -12.80368449 0.9111906 -15.625 2.1875 C-18.28171704 3.09637688 -19.4606194 3.17899814 -22 2 C-22.33 1.01 -22.66 0.02 -23 -1 C-25.97 -1 -28.94 -1 -32 -1 C-32 -1.33 -32 -1.66 -32 -2 C-21.24913396 -4.52961554 -10.42198351 -3.26050881 0 0 Z " fill="#6D6E70" transform="translate(396,4)"/>
<path d="M0 0 C0.33 0 0.66 0 1 0 C1.22527296 3.45745022 1.42733544 6.91587025 1.625 10.375 C1.68945312 11.35984375 1.75390625 12.3446875 1.8203125 13.359375 C1.871875 14.30039062 1.9234375 15.24140625 1.9765625 16.2109375 C2.02893066 17.08024902 2.08129883 17.94956055 2.13525391 18.84521484 C2 21 2 21 0 23 C-0.99 23 -1.98 23 -3 23 C-3.33 23.99 -3.66 24.98 -4 26 C-4.25 20.375 -4.25 20.375 -2 17 C-1.57649504 14.20028732 -1.57649504 14.20028732 -1.4375 11.125 C-1.20402615 7.3227116 -0.8306115 3.72059033 0 0 Z " fill="#1C1E21" transform="translate(197,31)"/>
<path d="M0 0 C1.32 0 2.64 0 4 0 C5.26305335 5.07476794 6.27036084 9.72796354 6 15 C4.68 14.67 3.36 14.34 2 14 C2.33 12.35 2.66 10.7 3 9 C2.34 9 1.68 9 1 9 C1 9.99 1 10.98 1 12 C0.34 12 -0.32 12 -1 12 C-0.34 9.03 0.32 6.06 1 3 C0.01 3.495 0.01 3.495 -1 4 C-0.67 2.68 -0.34 1.36 0 0 Z " fill="#1E2123" transform="translate(297,23)"/>
<path d="M0 0 C-0.33 1.65 -0.66 3.3 -1 5 C-4.3 5.33 -7.6 5.66 -11 6 C-11 5.34 -11 4.68 -11 4 C-12.9600281 2.36323743 -12.9600281 2.36323743 -15 1 C-9.675665 -1.32086397 -5.56157448 -0.91457003 0 0 Z " fill="#494A4D" transform="translate(289,5)"/>
<path d="M0 0 C1.11375 0.7115625 1.11375 0.7115625 2.25 1.4375 C5.26708694 3.15175394 7.54646812 4 11 4 C11 4.99 11 5.98 11 7 C11.99 7.33 12.98 7.66 14 8 C14.33 9.65 14.66 11.3 15 13 C9.69524551 11.5080378 5.74178021 7.91524022 2 4 C0.76171875 1.7734375 0.76171875 1.7734375 0 0 Z " fill="#4A4C4D" transform="translate(8,53)"/>
<path d="M0 0 C0 0.33 0 0.66 0 1 C-3.63 1.33 -7.26 1.66 -11 2 C-10.67 2.66 -10.34 3.32 -10 4 C-18.45070423 5.26760563 -18.45070423 5.26760563 -22 4 C-23.33157453 3.65970873 -24.66474203 3.3255381 -26 3 C-17.19353881 0.29031963 -9.19012194 -0.36706108 0 0 Z " fill="#717374" transform="translate(51,1)"/>
<path d="M0 0 C2.9375 0.375 2.9375 0.375 6 1 C6.33 1.66 6.66 2.32 7 3 C9.02543556 3.25719817 11.05350224 3.50842122 13.08984375 3.65625 C15 4 15 4 17 6 C13.37772109 7.61846504 11.37886817 8.49577282 7.56640625 7.125 C1.24159357 3.7247807 1.24159357 3.7247807 0 0 Z " fill="#2F3336" transform="translate(106,103)"/>
<path d="M0 0 C0.33 0.99 0.66 1.98 1 3 C1.66 3 2.32 3 3 3 C3 3.66 3 4.32 3 5 C3.61875 5.04125 4.2375 5.0825 4.875 5.125 C5.57625 5.41375 6.2775 5.7025 7 6 C8.25 9.0625 8.25 9.0625 9 12 C3.91061189 10.40956621 0.12543357 7.2553049 -4 4 C-3.67 3.34 -3.34 2.68 -3 2 C-2.01 2 -1.02 2 0 2 C0 1.34 0 0.68 0 0 Z " fill="#434648" transform="translate(341,96)"/>
<path d="M0 0 C1.46015291 0.28241641 2.91809793 0.57626614 4.375 0.875 C5.18710937 1.03742187 5.99921875 1.19984375 6.8359375 1.3671875 C9 2 9 2 11 4 C10.01 4.33 9.02 4.66 8 5 C8 4.34 8 3.68 8 3 C7.01 3.66 6.02 4.32 5 5 C5.66 5.33 6.32 5.66 7 6 C6.67 6.66 6.34 7.32 6 8 C3.69 8 1.38 8 -1 8 C-2.2077558 4.37673261 -1.54311128 3.35853631 0 0 Z " fill="#404245" transform="translate(42,39)"/>
<path d="M0 0 C2.475 0.99 2.475 0.99 5 2 C4.01 2.66 3.02 3.32 2 4 C2.99 4.99 3.98 5.98 5 7 C3.02 7.33 1.04 7.66 -1 8 C-1 7.34 -1 6.68 -1 6 C-2.32 5.34 -3.64 4.68 -5 4 C-3.35 2.68 -1.7 1.36 0 0 Z " fill="#333538" transform="translate(10,72)"/>
<path d="M0 0 C0.33 0 0.66 0 1 0 C1.0814222 2.22855574 1.13938079 4.45797655 1.1875 6.6875 C1.22230469 7.92886719 1.25710938 9.17023438 1.29296875 10.44921875 C0.9846829 14.18564321 0.18088273 16.00629483 -2 19 C-2.33 18.34 -2.66 17.68 -3 17 C-3.66 17 -4.32 17 -5 17 C-5 15.35 -5 13.7 -5 12 C-4.34 11.67 -3.68 11.34 -3 11 C-2.34 11.33 -1.68 11.66 -1 12 C-0.67 8.04 -0.34 4.08 0 0 Z " fill="#5F6164" transform="translate(313,88)"/>
<path d="M0 0 C3 1 3 1 4.25 2.875 C5 5 5 5 4 8 C3.67 7.67 3.34 7.34 3 7 C2.67 9.31 2.34 11.62 2 14 C1.34 14 0.68 14 0 14 C0 9.38 0 4.76 0 0 Z " fill="#3F4244" transform="translate(186,87)"/>
<path d="M0 0 C0.66 0.66 1.32 1.32 2 2 C1.01 2.33 0.02 2.66 -1 3 C-1 2.34 -1 1.68 -1 1 C-2.258125 1.144375 -3.51625 1.28875 -4.8125 1.4375 C-5.87404297 1.55931641 -5.87404297 1.55931641 -6.95703125 1.68359375 C-9.19396393 1.97170735 -9.19396393 1.97170735 -12 3 C-12.73323796 5.01508358 -12.73323796 5.01508358 -13 7 C-13.99 7 -14.98 7 -16 7 C-16 6.34 -16 5.68 -16 5 C-16.66 4.67 -17.32 4.34 -18 4 C-12.60282832 -0.79748594 -7.03737152 -0.90600891 0 0 Z " fill="#66696A" transform="translate(167,3)"/>
<path d="M0 0 C0.61875 0.350625 1.2375 0.70125 1.875 1.0625 C2.57625 1.371875 3.2775 1.68125 4 2 C4.66 1.67 5.32 1.34 6 1 C6.474375 1.804375 6.94875 2.60875 7.4375 3.4375 C10.99017572 6.99017572 14.14072325 6.88578623 19 7 C19 7.33 19 7.66 19 8 C11.87963589 8.37994038 6.83533558 8.19611299 1.125 3.4375 C0 2 0 2 0 0 Z " fill="#6C6D6E" transform="translate(282,106)"/>
<path d="M0 0 C2 1 2 1 3 2 C3 2.66 3 3.32 3 4 C2.34 4 1.68 4 1 4 C0.34 5.65 -0.32 7.3 -1 9 C-1.66 9 -2.32 9 -3 9 C-3.33 9.66 -3.66 10.32 -4 11 C-4 10.34 -4 9.68 -4 9 C-4.99 9.33 -5.98 9.66 -7 10 C-5.33248852 6.05860922 -2.77289351 3.2107188 0 0 Z " fill="#48494B" transform="translate(337,16)"/>
<path d="M0 0 C4.83256305 0.41421969 6.82679218 2.46413986 10 6 C7.50907189 7.24546405 6.58919267 6.7767578 4 6 C4 5.34 4 4.68 4 4 C3.34 4 2.68 4 2 4 C2 4.66 2 5.32 2 6 C1.34 6 0.68 6 0 6 C0 5.34 0 4.68 0 4 C-0.66 3.67 -1.32 3.34 -2 3 C-1.34 2.67 -0.68 2.34 0 2 C0 1.34 0 0.68 0 0 Z " fill="#4A4B4D" transform="translate(23,72)"/>
<path d="M0 0 C3.34072178 1.38779449 4.90199421 2.81588196 6.8125 5.875 C7.25207031 6.55304687 7.69164062 7.23109375 8.14453125 7.9296875 C9.16843185 10.40762047 8.90457722 11.52489914 8 14 C5.37613513 10.93882432 5 10.26826873 5 6 C4.01 6.33 3.02 6.66 2 7 C1.34 4.69 0.68 2.38 0 0 Z " fill="#5D5E60" transform="translate(292,7)"/>
<path d="M0 0 C0.33 0 0.66 0 1 0 C1.33848652 1.89492006 1.67056911 3.79098466 2 5.6875 C2.185625 6.74324219 2.37125 7.79898438 2.5625 8.88671875 C2.95068074 11.64904062 3.08259976 14.21742043 3 17 C1.68 17.33 0.36 17.66 -1 18 C-1.625 16.1875 -1.625 16.1875 -2 14 C-1.34 13.01 -0.68 12.02 0 11 C0.24187651 8.25481679 0.24187651 8.25481679 0.125 5.3125 C0.10695313 4.31863281 0.08890625 3.32476562 0.0703125 2.30078125 C0.04710937 1.54152344 0.02390625 0.78226563 0 0 Z " fill="#555658" transform="translate(308,61)"/>
<path d="M0 0 C-3.44615385 4.8 -3.44615385 4.8 -6.25 5.8125 C-7.11625 5.9053125 -7.11625 5.9053125 -8 6 C-8.33 5.34 -8.66 4.68 -9 4 C-8.3125 1.9375 -8.3125 1.9375 -7 0 C-4.04680182 -1.23843794 -3.12561472 -1.04187157 0 0 Z " fill="#3F4244" transform="translate(310,107)"/>
<path d="M0 0 C0.66 0.33 1.32 0.66 2 1 C2 1.99 2 2.98 2 4 C3.32 3.67 4.64 3.34 6 3 C7.125 6.75 7.125 6.75 6 9 C2.06326356 7.68775452 -0.22719294 6.08089673 -3 3 C-2.34 3 -1.68 3 -1 3 C-0.67 2.01 -0.34 1.02 0 0 Z " fill="#45474A" transform="translate(13,101)"/>
<path d="M0 0 C0.99 0.33 1.98 0.66 3 1 C3 4.63 3 8.26 3 12 C1.68 11.34 0.36 10.68 -1 10 C-0.67 6.7 -0.34 3.4 0 0 Z " fill="#1C1D20" transform="translate(310,89)"/>
<path d="M0 0 C1.95825873 -0.02694851 3.91662226 -0.04637218 5.875 -0.0625 C6.96554688 -0.07410156 8.05609375 -0.08570312 9.1796875 -0.09765625 C12 0 12 0 14 1 C14 1.66 14 2.32 14 3 C14.66 3.33 15.32 3.66 16 4 C12.11764181 5.49828872 9.56550712 4.43110582 5.75 3.0625 C4.67234375 2.68222656 3.5946875 2.30195312 2.484375 1.91015625 C1.66453125 1.60980469 0.8446875 1.30945313 0 1 C0 0.67 0 0.34 0 0 Z " fill="#5A5B5D" transform="translate(28,68)"/>
<path d="M0 0 C2.97595467 2.55081829 4.44002566 5.43434437 6 9 C6 9.99 6 10.98 6 12 C4.02 12.99 4.02 12.99 2 14 C2 11 2 8 2 5 C1.34 4.67 0.68 4.34 0 4 C0 2.68 0 1.36 0 0 Z " fill="#535455" transform="translate(424,27)"/>
<path d="M0 0 C2.88437779 1.29299694 4.87219421 2.65941363 7 5 C4.69 5.66 2.38 6.32 0 7 C-0.66 6.01 -1.32 5.02 -2 4 C-1.34 2.68 -0.68 1.36 0 0 Z " fill="#3C3F41" transform="translate(405,9)"/>
<path d="M0 0 C0.99 0 1.98 0 3 0 C2.46884894 4.51478398 0.63379708 7.34666857 -2 11 C-3.0625 9.125 -3.0625 9.125 -4 7 C-3.67 6.34 -3.34 5.68 -3 5 C-2.34 5 -1.68 5 -1 5 C-1.33 4.01 -1.66 3.02 -2 2 C-1.34 2 -0.68 2 0 2 C0 1.34 0 0.68 0 0 Z " fill="#4E5052" transform="translate(77,91)"/>
<path d="M0 0 C2.25 -0.25 2.25 -0.25 5 0 C7.5769765 2.1352091 9.13713474 4.20570212 11 7 C9.68 7.33 8.36 7.66 7 8 C7 7.34 7 6.68 7 6 C6.34 6 5.68 6 5 6 C3.2856382 4.04072937 1.61594832 2.04119788 0 0 Z " fill="#202123" transform="translate(65,52)"/>
<path d="M0 0 C1.60379341 -0.05416188 3.20811406 -0.09286638 4.8125 -0.125 C5.70582031 -0.14820313 6.59914062 -0.17140625 7.51953125 -0.1953125 C10 0 10 0 13 2 C10.62021205 3.49838501 9.34088901 4.02556668 6.5 3.8125 C3.82330316 2.94257353 2.19514638 1.72542226 0 0 Z " fill="#191D1E" transform="translate(156,4)"/>
<path d="M0 0 C1.32 0.66 2.64 1.32 4 2 C4 2.99 4 3.98 4 5 C2.51827931 6.48172069 1.02889793 6.63110947 -1 7 C-1.66 6.67 -2.32 6.34 -3 6 C-2.67 4.68 -2.34 3.36 -2 2 C-1.34 2 -0.68 2 0 2 C0 1.34 0 0.68 0 0 Z " fill="#404345" transform="translate(412,14)"/>
<path d="M0 0 C3.96670899 0.44074544 6.68811135 1.82361603 10 4 C6.67465243 5.10844919 4.37817425 4.84454356 1 4 C1 3.34 1 2.68 1 2 C0.34 1.67 -0.32 1.34 -1 1 C-0.67 0.67 -0.34 0.34 0 0 Z " fill="#46484B" transform="translate(59,46)"/>
<path d="M0 0 C0.99 0.33 1.98 0.66 3 1 C3.68132451 2.66072849 4.34742127 4.327767 5 6 C5.99 6.66 6.98 7.32 8 8 C7.67 9.32 7.34 10.64 7 12 C3.66488612 9.0098979 1.78478881 6.10501426 0 2 C0 1.34 0 0.68 0 0 Z " fill="#525457" transform="translate(324,79)"/>
<path d="M0 0 C0.99 0.33 1.98 0.66 3 1 C3 3.31 3 5.62 3 8 C2.01 7.67 1.02 7.34 0 7 C-0.99 7 -1.98 7 -3 7 C-3 6.34 -3 5.68 -3 5 C-2.34 5 -1.68 5 -1 5 C-0.67 3.35 -0.34 1.7 0 0 Z " fill="#1D2124" transform="translate(252,47)"/>
<path d="M0 0 C3.96 0.99 3.96 0.99 8 2 C8 2.66 8 3.32 8 4 C4.33694766 4.74926071 1.57644848 5.2380014 -2 4 C-1.34 2.68 -0.68 1.36 0 0 Z " fill="#4C4D4E" transform="translate(61,36)"/>
<path d="M0 0 C3.43595166 1.52708963 6.11912454 3.59927045 9 6 C8.67 6.66 8.34 7.32 8 8 C6.35 7.67 4.7 7.34 3 7 C3.33 6.34 3.66 5.68 4 5 C1.525 4.01 1.525 4.01 -1 3 C-0.67 2.01 -0.34 1.02 0 0 Z " fill="#5E5F60" transform="translate(66,7)"/>
<path d="M0 0 C1.32 0.33 2.64 0.66 4 1 C3.34 1 2.68 1 2 1 C2 1.66 2 2.32 2 3 C3.32 3 4.64 3 6 3 C6.33 2.34 6.66 1.68 7 1 C6.25 5.75 6.25 5.75 4 8 C0 3.375 0 3.375 0 0 Z " fill="#3F4245" transform="translate(170,81)"/>
<path d="M0 0 C0.99 0.33 1.98 0.66 3 1 C3.33 2.65 3.66 4.3 4 6 C3.34 6 2.68 6 2 6 C1.34 6.185625 0.68 6.37125 0 6.5625 C-2 7 -2 7 -4 6 C-3.67 5.01 -3.34 4.02 -3 3 C-0.9375 2.3125 -0.9375 2.3125 1 2 C0.67 1.34 0.34 0.68 0 0 Z " fill="#424547" transform="translate(26,106)"/>
<path d="M0 0 C0.66 0 1.32 0 2 0 C2.66 1.65 3.32 3.3 4 5 C2.25 6.5625 2.25 6.5625 0 8 C-2.25 7.6875 -2.25 7.6875 -4 7 C-4 6.34 -4 5.68 -4 5 C-3.01 5 -2.02 5 -1 5 C-0.67 3.35 -0.34 1.7 0 0 Z " fill="#3A3B3D" transform="translate(124,72)"/>
<path d="M0 0 C0.33 0 0.66 0 1 0 C1.5574301 1.93302372 2.09546757 3.87164853 2.625 5.8125 C2.92664063 6.89144531 3.22828125 7.97039062 3.5390625 9.08203125 C4 12 4 12 2 15 C-0.10428384 9.87080814 -0.21755666 5.4389165 0 0 Z " fill="#5F6061" transform="translate(89,70)"/>
<path d="M0 0 C0 0.33 0 0.66 0 1 C-2.31 1.33 -4.62 1.66 -7 2 C-7 2.66 -7 3.32 -7 4 C-8.32 4 -9.64 4 -11 4 C-11 3.34 -11 2.68 -11 2 C-12.65 2 -14.3 2 -16 2 C-16 1.67 -16 1.34 -16 1 C-10.63904667 -0.12862175 -5.44693314 -0.09688221 0 0 Z " fill="#18191B" transform="translate(381,2)"/>
<path d="M0 0 C1.32 0.33 2.64 0.66 4 1 C2.9024777 3.99324263 2.32317108 4.84610901 -0.625 6.25 C-1.40875 6.4975 -2.1925 6.745 -3 7 C-2.01 4.69 -1.02 2.38 0 0 Z " fill="#484A4B" transform="translate(158,102)"/>
<path d="M0 0 C0.33 0.66 0.66 1.32 1 2 C0.67 2.66 0.34 3.32 0 4 C1.65 4 3.3 4 5 4 C4.01 4.495 4.01 4.495 3 5 C2.67 5.99 2.34 6.98 2 8 C1.67 7.67 1.34 7.34 1 7 C0.34 7.66 -0.32 8.32 -1 9 C-1.625 5.625 -1.625 5.625 -2 2 C-1.34 1.34 -0.68 0.68 0 0 Z " fill="#202225" transform="translate(68,96)"/>
<path d="M0 0 C2.83022097 3.99560608 1.76210446 7.42737323 1 12 C-1.89932357 9.60490662 -2.50168276 7.68754757 -3 4 C-2.01 4 -1.02 4 0 4 C0 2.68 0 1.36 0 0 Z " fill="#1E2022" transform="translate(76,19)"/>
<path d="M0 0 C1.98 0.66 3.96 1.32 6 2 C4.625 3.5 4.625 3.5 3 5 C2.34 5 1.68 5 1 5 C0.67 5.66 0.34 6.32 0 7 C-1.125 2.25 -1.125 2.25 0 0 Z " fill="#494D4F" transform="translate(34,79)"/>
<path d="M0 0 C2.78637633 4.1795645 1.79562512 6.14668677 1 11 C0.67 11 0.34 11 0 11 C-0.12375 10.21625 -0.2475 9.4325 -0.375 8.625 C-0.79117993 5.85942178 -0.79117993 5.85942178 -3 4 C-2.67 3.34 -2.34 2.68 -2 2 C-1.34 2 -0.68 2 0 2 C0 1.34 0 0.68 0 0 Z " fill="#424648" transform="translate(430,66)"/>
<path d="M0 0 C1.98 0.99 1.98 0.99 4 2 C4 3.98 4 5.96 4 8 C3.01 7.67 2.02 7.34 1 7 C0.67 7.66 0.34 8.32 0 9 C0 6.03 0 3.06 0 0 Z " fill="#1C2023" transform="translate(34,29)"/>
<path d="M0 0 C1.65 0.33 3.3 0.66 5 1 C5.33 2.32 5.66 3.64 6 5 C3.69 5 1.38 5 -1 5 C-0.67 3.35 -0.34 1.7 0 0 Z " fill="#3D3F41" transform="translate(266,15)"/>
<path d="M0 0 C2.33333823 2.12121657 3.9148886 4.01594365 5 7 C4.625 9.25 4.625 9.25 4 11 C4 10.01 4 9.02 4 8 C3.01 8 2.02 8 1 8 C0 2.25 0 2.25 0 0 Z " fill="#69696A" transform="translate(174,8)"/>
<path d="M0 0 C5.875 0.875 5.875 0.875 7 2 C8.51469448 2.23192865 10.03754562 2.41215238 11.5625 2.5625 C12.38878906 2.64628906 13.21507812 2.73007813 14.06640625 2.81640625 C14.70449219 2.87699219 15.34257812 2.93757813 16 3 C16 3.33 16 3.66 16 4 C9.86946489 4.32712342 5.37330889 4.39366878 0 1 C0 0.67 0 0.34 0 0 Z " fill="#949596" transform="translate(239,110)"/>
<path d="M0 0 C2.9375 0.375 2.9375 0.375 6 1 C7 3 7 3 8 6 C2.33846154 4.52307692 2.33846154 4.52307692 0.625 1.875 C0.41875 1.25625 0.2125 0.6375 0 0 Z " fill="#505153" transform="translate(106,103)"/>
<path d="M0 0 C0.66 0.33 1.32 0.66 2 1 C1.69381595 4.67420866 1.24228216 5.78135513 -1.5625 8.3125 C-2.366875 8.869375 -3.17125 9.42625 -4 10 C-3.67 8.02 -3.34 6.04 -3 4 C-2.01 4 -1.02 4 0 4 C0 2.68 0 1.36 0 0 Z " fill="#545658" transform="translate(420,89)"/>
<path d="M0 0 C3.125 0.375 3.125 0.375 6 1 C6 2.32 6 3.64 6 5 C4.68 5 3.36 5 2 5 C1.34 4.34 0.68 3.68 0 3 C-0.66 2.67 -1.32 2.34 -2 2 C-1.34 1.34 -0.68 0.68 0 0 Z " fill="#1C1F22" transform="translate(47,42)"/>
<path d="M0 0 C1.32 0.66 2.64 1.32 4 2 C4 2.99 4 3.98 4 5 C3.01 5.33 2.02 5.66 1 6 C1.66 6.66 2.32 7.32 3 8 C2.01 8 1.02 8 0 8 C-0.79953138 4.71303767 -1.09658936 3.28976808 0 0 Z " fill="#383C3E" transform="translate(332,86)"/>
<path d="M0 0 C3.465 1.485 3.465 1.485 7 3 C7 3.66 7 4.32 7 5 C5 6.625 5 6.625 3 8 C0 2.25 0 2.25 0 0 Z " fill="#646567" transform="translate(224,81)"/>
<path d="M0 0 C2.25 1.5625 2.25 1.5625 4 3 C-4.57142857 2.14285714 -4.57142857 2.14285714 -8 0 C-4.94073669 -0.98333463 -3.02541902 -1.13453213 0 0 Z " fill="#17191C" transform="translate(126,110)"/>
<path d="M0 0 C1.32 0.99 2.64 1.98 4 3 C-1.75 6 -1.75 6 -4 6 C-4 5.01 -4 4.02 -4 3 C-3.01 2.67 -2.02 2.34 -1 2 C-0.67 1.34 -0.34 0.68 0 0 Z " fill="#4C4F51" transform="translate(62,106)"/>
<path d="M0 0 C3.68802044 1.22934015 4.72356973 2.93859378 7 6 C6.34 6.66 5.68 7.32 5 8 C0 2.25 0 2.25 0 0 Z " fill="#48494A" transform="translate(233,102)"/>
<path d="M0 0 C1.2077558 3.62326739 0.54311128 4.64146369 -1 8 C-1.99 7.67 -2.98 7.34 -4 7 C-3.67 5.35 -3.34 3.7 -3 2 C-2.01 2 -1.02 2 0 2 C0 1.34 0 0.68 0 0 Z " fill="#5B5E61" transform="translate(270,91)"/>
<path d="M0 0 C0.33 0 0.66 0 1 0 C1.18451025 10.55808656 1.18451025 10.55808656 0 15 C-0.33 15 -0.66 15 -1 15 C-1.33 12.03 -1.66 9.06 -2 6 C-1.67 6 -1.34 6 -1 6 C-0.67 4.02 -0.34 2.04 0 0 Z " fill="#A4A5A7" transform="translate(82,73)"/>
<path d="M0 0 C2 3 2 3 1.625 5.1875 C1.41875 5.785625 1.2125 6.38375 1 7 C-0.32 6.67 -1.64 6.34 -3 6 C-2.67 4.68 -2.34 3.36 -2 2 C-1.34 2 -0.68 2 0 2 C0 1.34 0 0.68 0 0 Z " fill="#3D4043" transform="translate(79,62)"/>
<path d="M0 0 C0.33 0.66 0.66 1.32 1 2 C1.66 2 2.32 2 3 2 C3.33 2.99 3.66 3.98 4 5 C4.66 5.66 5.32 6.32 6 7 C5.01 7.33 4.02 7.66 3 8 C1.5 6.8125 1.5 6.8125 0 5 C-0.1875 2.3125 -0.1875 2.3125 0 0 Z " fill="#35383A" transform="translate(6,46)"/>
<path d="M0 0 C1.32 1.32 2.64 2.64 4 4 C1.36 4.33 -1.28 4.66 -4 5 C-3.6875 3.0625 -3.6875 3.0625 -3 1 C-2.01 0.67 -1.02 0.34 0 0 Z " fill="#45484B" transform="translate(38,35)"/>
<path d="M0 0 C1.32 0.33 2.64 0.66 4 1 C2.60667426 4.36720387 1.0210714 5.9859524 -2 8 C-2 7.01 -2 6.02 -2 5 C-1.34 5 -0.68 5 0 5 C0 3.35 0 1.7 0 0 Z " fill="#57585A" transform="translate(73,31)"/>
<path d="M0 0 C2.62187494 1.04874998 3.79371361 1.64931313 5.25 4.125 C5.4975 4.74375 5.745 5.3625 6 6 C4.02 6 2.04 6 0 6 C0 4.02 0 2.04 0 0 Z " fill="#535557" transform="translate(116,6)"/>
<path d="M0 0 C1.33841672 0.31229724 2.67139075 0.64830932 4 1 C4.99 1 5.98 1 7 1 C5.71034824 2.37562854 4.37310707 3.70766393 3 5 C2.34 5 1.68 5 1 5 C1 4.01 1 3.02 1 2 C0.34 1.67 -0.32 1.34 -1 1 C-0.67 0.67 -0.34 0.34 0 0 Z " fill="#4E4F50" transform="translate(210,107)"/>
<path d="M0 0 C0.66 0 1.32 0 2 0 C1.8125 1.8125 1.8125 1.8125 1 4 C-1.5625 5.75 -1.5625 5.75 -4 7 C-3.67 5.02 -3.34 3.04 -3 1 C-2.34 1.33 -1.68 1.66 -1 2 C-0.67 1.34 -0.34 0.68 0 0 Z " fill="#5B5C5E" transform="translate(71,101)"/>
<path d="M0 0 C2.64 0.33 5.28 0.66 8 1 C7.34 2.32 6.68 3.64 6 5 C4.35 4.67 2.7 4.34 1 4 C0.67 2.68 0.34 1.36 0 0 Z " fill="#1C2022" transform="translate(28,64)"/>
<path d="M0 0 C0.66 0.33 1.32 0.66 2 1 C2.40729228 3.32156597 2.74438677 5.6568787 3 8 C1.68 8 0.36 8 -1 8 C-1.125 2.25 -1.125 2.25 0 0 Z " fill="#3C3F41" transform="translate(145,12)"/>
<path d="M0 0 C0.66 0.33 1.32 0.66 2 1 C1.34 2.65 0.68 4.3 0 6 C-1.32 6 -2.64 6 -4 6 C-2.84826645 3.53199953 -1.95216435 1.95216435 0 0 Z " fill="#5C5D5D" transform="translate(15,10)"/>
<path d="M0 0 C0.66 0 1.32 0 2 0 C2.33 0.99 2.66 1.98 3 3 C-0.75 6 -0.75 6 -3 6 C-2.42655063 3.13275314 -2.1385485 2.1385485 0 0 Z " fill="#515253" transform="translate(411,99)"/>
<path d="M0 0 C0.33 0 0.66 0 1 0 C1 3.3 1 6.6 1 10 C-0.32 10.33 -1.64 10.66 -3 11 C-3.33 11.66 -3.66 12.32 -4 13 C-4 12.01 -4 11.02 -4 10 C-3.34 9.67 -2.68 9.34 -2 9 C-1.31270746 6.88153715 -1.31270746 6.88153715 -0.875 4.4375 C-0.70742188 3.61121094 -0.53984375 2.78492187 -0.3671875 1.93359375 C-0.24601562 1.29550781 -0.12484375 0.65742187 0 0 Z " fill="#313538" transform="translate(326,62)"/>
<path d="M0 0 C1.99097846 2.98646769 2.94124926 5.59687262 4 9 C1.53199953 7.84826645 -0.04783565 6.95216435 -2 5 C-1.34 4.67 -0.68 4.34 0 4 C0 2.68 0 1.36 0 0 Z " fill="#626467" transform="translate(245,41)"/>
<path d="M0 0 C0.66 0.33 1.32 0.66 2 1 C2 2.65 2 4.3 2 6 C0.35 5.67 -1.3 5.34 -3 5 C-3 3.68 -3 2.36 -3 1 C-2.34 1 -1.68 1 -1 1 C-0.67 1.33 -0.34 1.66 0 2 C0 1.34 0 0.68 0 0 Z " fill="#383B3E" transform="translate(422,24)"/>
<path d="M0 0 C0.66 0.33 1.32 0.66 2 1 C1.67 2.65 1.34 4.3 1 6 C-0.32 6 -1.64 6 -3 6 C-2.67 4.68 -2.34 3.36 -2 2 C-1.34 2 -0.68 2 0 2 C0 1.34 0 0.68 0 0 Z " fill="#1B1F22" transform="translate(94,9)"/>
<path d="M0 0 C0.99 0 1.98 0 3 0 C3 0.66 3 1.32 3 2 C3.66 2.66 4.32 3.32 5 4 C2.36 4.33 -0.28 4.66 -3 5 C-1.6875 2.5 -1.6875 2.5 0 0 Z " fill="#696C6C" transform="translate(53,109)"/>
<path d="M0 0 C1.32 0 2.64 0 4 0 C4 1.65 4 3.3 4 5 C3.01 5.33 2.02 5.66 1 6 C0.34 5.34 -0.32 4.68 -1 4 C-0.01 3.34 0.98 2.68 2 2 C1.34 1.34 0.68 0.68 0 0 Z " fill="#1C2024" transform="translate(12,72)"/>
<path d="M0 0 C1.32 1.32 2.64 2.64 4 4 C3.67 4.66 3.34 5.32 3 6 C1.02 6 -0.96 6 -3 6 C-3 5.34 -3 4.68 -3 4 C-2.01 3.34 -1.02 2.68 0 2 C0 1.34 0 0.68 0 0 Z " fill="#535557" transform="translate(75,56)"/>
<path d="M0 0 C0.66 0.33 1.32 0.66 2 1 C1.34 2.65 0.68 4.3 0 6 C-0.99 6 -1.98 6 -3 6 C-3.33 5.34 -3.66 4.68 -4 4 C-3.34 4 -2.68 4 -2 4 C-2 3.34 -2 2.68 -2 2 C-1.34 2 -0.68 2 0 2 C0 1.34 0 0.68 0 0 Z " fill="#303334" transform="translate(172,7)"/>
<path d="M0 0 C2.97 0 5.94 0 9 0 C6.38058783 1.74627478 4.96175123 2.38722388 2 3 C1.34 2.01 0.68 1.02 0 0 Z M-1 3 C2 4 2 4 2 4 Z " fill="#181A1C" transform="translate(39,2)"/>
<path d="M0 0 C0.66 0.66 1.32 1.32 2 2 C1.625 4.625 1.625 4.625 1 7 C-0.5 5.6875 -0.5 5.6875 -2 4 C-2 3.01 -2 2.02 -2 1 C-1.34 0.67 -0.68 0.34 0 0 Z " fill="#494A4C" transform="translate(281,100)"/>
<path d="M0 0 C0.66 0 1.32 0 2 0 C2 0.99 2 1.98 2 3 C3.98 3 5.96 3 8 3 C8 3.33 8 3.66 8 4 C6.02 4 4.04 4 2 4 C1.67 4.66 1.34 5.32 1 6 C1 5.01 1 4.02 1 3 C0.34 3 -0.32 3 -1 3 C-0.67 2.01 -0.34 1.02 0 0 Z " fill="#6C6F72" transform="translate(37,27)"/>
</svg>
