<?xml version="1.0" encoding="UTF-8"?>
<svg version="1.1" xmlns="http://www.w3.org/2000/svg" width="1280" height="1567">
<path d="M0 0 C2.37060557 -0.00067692 4.74121107 -0.00165013 7.11181641 -0.00289917 C12.03613966 -0.00435794 16.96044454 -0.00228111 21.88476562 0.00244141 C28.11997949 0.00813752 34.35515026 0.00484862 40.59036255 -0.00113106 C45.47241527 -0.00478642 50.35445818 -0.00357555 55.23651123 -0.00100327 C57.53245041 -0.00034767 59.82839056 -0.00111306 62.12432861 -0.00348282 C74.08462194 -0.01312598 86.02419403 0.11828703 97.9765625 0.57861328 C99.00316986 0.61733488 100.02977722 0.65605648 101.0874939 0.69595146 C106.57183341 0.92948872 111.93720895 1.38777441 117.375 2.1328125 C119.51803491 2.26733166 121.66289141 2.37544994 123.80859375 2.45703125 C143.38804498 3.32750701 162.82280738 5.06700897 182.3125 7.1328125 C183.56328339 7.26432709 184.81406677 7.39584167 186.10275269 7.53134155 C189.72404555 7.91400111 193.34457567 8.30308522 196.96484375 8.6953125 C198.03875366 8.80990311 199.11266357 8.92449371 200.21911621 9.04255676 C206.4517734 9.73082584 212.61701878 10.61897525 218.79376221 11.70121765 C222.25388061 12.27976539 225.69415717 12.61792404 229.1875 12.9453125 C257.08626428 15.82980266 285.15259303 21.16965737 312.5390625 27.1015625 C318.32432629 28.34979472 324.13169118 29.48478841 329.9375 30.6328125 C351.09207041 34.83847026 371.97004524 39.91494457 392.8125 45.4453125 C393.91408951 45.73752686 393.91408951 45.73752686 395.03793335 46.03564453 C456.21869365 62.28166741 515.85452834 82.32270427 573.6875 108.1328125 C574.90638916 108.67566895 574.90638916 108.67566895 576.14990234 109.22949219 C576.90094238 109.56883789 577.65198242 109.90818359 578.42578125 110.2578125 C579.07200439 110.54914063 579.71822754 110.84046875 580.3840332 111.140625 C581.04105225 111.46804687 581.69807129 111.79546875 582.375 112.1328125 C583.22791349 112.41774289 584.08082697 112.70267329 584.95958632 112.99623793 C587.85691412 115.55909371 587.77495578 116.20878657 588.00519782 119.94286567 C588.0334296 122.06512179 588.03346973 124.18785192 588.01258564 126.31019306 C588.02075163 127.48217156 588.02891763 128.65415005 588.03733107 129.86164305 C588.05500874 133.13502305 588.05010616 136.40749977 588.03594186 139.6808693 C588.02600654 143.23453699 588.04488964 146.78806723 588.06015605 150.34169978 C588.08289172 156.57706793 588.08685712 162.81223307 588.07869339 169.04763412 C588.06658436 178.32063947 588.08287282 187.59344196 588.10473388 196.86642155 C588.14496309 214.3946168 588.15110195 231.92272542 588.14674488 249.45095865 C588.14354176 262.99380841 588.14910728 276.53662869 588.16089439 290.0794735 C588.16254713 292.02380991 588.16419595 293.96814632 588.16584086 295.91248273 C588.16832467 298.84239096 588.17080945 301.77229919 588.17331102 304.7022074 C588.19633959 331.96171651 588.20893439 359.22121465 588.2001543 386.48073292 C588.19982597 387.5092508 588.19949764 388.53776869 588.19915936 389.59745378 C588.19746465 394.81054446 588.19567408 400.0236351 588.19384805 405.23672573 C588.19348593 406.27207837 588.19312381 407.30743102 588.19275072 408.37415799 C588.19201697 410.46790072 588.19127811 412.56164346 588.19053415 414.65538619 C588.17922035 447.19521872 588.20251955 479.73486495 588.25317383 512.2746582 C588.31002258 548.82910882 588.34001693 585.38344232 588.33105963 621.93793982 C588.33019433 625.83984386 588.32942252 629.7417479 588.32871056 633.64365196 C588.32842088 635.08477685 588.32842088 635.08477685 588.32812535 636.55501538 C588.32576786 651.03742379 588.34434688 665.51970868 588.37366676 680.00208473 C588.40702616 696.49097337 588.41229161 712.97959889 588.38057701 729.46849648 C588.36367408 738.68674647 588.36859316 747.9043587 588.40569637 757.12255294 C588.42830057 763.29516729 588.42135299 769.4673114 588.39127534 775.63989219 C588.37498664 779.14765284 588.37061017 782.65417862 588.40245936 786.16186068 C588.52115519 802.52290231 586.99349577 815.96937028 580.31482121 831.01084181 C579.05545083 833.85430502 577.94314203 836.74980606 576.828125 839.65234375 C576.10092796 841.41963729 575.36668018 843.18404804 574.625 844.9453125 C574.21435303 845.92411377 573.80370605 846.90291504 573.38061523 847.91137695 C562.80440928 872.78947532 550.48385742 897.06971983 536.375 920.1328125 C535.79137695 921.08687988 535.20775391 922.04094727 534.60644531 923.02392578 C532.66240878 926.19031129 530.70838921 929.35028576 528.75 932.5078125 C527.83589355 933.98761597 527.83589355 933.98761597 526.90332031 935.49731445 C523.21140412 941.40666177 519.30740819 947.0890851 515.16943359 952.69482422 C513.04004288 955.58789845 511.01634703 958.53509534 509 961.5078125 C504.7649459 967.68474412 500.24548124 973.61121844 495.63671875 979.51220703 C493.97111311 981.65158208 492.32264748 983.80384741 490.67431641 985.95654297 C489.00756586 988.13128065 487.3340068 990.30071693 485.65917969 992.46923828 C484.79670593 993.58651892 483.93539368 994.70469706 483.07519531 995.82373047 C475.83833522 1005.22521106 468.2165852 1014.2314071 460.375 1023.1328125 C459.02043666 1024.67413065 457.66618015 1026.21571862 456.3125 1027.7578125 C455.79171875 1028.34820313 455.2709375 1028.93859375 454.734375 1029.546875 C453.459948 1031.0337065 452.25804089 1032.58184053 451.0625 1034.1328125 C450.505625 1034.7928125 449.94875 1035.4528125 449.375 1036.1328125 C448.715 1036.1328125 448.055 1036.1328125 447.375 1036.1328125 C447.148125 1036.6690625 446.92125 1037.2053125 446.6875 1037.7578125 C443.43064654 1043.65116638 438.37050552 1048.16750107 433.63110352 1052.85913086 C431.69000873 1054.78212452 429.75122589 1056.70743084 427.8125 1058.6328125 C427.15314453 1059.28378906 426.49378906 1059.93476562 425.81445312 1060.60546875 C422.43010828 1063.97280683 419.32483162 1067.37041153 416.375 1071.1328125 C415.570625 1071.7721875 414.76625 1072.4115625 413.9375 1073.0703125 C411.51456041 1075.02048339 409.74956386 1077.08862975 407.8125 1079.50390625 C405.59870384 1082.01247419 403.05146699 1084.09307199 400.50390625 1086.25390625 C397.51826486 1088.88894021 394.78439965 1091.74684912 392.0390625 1094.62890625 C390.375 1096.1328125 390.375 1096.1328125 388.375 1096.1328125 C388.375 1096.7928125 388.375 1097.4528125 388.375 1098.1328125 C386.73046875 1099.75390625 386.73046875 1099.75390625 384.5625 1101.5703125 C381.55036735 1104.10620582 381.55036735 1104.10620582 378.73828125 1106.85546875 C377.375 1108.1328125 377.375 1108.1328125 375.375 1108.1328125 C375.375 1108.7928125 375.375 1109.4528125 375.375 1110.1328125 C370.90441176 1114.1328125 370.90441176 1114.1328125 368.375 1114.1328125 C368.045 1115.1228125 367.715 1116.1128125 367.375 1117.1328125 C365.82496996 1118.52871197 364.20865761 1119.85168269 362.5625 1121.1328125 C358.34511 1124.49363041 354.3158028 1127.95331395 350.375 1131.6328125 C344.90341006 1136.71754911 339.21382217 1141.47215029 333.375 1146.1328125 C332.58867188 1146.76445313 331.80234375 1147.39609375 330.9921875 1148.046875 C329.39851655 1149.32496754 327.80210368 1150.5996478 326.203125 1151.87109375 C323.95386637 1153.66987931 321.71674085 1155.48119858 319.484375 1157.30078125 C318.80600586 1157.85080811 318.12763672 1158.40083496 317.42871094 1158.9675293 C316.07470336 1160.06544723 314.72371087 1161.16709549 313.37597656 1162.27270508 C308.60040654 1166.1328125 308.60040654 1166.1328125 306.375 1166.1328125 C306.375 1166.7928125 306.375 1167.4528125 306.375 1168.1328125 C304.44834099 1169.6320134 302.51692011 1171.01357711 300.5 1172.3828125 C294.7026236 1176.41153589 289.10409621 1180.63476635 283.5625 1185.0078125 C275.64924297 1191.23028245 267.53144847 1197.10190029 259.24853516 1202.82080078 C257.31381382 1204.17566037 255.4146244 1205.57359091 253.51171875 1206.97265625 C250.375 1209.1328125 250.375 1209.1328125 248.375 1209.1328125 C248.375 1209.7928125 248.375 1210.4528125 248.375 1211.1328125 C246.93359375 1212.2890625 246.93359375 1212.2890625 244.8125 1213.6328125 C243.98363281 1214.16777344 243.15476562 1214.70273438 242.30078125 1215.25390625 C241.33527344 1215.87394531 240.36976563 1216.49398438 239.375 1217.1328125 C237.08010043 1218.64903647 234.78832998 1220.16925403 232.5 1221.6953125 C231.54891357 1222.32796021 231.54891357 1222.32796021 230.57861328 1222.97338867 C226.21364518 1225.88390115 221.8807861 1228.83832972 217.55932617 1231.81298828 C196.25323581 1246.47614012 174.39137349 1260.19270813 152.18945312 1273.44970703 C149.17054323 1275.25508219 146.15522666 1277.06634689 143.140625 1278.87890625 C136.88967913 1282.63734435 130.6342633 1286.3882431 124.375 1290.1328125 C123.51583984 1290.64714844 122.65667969 1291.16148438 121.77148438 1291.69140625 C114.58222716 1295.9874968 107.4411726 1300.23355215 99.88671875 1303.86328125 C96.6880878 1305.48000763 93.59865199 1307.27222619 90.5 1309.0703125 C85.3355388 1312.05895413 80.1116489 1314.82152687 74.75 1317.4453125 C70.52233895 1319.55914302 66.35931222 1321.78635487 62.1875 1324.0078125 C55.12482967 1327.76032058 47.98949964 1331.29062059 40.71801758 1334.62060547 C37.77066538 1335.9746095 35.08107583 1337.32876195 32.375 1339.1328125 C27.13381123 1339.79359275 23.50360407 1338.0592031 19 1335.6328125 C17.58358443 1334.89535086 16.16691008 1334.15838608 14.75 1333.421875 C14.028125 1333.04192383 13.30625 1332.66197266 12.5625 1332.27050781 C9.74631669 1330.80584105 6.89867135 1329.41035442 4.04833984 1328.01367188 C-1.79486348 1325.14430386 -7.41889832 1322.12317763 -12.953125 1318.6875 C-16.35010708 1316.71089347 -19.84783235 1314.98830962 -23.375 1313.2578125 C-29.8729189 1310.06657665 -36.164303 1306.62078376 -42.421875 1302.984375 C-45.15591078 1301.40396895 -47.90652749 1299.87824111 -50.6875 1298.3828125 C-63.41761316 1291.47644612 -75.94675183 1284.19150908 -88.375 1276.7578125 C-89.17156006 1276.28263184 -89.96812012 1275.80745117 -90.78881836 1275.31787109 C-95.48231084 1272.49436873 -100.06442106 1269.5458121 -104.59082031 1266.46118164 C-106.55686908 1265.17730366 -108.55098558 1264.04419236 -110.625 1262.9453125 C-120.96102321 1257.33225245 -130.84532523 1250.57677688 -140.3515625 1243.66796875 C-142.75411787 1242.04562466 -145.2487711 1240.64256053 -147.77294922 1239.2199707 C-150.91817232 1237.37371728 -153.88690679 1235.28316153 -156.875 1233.1953125 C-158.28361865 1232.21841031 -159.69248356 1231.24186314 -161.1015625 1230.265625 C-161.83665039 1229.75547852 -162.57173828 1229.24533203 -163.32910156 1228.71972656 C-166.48271026 1226.53996725 -169.65189602 1224.38337962 -172.82055664 1222.22558594 C-180.95023083 1216.68652544 -189.00751169 1211.06196927 -196.98632812 1205.30810547 C-198.60400671 1204.14786937 -200.23164638 1203.00156269 -201.859375 1201.85546875 C-212.67068773 1194.24306279 -223.1402201 1186.18618413 -233.625 1178.1328125 C-234.28483887 1177.6265332 -234.94467773 1177.12025391 -235.62451172 1176.59863281 C-239.29527942 1173.78178992 -242.96089477 1170.95831887 -246.625 1168.1328125 C-248.97868519 1166.31968658 -251.33302502 1164.50741263 -253.6875 1162.6953125 C-254.73035156 1161.89222656 -255.77320313 1161.08914063 -256.84765625 1160.26171875 C-258.53880047 1158.9654127 -260.25059612 1157.69479215 -261.99609375 1156.47265625 C-262.80240234 1155.80943359 -262.80240234 1155.80943359 -263.625 1155.1328125 C-263.625 1154.4728125 -263.625 1153.8128125 -263.625 1153.1328125 C-264.19089844 1152.875 -264.75679688 1152.6171875 -265.33984375 1152.3515625 C-267.86601463 1151.00427136 -269.95144367 1149.41863075 -272.1875 1147.6328125 C-274.62968505 1145.68894852 -277.02477272 1143.86629735 -279.625 1142.1328125 C-279.625 1141.4728125 -279.625 1140.8128125 -279.625 1140.1328125 C-280.181875 1139.88402344 -280.73875 1139.63523437 -281.3125 1139.37890625 C-289.72216781 1134.84734539 -296.87177086 1127.16376731 -303.85546875 1120.6875 C-306.08418393 1118.63167528 -308.33267919 1116.61664293 -310.625 1114.6328125 C-315.52024687 1110.384871 -320.27131974 1105.97991862 -325.03857422 1101.58984375 C-326.62710515 1100.13087905 -328.22086496 1098.67785473 -329.81640625 1097.2265625 C-334.71216953 1092.76847727 -339.5428106 1088.28080627 -344.17578125 1083.546875 C-345.75787206 1081.95273896 -345.75787206 1081.95273896 -348.25 1080.0703125 C-351.12760068 1077.72279616 -353.2506605 1074.9820199 -355.625 1072.1328125 C-356.40875 1071.5140625 -357.1925 1070.8953125 -358 1070.2578125 C-360.95018647 1067.86956631 -363.2144661 1065.21928591 -365.671875 1062.33984375 C-367.73789649 1060.00523947 -369.90386164 1057.81995385 -372.125 1055.6328125 C-375.61046826 1052.19476557 -378.87118155 1048.64252546 -382.05078125 1044.921875 C-383.49241181 1043.28349585 -384.98754459 1041.76659331 -386.5625 1040.2578125 C-388.625 1038.1328125 -388.625 1038.1328125 -388.625 1036.1328125 C-389.285 1036.1328125 -389.945 1036.1328125 -390.625 1036.1328125 C-392.3515625 1034.453125 -392.3515625 1034.453125 -394.25 1032.2578125 C-394.88164062 1031.53851562 -395.51328125 1030.81921875 -396.1640625 1030.078125 C-397.625 1028.1328125 -397.625 1028.1328125 -397.625 1026.1328125 C-398.285 1026.1328125 -398.945 1026.1328125 -399.625 1026.1328125 C-400.99991299 1024.62494089 -402.29864462 1023.04741489 -403.5625 1021.4453125 C-404.366875 1020.43855469 -405.17125 1019.43179688 -406 1018.39453125 C-406.42796875 1017.85876465 -406.8559375 1017.32299805 -407.296875 1016.77099609 C-409.05427668 1014.60331865 -410.86610717 1012.48537024 -412.68261719 1010.3671875 C-417.0116513 1005.31817957 -421.23005205 1000.19616748 -425.3125 994.9453125 C-425.7468335 994.39246582 -426.18116699 993.83961914 -426.62866211 993.27001953 C-429.625 989.37239397 -429.625 989.37239397 -429.625 987.1328125 C-430.285 987.1328125 -430.945 987.1328125 -431.625 987.1328125 C-432.91845703 985.6550293 -432.91845703 985.6550293 -434.3828125 983.58203125 C-434.92164063 982.82672119 -435.46046875 982.07141113 -436.015625 981.29321289 C-436.58796875 980.47715576 -437.1603125 979.66109863 -437.75 978.8203125 C-438.93991339 977.14569776 -440.13001668 975.47121793 -441.3203125 973.796875 C-441.89426758 972.98508789 -442.46822266 972.17330078 -443.05957031 971.33691406 C-444.88470333 968.76715411 -446.75063423 966.22932631 -448.625 963.6953125 C-475.7721544 926.3039489 -499.55145387 885.48967044 -516.8125 842.5703125 C-517.19220947 841.62704102 -517.57191895 840.68376953 -517.96313477 839.71191406 C-518.7331578 837.76011385 -519.48219374 835.79991941 -520.21135283 833.83248794 C-521.21074927 831.21695378 -522.25429218 828.67720767 -523.37246752 826.11545765 C-529.25965178 811.94954247 -529.62100736 798.63870024 -529.48706471 783.45208161 C-529.46358742 779.88765267 -529.48147678 776.32336746 -529.49377298 772.75891507 C-529.50971602 766.53146804 -529.50002246 760.30448596 -529.47289658 754.07708359 C-529.43267503 744.8173655 -529.43306195 735.55794953 -529.44135682 726.29816352 C-529.45416258 710.71648217 -529.43442257 695.13500317 -529.39567566 679.55337143 C-529.35741362 664.13517888 -529.3333158 648.71707251 -529.32807922 633.29883194 C-529.32774317 632.33837232 -529.32740712 631.37791269 -529.32706088 630.38834823 C-529.32542028 625.51015784 -529.32401996 620.63196741 -529.32270509 615.75377692 C-529.31290274 581.24416038 -529.26993108 546.73465657 -529.20800781 512.22509766 C-529.14792485 478.71468164 -529.10545224 445.20431204 -529.08496094 411.69384766 C-529.08432332 410.6601695 -529.0836857 409.62649135 -529.08302876 408.56148962 C-529.07727166 399.2121386 -529.07165887 389.86278749 -529.06617472 380.51343631 C-529.04443548 343.78495118 -529.00988271 307.0564756 -528.97173777 270.32800422 C-528.96873994 267.42776966 -528.96578938 264.52753506 -528.96284938 261.62730044 C-528.94024104 239.4074274 -528.91391942 217.18756749 -528.87509376 194.9677162 C-528.87211193 193.25706482 -528.86913443 191.54641342 -528.86616135 189.83576202 C-528.86470376 188.9974008 -528.86324617 188.15903958 -528.86174442 187.29527347 C-528.85186053 181.46371533 -528.84454544 175.63215752 -528.83841324 169.80059433 C-528.83108407 162.85146157 -528.82042475 155.90234476 -528.80510098 148.95322481 C-528.79746339 145.45069776 -528.79140864 141.94818711 -528.78963464 138.44565175 C-528.7868789 134.68424067 -528.77807009 130.92289343 -528.76760101 127.16149712 C-528.76822709 126.05905236 -528.76885318 124.9566076 -528.76949823 123.82075542 C-528.76545736 122.8265938 -528.76141649 121.83243218 -528.75725317 120.80814445 C-528.75584297 119.94692678 -528.75443278 119.08570911 -528.75297984 118.19839393 C-528.625 116.1328125 -528.625 116.1328125 -527.625 114.1328125 C-526.01782227 113.25073242 -526.01782227 113.25073242 -523.94140625 112.36328125 C-523.1836792 112.03432861 -522.42595215 111.70537598 -521.64526367 111.36645508 C-520.42867065 110.8486145 -520.42867065 110.8486145 -519.1875 110.3203125 C-511.66687837 107.06071097 -511.66687837 107.06071097 -504.3125 103.4453125 C-499.61779754 101.03342928 -494.75213986 99.21774152 -489.8125 97.37109375 C-487.03270424 96.2911976 -484.37489045 95.10802043 -481.6875 93.8203125 C-474.52029564 90.48819117 -467.04980434 87.94872479 -459.61328125 85.29296875 C-455.73055594 83.9048321 -451.8662658 82.47449482 -448.00997925 81.01451111 C-438.83639518 77.54309586 -429.59569218 74.29807331 -420.3125 71.1328125 C-419.1648819 70.74062531 -419.1648819 70.74062531 -417.99407959 70.34051514 C-391.01962603 61.12737734 -363.76430985 53.35072783 -336.20605469 46.07910156 C-332.97192359 45.22448661 -329.73962919 44.36331548 -326.5078125 43.5 C-295.70586394 35.31130514 -264.409044 28.16697055 -232.921875 23.1640625 C-225.94440752 22.04584947 -218.99965974 20.75533184 -212.05126953 19.47164917 C-189.65725806 15.34185832 -167.23338452 12.26938786 -144.62353516 9.60595703 C-141.05391639 9.18496874 -137.48584503 8.75193433 -133.91796875 8.31640625 C-111.19286684 5.57329546 -88.3081425 3.17295992 -65.42089844 2.42333984 C-64.62973633 2.3970752 -63.83857422 2.37081055 -63.0234375 2.34375 C-62.36005371 2.32618652 -61.69666992 2.30862305 -61.01318359 2.29052734 C-59.06431924 2.161825 -57.12284309 1.92510699 -55.18814087 1.65759277 C-49.8808236 0.98840687 -44.56910463 0.78012341 -39.2265625 0.57861328 C-38.13316559 0.53650286 -37.03976868 0.49439243 -35.91323853 0.45100594 C-23.9421065 0.02403554 -11.97737591 -0.01236247 0 0 Z " fill="#E32535" transform="translate(602.625,113.8671875)"/>
<path d="M0 0 C71.43037975 0 71.43037975 0 82.96875 10.8515625 C93.06523162 21.58976964 94.31115599 35.04416142 94.2746582 49.23779297 C94.27976913 50.28994995 94.28488007 51.34210693 94.29014587 52.42614746 C94.30391627 55.86488719 94.30309466 59.30342367 94.30078125 62.7421875 C94.30467493 65.15772576 94.30901097 67.57326334 94.31376648 69.98880005 C94.32120164 75.0369896 94.32095697 80.08510917 94.31567383 85.13330078 C94.30988148 91.57072887 94.3268181 98.00786902 94.3500185 104.44524956 C94.36481999 109.42983649 94.36561885 114.41435509 94.36250877 119.39896011 C94.36301871 121.77098282 94.36819428 124.14300969 94.37832069 126.51501083 C94.49257507 157.01566313 94.49257507 157.01566313 87 171 C86.47986328 172.04607422 86.47986328 172.04607422 85.94921875 173.11328125 C81.5959365 181.05689938 74.52289098 184.90842074 66.04296875 187.45703125 C44.76143611 193.11311736 22.02033019 189 0 189 C0 126.63 0 64.26 0 0 Z " fill="#FEFCFC" transform="translate(74,734)"/>
<path d="M0 0 C67.8 0 67.8 0 81.1875 9.1875 C89.85978091 17.85978091 93.29965911 28.71179138 93.41769409 40.76750183 C93.41319244 41.8409938 93.4086908 42.91448578 93.40405273 44.02050781 C93.41091599 45.17966202 93.41777924 46.33881622 93.42485046 47.53309631 C93.44305225 51.33989952 93.43928934 55.14628788 93.43359375 58.953125 C93.43700381 60.94357995 93.44042304 62.9340351 93.44494683 64.92448783 C93.45894723 71.17707994 93.45746999 77.42953532 93.44604492 83.68212891 C93.43458399 90.09535749 93.44861515 96.50816688 93.4754414 102.92134023 C93.49772629 108.45974869 93.50420679 113.99802682 93.49836498 119.53647685 C93.49502257 122.83000997 93.49897858 126.12321903 93.51461601 129.41672516 C93.65977723 165.00775062 93.65977723 165.00775062 81 179.25 C60.56262381 199.10345116 22.87491876 189 0 189 C0 126.63 0 64.26 0 0 Z " fill="#FEFBFB" transform="translate(324,234)"/>
<path d="M0 0 C70.9769821 0 70.9769821 0 81.72265625 9.52734375 C91.54740227 20.20641551 93.31026026 33.19814536 93.2746582 47.18432617 C93.27976913 48.24287811 93.28488007 49.30143005 93.29014587 50.39205933 C93.30393902 53.85908818 93.30309245 57.32591587 93.30078125 60.79296875 C93.3046746 63.22756523 93.30901057 65.66216104 93.31376648 68.09675598 C93.32120724 73.1896078 93.32095355 78.28239027 93.31567383 83.37524414 C93.30989066 89.86294844 93.32679316 96.35036619 93.3500185 102.83802319 C93.36483941 107.86472704 93.36561607 112.89136326 93.36250877 117.9180851 C93.36301807 120.30799233 93.36818124 122.69790375 93.37832069 125.08778954 C93.5223864 163.79871707 93.5223864 163.79871707 80.89453125 178.44140625 C60.44912701 198.09070625 22.63997086 189 0 189 C0 126.63 0 64.26 0 0 Z " fill="#FEFDFD" transform="translate(587,492)"/>
<path d="M0 0 C12.87 0 25.74 0 39 0 C42.34513274 13.38053097 42.34513274 13.38053097 43 18.3125 C43.94990317 24.88396127 45.2246646 31.36217623 46.56152344 37.86474609 C47.38326045 41.8663674 48.19361721 45.87025891 49 49.875 C49.16910889 50.71417969 49.33821777 51.55335938 49.51245117 52.41796875 C50.79323868 58.83115609 51.96298769 65.25948432 53.04882812 71.70849609 C53.53680062 74.57216124 54.07929032 77.23787097 55 80 C55.33 53.6 55.66 27.2 56 0 C68.21 0 80.42 0 93 0 C93 62.37 93 124.74 93 189 C80.79 189 68.58 189 56 189 C54.09483251 185.18966501 53.54145231 182.77291141 53 178.625 C52.56716525 175.32463504 52.11771275 172.33990148 51.02734375 169.19140625 C49.66246465 164.95145864 49.14943566 160.71761096 48.5625 156.3125 C47.65620181 149.87133004 46.54830385 143.71031389 44.6796875 137.46875 C43.95065443 134.82076783 43.4873541 132.21310334 43.0625 129.5 C41.66451397 120.94761488 39.78526425 112.48000518 38 104 C37.67 132.05 37.34 160.1 37 189 C24.79 189 12.58 189 0 189 C0 126.63 0 64.26 0 0 Z " fill="#FEFCFC" transform="translate(508,734)"/>
<path d="M0 0 C74.69867211 1.05209397 74.69867211 1.05209397 83.75 9.5 C95.73041475 24.26655771 94.46641461 47.57820637 92.765625 65.46484375 C91.24772909 76.34975523 87.37081288 83.00666018 78.6875 89.8125 C78.130625 90.204375 77.57375 90.59625 77 91 C77.81404297 91.47179687 77.81404297 91.47179687 78.64453125 91.953125 C85.0558072 95.78833872 87.95511349 98.65595563 90 106 C90.17406928 108.80275615 90.25372771 111.50095289 90.22705078 114.30029297 C90.22734283 115.11071548 90.22763489 115.921138 90.22793579 116.75611877 C90.22654937 119.41825296 90.21102074 122.08010258 90.1953125 124.7421875 C90.19157992 126.59449104 90.18873411 128.44679656 90.18673706 130.29910278 C90.17911988 135.16200257 90.15948787 140.02478191 90.1373291 144.88763428 C90.11322182 150.72887686 90.10408057 156.57015984 90.09242249 162.41143799 C90.07306235 171.27437563 90.03472641 180.13704925 90 189 C77.79 189 65.58 189 53 189 C52.95101562 183.42738281 52.90203125 177.85476563 52.8515625 172.11328125 C52.8161739 168.58136213 52.78021262 165.04946744 52.7421875 161.51757812 C52.68189709 155.91255199 52.62371932 150.30756003 52.578125 144.70239258 C52.54123008 140.18300682 52.49485861 135.66380825 52.44193649 131.14458275 C52.42341492 129.42106602 52.4082987 127.69750919 52.39665604 125.97393227 C52.37975526 123.55835457 52.35071125 121.1432035 52.31884766 118.7277832 C52.31668747 118.01640198 52.31452728 117.30502075 52.31230164 116.57208252 C52.24628841 112.65050413 51.95720882 109.44298142 50 106 C46.63384485 104.65725128 46.63384485 104.65725128 43 104 C41.68 103.67 40.36 103.34 39 103 C39 131.38 39 159.76 39 189 C26.13 189 13.26 189 0 189 C0 126.63 0 64.26 0 0 Z " fill="#FEFDFD" transform="translate(74,234)"/>
<path d="M0 0 C12.21 0 24.42 0 37 0 C37 22.11 37 44.22 37 67 C42.94 67 48.88 67 55 67 C55 44.89 55 22.78 55 0 C67.21 0 79.42 0 92 0 C92 62.04 92 124.08 92 188 C79.79 188 67.58 188 55 188 C55 159.95 55 131.9 55 103 C49.06 103 43.12 103 37 103 C37 131.05 37 159.1 37 188 C24.79 188 12.58 188 0 188 C0 125.96 0 63.92 0 0 Z " fill="#FEFEFE" transform="translate(194,492)"/>
<path d="M0 0 C0.57105469 0.44988281 1.14210938 0.89976562 1.73046875 1.36328125 C2.33246094 1.78222656 2.93445313 2.20117188 3.5546875 2.6328125 C13.36654817 10.01831283 17.03593389 22.68095858 18.73046875 34.36328125 C18.73046875 39.31328125 18.73046875 44.26328125 18.73046875 49.36328125 C5.86046875 49.36328125 -7.00953125 49.36328125 -20.26953125 49.36328125 C-20.59953125 43.75328125 -20.92953125 38.14328125 -21.26953125 32.36328125 C-25.46250658 29.21854975 -26.31798466 28.74433793 -31.26953125 29.36328125 C-33.50319331 30.5085197 -33.50319331 30.5085197 -35.26953125 32.36328125 C-35.86507499 34.65989031 -35.86507499 34.65989031 -35.70703125 37.17578125 C-35.70509766 38.42294922 -35.70509766 38.42294922 -35.703125 39.6953125 C-33.79318759 51.44744993 -20.61375589 61.5040201 -12.26953125 69.36328125 C-11.27953125 69.85828125 -11.27953125 69.85828125 -10.26953125 70.36328125 C-10.26953125 71.02328125 -10.26953125 71.68328125 -10.26953125 72.36328125 C-9.41101563 72.73453125 -9.41101563 72.73453125 -8.53515625 73.11328125 C4.64758714 80.38651898 14.64047031 97.35059096 18.73046875 111.36328125 C19.96601319 117.63484228 19.8790152 123.87289032 19.85546875 130.23828125 C19.85933594 131.27597656 19.86320312 132.31367187 19.8671875 133.3828125 C19.84728239 149.16756814 17.1620908 164.02566595 6.14453125 176.1015625 C-2.62290384 184.39563842 -13.47828318 185.5438705 -24.95703125 185.55078125 C-26.00826172 185.56302734 -27.05949219 185.57527344 -28.14257812 185.58789062 C-42.40645215 185.61451889 -51.4851483 182.23458454 -62.0703125 172.6796875 C-66.03617896 168.50249601 -67.94707935 163.98968221 -69.89453125 158.61328125 C-70.31992188 157.4634375 -70.7453125 156.31359375 -71.18359375 155.12890625 C-73.4071326 147.41850536 -73.42423034 139.56663299 -73.4465332 131.58959961 C-73.4531044 130.55084686 -73.4596756 129.51209412 -73.46644592 128.44186401 C-73.48603801 125.02895007 -73.49781049 121.61607986 -73.5078125 118.203125 C-73.51188803 117.02879976 -73.51596355 115.85447453 -73.52016258 114.64456367 C-73.54096422 108.42751369 -73.5552909 102.21048538 -73.56469727 95.9934082 C-73.5757441 89.61097407 -73.61014175 83.22889021 -73.64986897 76.84657955 C-73.67615634 71.90395002 -73.68439987 66.96140245 -73.68797874 62.01870918 C-73.69281401 59.66785888 -73.7043392 57.31701147 -73.72301674 54.96623039 C-73.99538946 18.41129422 -73.99538946 18.41129422 -61.05859375 5.0859375 C-46.07094438 -8.68178692 -17.35262598 -12.54272965 0 0 Z " fill="#FEFCFC" transform="translate(147.26953125,496.63671875)"/>
<path d="M0 0 C1.21300781 -0.03738281 2.42601562 -0.07476563 3.67578125 -0.11328125 C16.36018094 -0.23511647 26.41759457 3.12141753 35.53515625 12.046875 C46.79436824 24.58984761 47.625 38.93458259 47.625 55.375 C34.755 55.375 21.885 55.375 8.625 55.375 C8.13 47.95 8.13 47.95 7.625 40.375 C6.965 39.055 6.305 37.735 5.625 36.375 C4.00036158 36.32104522 2.37521459 36.28222805 0.75 36.25 C-0.60738281 36.21519531 -0.60738281 36.21519531 -1.9921875 36.1796875 C-4.56306994 36.13175164 -4.56306994 36.13175164 -6.375 38.375 C-7.42034428 44.25506159 -7.00788103 49.16851788 -3.6875 54.1875 C-2.61072765 55.60457305 -1.5075275 57.00207751 -0.375 58.375 C0.0890625 58.97570312 0.553125 59.57640625 1.03125 60.1953125 C3.06982179 62.76838787 4.87381489 64.54087659 7.625 66.375 C7.625 67.035 7.625 67.695 7.625 68.375 C8.17373779 68.6006665 8.72247559 68.82633301 9.2878418 69.05883789 C14.14448996 71.79384158 17.8742961 76.2525159 21.79614258 80.17553711 C23.41137628 81.78644622 25.04183704 83.38070385 26.67382812 84.97460938 C34.71992416 92.93182555 41.48033954 101.27166484 45.5 112 C45.88929688 113.00289062 46.27859375 114.00578125 46.6796875 115.0390625 C51.83315009 133.22524867 50.35191831 156.60431443 41.8125 173.5 C37.21237216 181.09770487 31.86069733 186.05256484 23.625 189.375 C22.46226562 189.89707031 21.29953125 190.41914062 20.1015625 190.95703125 C14.78637633 192.92370548 9.54885446 192.86844615 3.9375 192.8125 C2.87257324 192.80420166 1.80764648 192.79590332 0.71044922 192.78735352 C-11.70938734 192.52098395 -21.89433198 189.87433571 -31.375 181.375 C-37.16019813 175.10590984 -40.03945924 169.36021748 -41.9375 161.0625 C-42.18628906 159.99386719 -42.43507813 158.92523437 -42.69140625 157.82421875 C-44.38558998 149.2758517 -44.49673039 141.07190897 -44.4375 132.375 C-44.416875 128.085 -44.39625 123.795 -44.375 119.375 C-31.835 119.375 -19.295 119.375 -6.375 119.375 C-6.125 134.5 -6.125 134.5 -6.07714844 139.23876953 C-6.0465332 140.48255371 -6.01591797 141.72633789 -5.984375 143.0078125 C-5.96342773 144.27512207 -5.94248047 145.54243164 -5.92089844 146.84814453 C-5.28584421 150.95100384 -3.96724203 153.16749052 -1.375 156.375 C1.64478612 157.45308103 3.34084363 156.89629466 6.625 156.375 C8.78093497 154.57675424 9.52195057 153.08981532 9.92163086 150.31738281 C10.0676945 147.76686697 10.08308562 145.24198823 10.0625 142.6875 C10.08248047 141.82705078 10.10246094 140.96660156 10.12304688 140.08007812 C10.11313671 126.9292907 2.58427781 118.26209657 -6.31005859 109.33657837 C-10.13144704 105.54317318 -13.98131273 101.77922491 -17.84130859 98.02514648 C-30.39233671 85.79283975 -43.12855865 72.87149163 -43.67578125 54.35546875 C-43.69030433 52.09118904 -43.69392177 49.82681718 -43.6875 47.5625 C-43.70361328 46.43779297 -43.71972656 45.31308594 -43.73632812 44.15429688 C-43.74409759 30.78304953 -39.90251539 19.39953653 -30.80078125 9.4921875 C-21.55695283 1.42430504 -11.73281252 0.13291549 0 0 Z " fill="#FEFCFC" transform="translate(671.375,732.625)"/>
<path d="M0 0 C25.08 0 50.16 0 76 0 C76 12.21 76 24.42 76 37 C63.79 37 51.58 37 39 37 C39 48.88 39 60.76 39 73 C50.88 73 62.76 73 75 73 C75 84.88 75 96.76 75 109 C63.12 109 51.24 109 39 109 C39 123.19 39 137.38 39 152 C52.2 152 65.4 152 79 152 C79 164.21 79 176.42 79 189 C52.93 189 26.86 189 0 189 C0 126.63 0 64.26 0 0 Z " fill="#FEFAFB" transform="translate(746,734)"/>
<path d="M0 0 C25.08 0 50.16 0 76 0 C76 12.21 76 24.42 76 37 C63.79 37 51.58 37 39 37 C39 48.88 39 60.76 39 73 C50.55 73 62.1 73 74 73 C74 84.88 74 96.76 74 109 C62.45 109 50.9 109 39 109 C39 123.19 39 137.38 39 152 C52.2 152 65.4 152 79 152 C79 164.21 79 176.42 79 189 C52.93 189 26.86 189 0 189 C0 126.63 0 64.26 0 0 Z " fill="#FEFCFC" transform="translate(403,734)"/>
<path d="M0 0 C25.08 0 50.16 0 76 0 C76 11.88 76 23.76 76 36 C63.46 36 50.92 36 38 36 C38 48.21 38 60.42 38 73 C50.21 73 62.42 73 75 73 C75 84.88 75 96.76 75 109 C63.12 109 51.24 109 39 109 C39 123.19 39 137.38 39 152 C51.87 152 64.74 152 78 152 C78 164.21 78 176.42 78 189 C52.26 189 26.52 189 0 189 C0 126.63 0 64.26 0 0 Z " fill="#FEFCFC" transform="translate(381,492)"/>
<path d="M0 0 C25.08 0 50.16 0 76 0 C76 12.21 76 24.42 76 37 C63.79 37 51.58 37 39 37 C39 48.88 39 60.76 39 73 C50.55 73 62.1 73 74 73 C74 84.88 74 96.76 74 109 C62.12 109 50.24 109 38 109 C38 123.19 38 137.38 38 152 C51.2 152 64.4 152 78 152 C78 164.21 78 176.42 78 189 C52.26 189 26.52 189 0 189 C0 126.63 0 64.26 0 0 Z " fill="#FEFCFC" transform="translate(197,734)"/>
<path d="M0 0 C25.41 0 50.82 0 77 0 C77 12.21 77 24.42 77 37 C64.46 37 51.92 37 39 37 C39 46.9 39 56.8 39 67 C50.55 67 62.1 67 74 67 C74 79.21 74 91.42 74 104 C62.45 104 50.9 104 39 104 C39 132.05 39 160.1 39 189 C26.13 189 13.26 189 0 189 C0 126.63 0 64.26 0 0 Z " fill="#FEFAFA" transform="translate(301,734)"/>
<path d="M0 0 C12.54 0 25.08 0 38 0 C38 51.48 38 102.96 38 156 C50.87 156 63.74 156 77 156 C77 166.89 77 177.78 77 189 C51.59 189 26.18 189 0 189 C0 126.63 0 64.26 0 0 Z " fill="#FEFBFC" transform="translate(486,492)"/>
<path d="M0 0 C12.21 0 24.42 0 37 0 C37 62.37 37 124.74 37 189 C24.79 189 12.58 189 0 189 C0 126.63 0 64.26 0 0 Z " fill="#FEFBFB" transform="translate(315,492)"/>
<path d="M0 0 C38.28 0 76.56 0 116 0 C116 12.21 116 24.42 116 37 C77.72 37 39.44 37 0 37 C0 24.79 0 12.58 0 0 Z " fill="#FEF9FA" transform="translate(186,387)"/>
<path d="M0 0 C38.28 0 76.56 0 116 0 C116 12.21 116 24.42 116 37 C77.72 37 39.44 37 0 37 C0 24.79 0 12.58 0 0 Z " fill="#FEF9F9" transform="translate(186,311)"/>
<path d="M0 0 C38.28 0 76.56 0 116 0 C116 11.88 116 23.76 116 36 C77.72 36 39.44 36 0 36 C0 24.12 0 12.24 0 0 Z " fill="#FEFCFC" transform="translate(186,235)"/>
<path d="M0 0 C0.96679688 0.37898437 1.93359375 0.75796875 2.9296875 1.1484375 C4.38761719 1.75558594 4.38761719 1.75558594 5.875 2.375 C6.84179688 2.77460938 7.80859375 3.17421875 8.8046875 3.5859375 C12.60270842 5.26672427 16.30091884 7.11338622 20 9 C20.96287004 36.98618807 20.96287004 36.98618807 11.0078125 48.98828125 C6.8593109 53.14485387 1.33622758 57.43040017 -4.5625 58.4375 C-12.26583389 57.45707569 -17.81356665 51.66354012 -22.56640625 45.87890625 C-28.77041826 37.74776245 -29.27738517 30.57692398 -29.125 20.625 C-29.11597656 19.50738281 -29.10695313 18.38976562 -29.09765625 17.23828125 C-29.07418346 14.49196538 -29.04134728 11.74609528 -29 9 C-28.01 8.54109375 -27.02 8.0821875 -26 7.609375 C-25.36376709 7.31345459 -24.72753418 7.01753418 -24.07202148 6.71264648 C-22.68717248 6.06925546 -21.30125849 5.42815196 -19.91430664 4.78930664 C-16.33375912 3.13079195 -12.86847094 1.3913406 -9.4375 -0.5625 C-5.17380561 -2.34549947 -4.19116688 -1.64634436 0 0 Z " fill="#FEF8F8" transform="translate(477,205)"/>
<path d="M0 0 C11.8 0 11.8 0 15 3 C17.40162686 8.36532324 17.28327694 13.47970478 17.25878906 19.24047852 C17.2622937 20.25744812 17.26579834 21.27441772 17.26940918 22.32220459 C17.27819192 25.67450847 17.2723899 29.02660032 17.265625 32.37890625 C17.26697254 34.71247905 17.26891381 37.04605157 17.27142334 39.37962341 C17.27436983 44.26604897 17.27009176 49.15240132 17.26074219 54.03881836 C17.24934168 60.3023768 17.25591401 66.56576396 17.26788712 72.82931614 C17.27511308 77.64626863 17.27281448 82.46318049 17.26763153 87.2801342 C17.26629741 89.5898128 17.26793445 91.89949509 17.27259064 94.20916939 C17.27766857 97.4358511 17.26992784 100.662255 17.25878906 103.88891602 C17.26283752 104.84334091 17.26688599 105.79776581 17.27105713 106.78111267 C17.21825384 115.03624645 17.21825384 115.03624645 15 119 C10.18199252 123.36631928 7.25500539 122 0 122 C0 81.74 0 41.48 0 0 Z " fill="#E32637" transform="translate(625,525)"/>
<path d="M0 0 C3.96 0 7.92 0 12 0 C15.5964273 3.5964273 16.12010539 5.6396867 16.15390015 10.50314331 C16.16250061 11.42559845 16.17110107 12.34805359 16.17996216 13.29846191 C16.18422211 14.3084021 16.18848206 15.31834229 16.19287109 16.35888672 C16.20104858 17.4241861 16.20922607 18.48948547 16.21765137 19.58706665 C16.24249697 23.11793452 16.25901723 26.64876229 16.2734375 30.1796875 C16.27876118 31.38427738 16.28408485 32.58886726 16.28956985 33.82995987 C16.31629477 40.20287693 16.33567388 46.57577443 16.35009766 52.94873047 C16.36676531 59.53875675 16.41156341 66.12828488 16.4624691 72.71812248 C16.49607725 77.77955722 16.50766793 82.84087261 16.51332474 87.9024086 C16.52005241 90.33214257 16.53531346 92.76186827 16.55921555 95.19149399 C16.59073736 98.58885468 16.59092302 101.98485646 16.58349609 105.38232422 C16.59990143 106.38821594 16.61630676 107.39410767 16.63320923 108.43048096 C16.59419048 112.78381074 16.37732337 115.35439572 14.15103149 119.16360474 C11 121 11 121 0 121 C0 81.07 0 41.14 0 0 Z " fill="#E32234" transform="translate(113,768)"/>
<path d="M0 0 C11 0 11 0 14.14706421 1.8326416 C16.84671696 6.4473551 16.69959313 10.41576516 16.64697266 15.67773438 C16.66011505 17.29075188 16.66011505 17.29075188 16.67352295 18.93635559 C16.69552081 22.48923142 16.68096152 26.04086162 16.6640625 29.59375 C16.66743049 32.06327554 16.67228296 34.53279947 16.67855835 37.00231934 C16.68593026 42.1773253 16.67521311 47.35189968 16.65185547 52.52685547 C16.62336846 59.16178489 16.63977059 65.79570308 16.66971779 72.4305954 C16.68778158 77.52984238 16.68203674 82.62884944 16.66907883 87.72810364 C16.66574232 90.1745465 16.66984041 92.62101112 16.68147659 95.06742859 C16.69416923 98.48629491 16.67482758 101.90352151 16.64697266 105.32226562 C16.65709381 106.334366 16.66721497 107.34646637 16.67764282 108.38923645 C16.61178578 112.75017214 16.37814393 115.35361099 14.14706421 119.1673584 C11 121 11 121 0 121 C0 81.07 0 41.14 0 0 Z " fill="#E22133" transform="translate(363,268)"/>
<path d="M0 0 C2.12078843 3.18118264 3.01960219 5.93125458 4.1875 9.5625 C9.04370562 23.64314682 19.66359562 33.88578981 30.16497803 44.05625916 C32.22338535 46.05007427 34.27191084 48.05395942 36.32177734 50.05654907 C37.83712812 51.52578074 39.369007 52.97609961 40.90234375 54.42651367 C48.46922915 61.71212822 54.94886023 69.52988182 55.65625 80.40625 C55.6355355 82.104839 55.58378508 83.8033522 55.5 85.5 C55.4896875 86.36625 55.479375 87.2325 55.46875 88.125 C55.36595608 92.28815382 55.22562942 95.37495172 53 99 C49.80249299 100.59875351 46.47041009 100.50166324 43 100 C39.75937762 97.67339931 38.68791516 95.84048271 38 92 C37.91826655 89.75646063 37.89249723 87.51063108 37.90234375 85.265625 C37.90556641 83.97011719 37.90878906 82.67460938 37.91210938 81.33984375 C37.92046402 79.97656183 37.92892896 78.61328058 37.9375 77.25 C37.94251832 75.87109535 37.94708065 74.49218896 37.95117188 73.11328125 C37.96295907 69.74214341 37.97941365 66.37109372 38 63 C36.88439697 63.00523682 35.76879395 63.01047363 34.61938477 63.01586914 C30.49520667 63.03391775 26.37103209 63.04543149 22.24682617 63.05493164 C20.45905979 63.05997218 18.67129755 63.06680454 16.88354492 63.07543945 C14.31948832 63.0875173 11.75548603 63.09323094 9.19140625 63.09765625 C7.98515343 63.10539818 7.98515343 63.10539818 6.75453186 63.11329651 C4.83598285 63.11349215 2.91754632 63.06201983 1 63 C0 62 0 62 -0.12025452 59.52598572 C-0.11803391 58.42678299 -0.11581329 57.32758026 -0.11352539 56.19506836 C-0.11344986 54.95385727 -0.11337433 53.71264618 -0.11329651 52.43382263 C-0.10818911 51.0691626 -0.1029731 49.70450298 -0.09765625 48.33984375 C-0.095792 46.95121817 -0.09436813 45.56259193 -0.09336853 44.17396545 C-0.08954387 40.51278885 -0.07971403 36.8516517 -0.06866455 33.19049072 C-0.05844932 29.45707737 -0.05387067 25.72365766 -0.04882812 21.99023438 C-0.03809171 14.66013823 -0.02101591 7.33007464 0 0 Z " fill="#E22534" transform="translate(74,547)"/>
<path d="M0 0 C4.05926512 2.30566259 6.82090855 5.16658126 8.75 9.4375 C9.33807647 14.22612266 8.75211497 18.05191484 6.75 22.4375 C3.30138213 26.67437338 -0.00808981 28.89070683 -5.25 30.4375 C-10.70857298 30.57417788 -16.03067789 30.16043127 -20.25 26.4375 C-23.90301749 21.08222605 -25.78489055 16.96316473 -25.25 10.4375 C-23.38963579 5.58437599 -20.5904034 2.33110227 -16.25 -0.5625 C-10.75011677 -2.39579441 -5.3413828 -2.37169559 0 0 Z " fill="#FDF2F3" transform="translate(571.25,980.5625)"/>
<path d="M0 0 C4.2384375 -0.0928125 4.2384375 -0.0928125 8.5625 -0.1875 C9.43849854 -0.21481201 10.31449707 -0.24212402 11.21704102 -0.27026367 C16.57321594 -0.32651712 20.27115708 0.43362402 25 3 C26.38550197 5.77100394 26.1877467 7.9334706 26 11 C25.01 12.485 25.01 12.485 24 14 C23.34 14 22.68 14 22 14 C22 14.66 22 15.32 22 16 C22.639375 16.12375 23.27875 16.2475 23.9375 16.375 C24.9584375 16.684375 24.9584375 16.684375 26 17 C27.56935594 20.13871188 27.35201103 22.53855822 27 26 C25.18359375 28.7109375 25.18359375 28.7109375 22 31 C18.20530264 31.61085189 14.51821802 31.47058602 10.6875 31.3125 C7.160625 31.209375 3.63375 31.10625 0 31 C0 20.77 0 10.54 0 0 Z " fill="#FDF2F3" transform="translate(707,979)"/>
<path d="M0 0 C18.75770192 -0.58617818 18.75770192 -0.58617818 25 4 C27.06950839 7.47455923 27.48634492 9.94712567 27 14 C26.319375 15.010625 25.63875 16.02125 24.9375 17.0625 C22.74508651 19.77899571 22.74508651 19.77899571 23.0625 22.625 C24.05323334 25.13485779 25.33128167 26.89596385 27 29 C27 29.66 27 30.32 27 31 C24.03 31 21.06 31 18 31 C17.46375 29.865625 16.9275 28.73125 16.375 27.5625 C14.63257149 24.45370668 14.37723731 24.10881846 10.75 23.0625 C9.38875 23.0315625 9.38875 23.0315625 8 23 C8 25.64 8 28.28 8 31 C5.36 31 2.72 31 0 31 C0 20.77 0 10.54 0 0 Z " fill="#FDF5F5" transform="translate(779,979)"/>
<path d="M0 0 C2.825625 -0.0825 5.65125 -0.165 8.5625 -0.25 C9.43849854 -0.28641602 10.31449707 -0.32283203 11.21704102 -0.36035156 C16.98153091 -0.44107395 20.28345078 0.65317138 25 4 C26.29004296 6.58008592 26.20410224 8.55741574 26.25 11.4375 C26.27578125 12.40558594 26.3015625 13.37367188 26.328125 14.37109375 C25.94768107 17.41917429 25.22925706 18.03023318 23 20 C23.20034666 23.9067598 24.6223639 26.002111 27 29 C27 29.66 27 30.32 27 31 C24.03 31 21.06 31 18 31 C17.46375 29.865625 16.9275 28.73125 16.375 27.5625 C14.63257149 24.45370668 14.37723731 24.10881846 10.75 23.0625 C9.38875 23.0315625 9.38875 23.0315625 8 23 C8 25.64 8 28.28 8 31 C5.36 31 2.72 31 0 31 C0 20.77 0 10.54 0 0 Z " fill="#FDF4F5" transform="translate(959,979)"/>
<path d="M0 0 C2.84625 -0.061875 5.6925 -0.12375 8.625 -0.1875 C9.51010254 -0.21481201 10.39520508 -0.24212402 11.30712891 -0.27026367 C16.28219813 -0.32233226 19.7215708 0.17623673 24 3 C26.8277772 7.2416658 26.66437928 11.01715536 26 16 C24.91077993 18.41049138 23.72315725 19.95375076 22 22 C23.65 24.97 25.3 27.94 27 31 C24.03 31 21.06 31 18 31 C17.46375 29.865625 16.9275 28.73125 16.375 27.5625 C14.63257149 24.45370668 14.37723731 24.10881846 10.75 23.0625 C9.38875 23.0315625 9.38875 23.0315625 8 23 C8 25.64 8 28.28 8 31 C5.36 31 2.72 31 0 31 C0 20.77 0 10.54 0 0 Z " fill="#FDF5F6" transform="translate(464,979)"/>
<path d="M0 0 C18.53521127 -0.57922535 18.53521127 -0.57922535 25 4 C26.85110583 7.70221166 26.46454795 11.95906917 26 16 C23.87206653 19.64788595 21.86075443 21.4193288 18 23 C15.640625 23.1953125 15.640625 23.1953125 13.25 23.125 C12.45078125 23.10695313 11.6515625 23.08890625 10.828125 23.0703125 C10.22484375 23.04710937 9.6215625 23.02390625 9 23 C9 25.64 9 28.28 9 31 C6.03 31 3.06 31 0 31 C0 20.77 0 10.54 0 0 Z " fill="#FCEFF0" transform="translate(389,979)"/>
<path d="M0 0 C2.97 0 5.94 0 9 0 C19.45215361 21.94593077 19.45215361 21.94593077 21 31 C18.36 31 15.72 31 13 31 C12.34 29.35 11.68 27.7 11 26 C6.38 26 1.76 26 -3 26 C-3.33 27.65 -3.66 29.3 -4 31 C-6.97 31 -9.94 31 -13 31 C-11.39643012 27.14558477 -9.79203688 23.29151277 -8.1875 19.4375 C-7.50977539 17.80844727 -7.50977539 17.80844727 -6.81835938 16.14648438 C-4.57224077 10.75252072 -2.31650701 5.36413749 0 0 Z " fill="#FDF2F3" transform="translate(434,979)"/>
<path d="M0 0 C8.25 0 16.5 0 25 0 C25 2.31 25 4.62 25 7 C19.39 7 13.78 7 8 7 C8 8.65 8 10.3 8 12 C12.95 12 17.9 12 23 12 C23 14.31 23 16.62 23 19 C18.05 19 13.1 19 8 19 C8 20.98 8 22.96 8 25 C13.61 25 19.22 25 25 25 C25 26.98 25 28.96 25 31 C16.75 31 8.5 31 0 31 C0 20.77 0 10.54 0 0 Z " fill="#FCF0F1" transform="translate(744,979)"/>
<path d="M0 0 C7.92 0 15.84 0 24 0 C24 2.31 24 4.62 24 7 C18.72 7 13.44 7 8 7 C8 8.65 8 10.3 8 12 C12.62 12 17.24 12 22 12 C22 14.31 22 16.62 22 19 C17.38 19 12.76 19 8 19 C8 20.98 8 22.96 8 25 C13.61 25 19.22 25 25 25 C25 26.98 25 28.96 25 31 C16.75 31 8.5 31 0 31 C0 20.77 0 10.54 0 0 Z " fill="#FDF3F3" transform="translate(850,979)"/>
<path d="M0 0 C3.96 0 7.92 0 12 0 C17.41945955 5.41945955 17.15807719 8.80425214 17.25 16.25 C17.21026946 23.02405648 17.02400655 29.97599345 12 35 C8.04 35 4.08 35 0 35 C0 23.45 0 11.9 0 0 Z " fill="#E32A3B" transform="translate(113,269)"/>
<path d="M0 0 C2.64 0 5.28 0 8 0 C8.01981934 0.62044189 8.03963867 1.24088379 8.06005859 1.88012695 C8.15531845 4.69134537 8.26499302 7.50182166 8.375 10.3125 C8.4059375 11.28896484 8.436875 12.26542969 8.46875 13.27148438 C8.50742187 14.20927734 8.54609375 15.14707031 8.5859375 16.11328125 C8.6173584 16.97735596 8.6487793 17.84143066 8.68115234 18.73168945 C8.87188037 21.27742445 8.87188037 21.27742445 11 24 C14 24.5 14 24.5 17 24 C19.12280563 20.81579155 19.28019537 19.79462745 19.4140625 16.11328125 C19.45273437 15.17548828 19.49140625 14.23769531 19.53125 13.27148438 C19.57765625 11.80678711 19.57765625 11.80678711 19.625 10.3125 C19.66367187 9.32443359 19.70234375 8.33636719 19.7421875 7.31835938 C19.83645867 4.87909293 19.92206218 2.43983405 20 0 C22.64 0 25.28 0 28 0 C28.11643304 3.89558088 28.18732909 7.79071258 28.25 11.6875 C28.30027344 13.34168945 28.30027344 13.34168945 28.3515625 15.02929688 C28.45054104 23.2197712 28.45054104 23.2197712 26.1796875 27.15234375 C21.54714 31.07921645 17.84515485 32.30175052 11.875 31.9375 C7.56761273 31.3417975 5.04466436 30.23495588 2 27 C-0.26598448 23.60102327 -0.23742654 22.43680827 -0.1953125 18.45703125 C-0.18886719 17.38388672 -0.18242188 16.31074219 -0.17578125 15.20507812 C-0.15064453 13.52575195 -0.15064453 13.52575195 -0.125 11.8125 C-0.11597656 10.68134766 -0.10695313 9.55019531 -0.09765625 8.38476562 C-0.07406862 5.58963172 -0.041153 2.79492155 0 0 Z " fill="#FDF4F4" transform="translate(920,979)"/>
<path d="M0 0 C3.6875 1.5 3.6875 1.5 6 3 C5.34 4.98 4.68 6.96 4 9 C-0.62 8.34 -5.24 7.68 -10 7 C-9.67 7.99 -9.34 8.98 -9 10 C-6.30674785 11.17078565 -3.56670556 11.97475436 -0.76171875 12.83984375 C2.32252371 14.13548733 3.93197373 15.38242829 6 18 C6.72771233 20.73962288 6.57971577 23.23214139 6 26 C4.12984906 28.43119623 2.71861655 29.64069173 0 31 C-13.41450401 32.04908301 -13.41450401 32.04908301 -17.875 29 C-18.57625 28.34 -19.2775 27.68 -20 27 C-19.34 25.02 -18.68 23.04 -18 21 C-12.25 22.875 -12.25 22.875 -10 24 C-7.6670134 24.04022391 -5.33293334 24.04320247 -3 24 C-3 23.01 -3 22.02 -3 21 C-3.91523437 20.67386719 -4.83046875 20.34773437 -5.7734375 20.01171875 C-6.96195313 19.57472656 -8.15046875 19.13773438 -9.375 18.6875 C-10.55835938 18.25824219 -11.74171875 17.82898438 -12.9609375 17.38671875 C-16 16 -16 16 -18 13 C-18.57508897 7.82419929 -18.57508897 7.82419929 -18 5 C-12.58747516 -0.5549597 -7.42315569 -0.62642664 0 0 Z " fill="#FDF3F4" transform="translate(834,979)"/>
<path d="M0 0 C7.92 0 15.84 0 24 0 C24 2.31 24 4.62 24 7 C19.05 7 14.1 7 9 7 C9 8.98 9 10.96 9 13 C10.39025391 12.98259766 10.39025391 12.98259766 11.80859375 12.96484375 C13.00613281 12.95582031 14.20367188 12.94679688 15.4375 12.9375 C16.63246094 12.92589844 17.82742188 12.91429687 19.05859375 12.90234375 C22 13 22 13 23 14 C23 15.98 23 17.96 23 20 C18.38 20 13.76 20 9 20 C9 23.63 9 27.26 9 31 C6.03 31 3.06 31 0 31 C0 20.77 0 10.54 0 0 Z " fill="#FBE7E8" transform="translate(1098,979)"/>
<path d="M0 0 C1.92415787 0.95188022 3.79291302 2.01417212 5.6484375 3.09375 C5.27734375 5.015625 5.27734375 5.015625 4.6484375 7.09375 C2.5859375 8.34375 2.5859375 8.34375 0.6484375 9.09375 C-0.3415625 8.43375 -1.3315625 7.77375 -2.3515625 7.09375 C-5.84089294 6.55205959 -9.16530679 6.50062214 -12.3515625 8.09375 C-13.97980418 11.35023337 -13.84677275 14.57775722 -13.3515625 18.09375 C-12.55582737 20.71135705 -12.55582737 20.71135705 -10.3515625 22.09375 C-5.38573845 22.57431362 -1.87709911 22.35651831 2.6484375 20.09375 C3.6384375 21.41375 4.6284375 22.73375 5.6484375 24.09375 C4.98674615 26.49238114 4.16809994 27.78543353 2.015625 29.0625 C-4.35420752 31.76031142 -9.08750806 31.28638528 -15.6015625 28.90625 C-19.16172674 26.55977812 -20.56648712 25.00718448 -22.3515625 21.09375 C-23.10129334 15.5166706 -23.09923638 10.76853948 -20.7890625 5.59375 C-14.84139158 -0.5064253 -8.23483773 -3.17355873 0 0 Z " fill="#FDF2F3" transform="translate(657.3515625,979.90625)"/>
<path d="M0 0 C1.9266357 0.94802709 3.7963722 2.01000576 5.65234375 3.08984375 C5.07889438 5.95709061 4.79089225 6.95129525 2.65234375 9.08984375 C-0.88337054 8.55412946 -0.88337054 8.55412946 -2.34765625 7.08984375 C-7.51621381 6.4838688 -7.51621381 6.4838688 -12.08203125 8.32421875 C-13.67788375 10.5505315 -13.74985945 11.86952385 -13.72265625 14.58984375 C-13.73039063 15.36328125 -13.738125 16.13671875 -13.74609375 16.93359375 C-13.25007144 19.61794977 -12.54968054 20.50338534 -10.34765625 22.08984375 C-5.38604573 22.48997363 -1.86958786 22.35080955 2.65234375 20.08984375 C3.64234375 21.40984375 4.63234375 22.72984375 5.65234375 24.08984375 C5.15234375 25.90234375 5.15234375 25.90234375 3.65234375 28.08984375 C-1.36073945 30.64035976 -5.49772361 31.72663901 -11.09765625 30.87109375 C-15.31907906 29.40532194 -18.47398508 26.44734731 -21.34765625 23.08984375 C-23.14361113 17.70197912 -22.98275571 12.19361072 -21.34765625 6.77734375 C-16.0616182 -0.32576988 -8.44388989 -3.27358793 0 0 Z " fill="#FDF3F4" transform="translate(905.34765625,979.91015625)"/>
<path d="M0 0 C7.59 0 15.18 0 23 0 C23 2.31 23 4.62 23 7 C18.05 7 13.1 7 8 7 C8 8.98 8 10.96 8 13 C12.62 13 17.24 13 22 13 C22 15.31 22 17.62 22 20 C17.38 20 12.76 20 8 20 C8 23.63 8 27.26 8 31 C5.36 31 2.72 31 0 31 C0 20.77 0 10.54 0 0 Z " fill="#FCF1F2" transform="translate(589,979)"/>
<path d="M0 0 C8.91 0 17.82 0 27 0 C27 2.31 27 4.62 27 7 C24.03 7 21.06 7 18 7 C18 14.92 18 22.84 18 31 C15.03 31 12.06 31 9 31 C9 23.08 9 15.16 9 7 C6.03 7 3.06 7 0 7 C0 4.69 0 2.38 0 0 Z " fill="#FBEBEC" transform="translate(1012,979)"/>
<path d="M0 0 C5.08692247 -0.8770556 5.08692247 -0.8770556 8 0 C10.82628082 3.2638222 14 7.54362632 14 12 C16.54131358 9.69716746 18.07110295 7.32686207 19.6875 4.3125 C20.12449219 3.50425781 20.56148437 2.69601562 21.01171875 1.86328125 C21.33785156 1.24839844 21.66398438 0.63351562 22 0 C24.64 0 27.28 0 30 0 C28.54129364 3.80806515 26.83985619 7.42418438 25 11.0625 C24.484375 12.08472656 23.96875 13.10695313 23.4375 14.16015625 C22.60571001 15.80339355 21.7540719 17.43748434 20.8515625 19.04296875 C19.7950922 21.47091195 19.58293186 23.61619647 19.375 26.25 C19.30023437 27.14203125 19.22546875 28.0340625 19.1484375 28.953125 C19.09945312 29.62859375 19.05046875 30.3040625 19 31 C16.36 31 13.72 31 11 31 C10.96003906 30.2471875 10.92007813 29.494375 10.87890625 28.71875 C9.96657192 19.43771933 6.6958592 13.09977457 1.8984375 5.23828125 C0 2 0 2 0 0 Z " fill="#FDF3F4" transform="translate(669,979)"/>
<path d="M0 0 C5.09024422 -0.87762831 5.09024422 -0.87762831 8 0 C10.58803188 3.04604179 12.2947207 6.40062155 14 10 C14.33 10.66 14.66 11.32 15 12 C15.79397239 10.75146327 16.58507217 9.50109957 17.375 8.25 C17.81585937 7.55390625 18.25671875 6.8578125 18.7109375 6.140625 C19.91880906 4.13482617 20.98387737 2.10821704 22 0 C24.64 0 27.28 0 30 0 C29.38364509 2.91639137 28.46605725 5.18637876 26.96875 7.7578125 C20.70843077 18.67318621 20.70843077 18.67318621 19 31 C16.69 31 14.38 31 12 31 C12.00902344 30.41734375 12.01804687 29.8346875 12.02734375 29.234375 C11.73333382 21.10436138 8.32605496 15.71577527 4 9 C0 2.35260116 0 2.35260116 0 0 Z " fill="#FDF4F5" transform="translate(1044,979)"/>
<path d="M0 0 C8.91 0 17.82 0 27 0 C27 2.31 27 4.62 27 7 C23.7 7 20.4 7 17 7 C17 14.92 17 22.84 17 31 C14.36 31 11.72 31 9 31 C9 23.08 9 15.16 9 7 C6.03 7 3.06 7 0 7 C0 4.69 0 2.38 0 0 Z " fill="#FCF3F4" transform="translate(498,979)"/>
<path d="M0 0 C2.97 0 5.94 0 9 0 C9 10.23 9 20.46 9 31 C6.03 31 3.06 31 0 31 C0 20.77 0 10.54 0 0 Z " fill="#FBE6E8" transform="translate(1130,979)"/>
<path d="M0 0 C2.64 0 5.28 0 8 0 C8 10.23 8 20.46 8 31 C5.36 31 2.72 31 0 31 C0 20.77 0 10.54 0 0 Z " fill="#FDF8F8" transform="translate(996,979)"/>
<path d="M0 0 C1.90625 0.40234375 1.90625 0.40234375 4.40625 1.77734375 C6.74654724 5.87286393 6.78361727 9.80951685 5.90625 14.40234375 C3.3777164 17.52582643 1.80308824 18.21550245 -2.09375 19.02734375 C-5.56074658 18.3050528 -7.0927429 17.04187291 -9.17578125 14.18359375 C-10.77183702 11.08656639 -10.64729193 8.78509998 -10.09375 5.40234375 C-7.63103196 0.57952093 -5.16234042 -0.39488052 0 0 Z " fill="#E32637" transform="translate(565.09375,985.59765625)"/>
<path d="M0 0 C1.32 0.66 2.64 1.32 4 2 C2.51346494 5.46629835 0.54277649 7.69022036 -2.1328125 10.328125 C-3.34130859 11.52695313 -3.34130859 11.52695313 -4.57421875 12.75 C-5.83685547 13.9875 -5.83685547 13.9875 -7.125 15.25 C-7.97449219 16.09046875 -8.82398438 16.9309375 -9.69921875 17.796875 C-11.79504923 19.86915683 -13.89540713 21.93662393 -16 24 C-19.18086518 22.49053489 -21.29869906 20.92058175 -23.75 18.375 C-24.36359375 17.74335938 -24.9771875 17.11171875 -25.609375 16.4609375 C-26.06828125 15.97882813 -26.5271875 15.49671875 -27 15 C-26.34 13.68 -25.68 12.36 -25 11 C-22.11562221 12.29299694 -20.12780579 13.65941363 -18 16 C-14.95667235 14.6415798 -12.87690849 13.11536976 -10.546875 10.7421875 C-9.928125 10.11699219 -9.309375 9.49179688 -8.671875 8.84765625 C-8.03765625 8.19667969 -7.4034375 7.54570312 -6.75 6.875 C-6.1003125 6.21628906 -5.450625 5.55757812 -4.78125 4.87890625 C-3.18288273 3.25703357 -1.58938103 1.6306719 0 0 Z " fill="#E31F31" transform="translate(484,222)"/>
<path d="M0 0 C6.8359375 -0.1953125 6.8359375 -0.1953125 9 0 C11 2 11 2 11.25 4.5 C11 7 11 7 9 9 C5.98173347 9.27240673 3.03629378 9.08675125 0 9 C0 6.03 0 3.06 0 0 Z " fill="#E32436" transform="translate(967,986)"/>
<path d="M0 0 C6.8359375 -0.1953125 6.8359375 -0.1953125 9 0 C11 2 11 2 11.25 4.5 C11 7 11 7 9 9 C5.98173347 9.27240673 3.03629378 9.08675125 0 9 C0 6.03 0 3.06 0 0 Z " fill="#E31F32" transform="translate(787,986)"/>
<path d="M0 0 C1.258125 -0.04125 2.51625 -0.0825 3.8125 -0.125 C4.52019531 -0.14820313 5.22789062 -0.17140625 5.95703125 -0.1953125 C8 0 8 0 11 2 C11.3125 4.5 11.3125 4.5 11 7 C9 9 9 9 6.8359375 9.1953125 C4.55729167 9.13020833 2.27864583 9.06510417 0 9 C0 6.03 0 3.06 0 0 Z " fill="#E32335" transform="translate(472,986)"/>
<path d="M0 0 C6.0546875 -0.1953125 6.0546875 -0.1953125 8 0 C10 2 10 2 10.25 4.5 C10 7 10 7 8 9 C5.31160615 9.26991906 2.70858064 9.08737357 0 9 C0 6.03 0 3.06 0 0 Z " fill="#E32335" transform="translate(398,986)"/>
<path d="M0 0 C1.258125 -0.04125 2.51625 -0.0825 3.8125 -0.125 C4.52019531 -0.14820313 5.22789062 -0.17140625 5.95703125 -0.1953125 C8 0 8 0 11 2 C10.125 5.875 10.125 5.875 9 7 C7.48071962 7.07179964 5.95832518 7.08392007 4.4375 7.0625 C3.61121094 7.05347656 2.78492188 7.04445313 1.93359375 7.03515625 C1.29550781 7.02355469 0.65742187 7.01195312 0 7 C0 4.69 0 2.38 0 0 Z " fill="#E53443" transform="translate(715,997)"/>
<path d="M0 0 C1.67542976 0.28604898 3.34385343 0.61781233 5 1 C5.33 2.65 5.66 4.3 6 6 C4.35 6.66 2.7 7.32 1 8 C-0.5625 6.75 -0.5625 6.75 -2 5 C-1.74853421 2.86254078 -1.54074221 1.54074221 0 0 Z " fill="#FBE6E8" transform="translate(1083,1003)"/>
<path d="M0 0 C2.64 0 5.28 0 8 0 C8.5625 1.9375 8.5625 1.9375 9 4 C8 5 8 5 6.15234375 5.09765625 C4.1015625 5.06510417 2.05078125 5.03255208 0 5 C0 3.35 0 1.7 0 0 Z " fill="#E2172D" transform="translate(716,986)"/>
<path d="M0 0 C4 6 4 6 4 10 C1.69 10 -0.62 10 -3 10 C-2.69201674 8.51988629 -2.378482 7.04092675 -2.0625 5.5625 C-1.88847656 4.73878906 -1.71445312 3.91507813 -1.53515625 3.06640625 C-1 1 -1 1 0 0 Z " fill="#E42133" transform="translate(438,988)"/>
<path d="M0 0 C2.475 0.99 2.475 0.99 5 2 C4.67 3.32 4.34 4.64 4 6 C1.69 6 -0.62 6 -3 6 C0 4 0 4 3 4 C3 3.34 3 2.68 3 2 C2.01 2 1.02 2 0 2 C0 1.34 0 0.68 0 0 Z " fill="#E53D4B" transform="translate(827,998)"/>
</svg>
