<?xml version="1.0" encoding="UTF-8"?>
<svg version="1.1" xmlns="http://www.w3.org/2000/svg" width="860" height="567">
<path d="M0 0 C24.77531116 2.35022715 52.40919356 26.14127296 68 44 C84.68191788 64.69793515 89.2220037 90.58866507 86.6015625 116.49609375 C82.32046808 149.96368343 65.57537323 180.45139199 50.14819336 209.86254883 C43.15823159 223.25783162 37.01726524 236.60354865 33.3125 251.3125 C33.11245361 252.10551514 32.91240723 252.89853027 32.70629883 253.71557617 C32.11346168 256.13886085 31.5493363 258.56651024 31 261 C30.75008301 262.09441406 30.75008301 262.09441406 30.49511719 263.2109375 C22.42730156 300.2260088 28.74119104 338.91969866 48.8125 370.88671875 C74.4679672 408.71665534 114.74410243 426.57267807 158 436 C158.625 437.875 158.625 437.875 159 440 C157 442 157 442 154.02734375 442.15234375 C152.66326617 442.09796767 151.29989319 442.02438615 149.9375 441.9375 C149.16510986 441.88932129 148.39271973 441.84114258 147.59692383 441.79150391 C117.21610961 439.50999757 86.75575546 433.1160015 58.12597656 422.76708984 C56.25501693 422.09201461 54.37426548 421.4442088 52.4921875 420.80078125 C15.75321212 407.67971861 -19.67189772 380.73574851 -36.88623047 345.16894531 C-38.84935567 340.86325762 -40.4854917 336.47748528 -42 332 C-42.23203125 331.32130859 -42.4640625 330.64261719 -42.703125 329.94335938 C-57.6988352 284.83126451 -43.61271618 238.8354915 -23.46875 197.859375 C-20.89142408 192.72479579 -18.13240145 187.70647007 -15.31030273 182.70336914 C21.59948226 118.82467774 21.59948226 118.82467774 23.26171875 47.26171875 C18.98285313 32.17880227 10.74858186 17.18281595 -0.75 6.3515625 C-1.1625 5.90554687 -1.575 5.45953125 -2 5 C-1.74853421 2.86254078 -1.54074221 1.54074221 0 0 Z " fill="#E75021" transform="translate(259,85)"/>
<path d="M0 0 C5.3280642 1.8273459 10.2915943 3.97144781 15.24658203 6.64672852 C16.34063354 7.23381592 16.34063354 7.23381592 17.45678711 7.83276367 C35.00696191 17.42217158 50.74175839 29.73440409 65.12158203 43.58422852 C66.11061523 44.53241455 66.11061523 44.53241455 67.11962891 45.49975586 C76.59117257 54.62809637 85.46094012 63.87446945 93.12158203 74.58422852 C93.53956055 75.16317871 93.95753906 75.74212891 94.38818359 76.33862305 C116.29962844 107.00287453 130.32223731 144.74318007 124.80615234 182.75805664 C119.57598371 213.24166687 100.30615094 238.03153721 75.51220703 255.63891602 C62.23837985 264.71685364 48.15087616 271.95023259 33.18457031 277.77758789 C31.34101842 278.49842759 29.50964202 279.2502287 27.68017578 280.00610352 C19.52726278 283.31216586 11.18113541 285.63297301 2.69067383 287.87817383 C0.79202717 288.39997238 -1.0987439 288.95062363 -2.98461914 289.5168457 C-11.33273724 292.00804146 -19.64222407 293.83757778 -28.2097168 295.33959961 C-30.31240943 295.70861278 -32.41282664 296.08888629 -34.51318359 296.47094727 C-41.3783973 297.70722829 -48.25729529 298.84369139 -55.16357422 299.82641602 C-56.35990479 299.9977002 -57.55623535 300.16898438 -58.78881836 300.34545898 C-63.38293835 300.70050042 -63.38293835 300.70050042 -65.87841797 299.58422852 C-66.37341797 298.09922852 -66.37341797 298.09922852 -66.87841797 296.58422852 C-65.53963095 293.90665448 -64.43939614 293.89756521 -61.63623047 292.95532227 C-60.29782104 292.49307251 -60.29782104 292.49307251 -58.93237305 292.02148438 C-57.96581787 291.69156494 -56.9992627 291.36164551 -56.00341797 291.02172852 C-41.14307005 285.7773989 -26.86514088 279.60925945 -13.87841797 270.58422852 C-13.07791016 270.05571289 -12.27740234 269.52719727 -11.45263672 268.98266602 C18.44979366 248.85694732 39.37510185 218.58867242 46.43408203 183.08422852 C55.66423986 135.36710954 45.95708544 84.1369418 23.12158203 41.58422852 C22.63173828 40.61614258 22.14189453 39.64805664 21.63720703 38.65063477 C14.84902495 25.51283293 5.61832213 13.94934805 -4.87841797 3.58422852 C-4.54841797 2.59422852 -4.21841797 1.60422852 -3.87841797 0.58422852 C-1.87841797 -0.41577148 -1.87841797 -0.41577148 0 0 Z " fill="#F8B421" transform="translate(523.87841796875,226.415771484375)"/>
<path d="M0 0 C0.70894409 -0.00335861 1.41788818 -0.00671722 2.14831543 -0.01017761 C4.50327279 -0.01971449 6.85815927 -0.02163209 9.21313477 -0.02270508 C10.84359263 -0.02591578 12.4740502 -0.0292797 14.10450745 -0.03279114 C17.52687244 -0.03878927 20.94921215 -0.04063034 24.37158203 -0.04003906 C28.76463334 -0.0399374 33.15752315 -0.05359026 37.55053616 -0.07081127 C40.91934458 -0.08191056 44.28811371 -0.08395891 47.65693855 -0.08342934 C49.27691263 -0.08461256 50.89688762 -0.0890534 52.5168438 -0.0967617 C54.77957456 -0.10652 57.04195147 -0.10370026 59.3046875 -0.09765625 C60.59406723 -0.09908127 61.88344696 -0.10050629 63.2118988 -0.10197449 C66.21704102 0.14526367 66.21704102 0.14526367 68.21704102 2.14526367 C68.32397461 4.38037109 68.32397461 4.38037109 68.11547852 7.25073242 C68.03958496 8.35360596 67.96369141 9.45647949 67.88549805 10.59277344 C67.78865723 11.82697021 67.69181641 13.06116699 67.59204102 14.33276367 C67.4949317 15.66336836 67.39843503 16.99401787 67.30249023 18.32470703 C66.27223158 32.32923474 65.02590427 46.31797059 63.81347656 60.30761719 C62.6682864 73.56619495 61.61694676 86.82884973 60.63833618 100.10070801 C58.86882959 124.08986803 56.92962249 148.06254709 54.94077682 172.03428268 C54.41118008 178.41758163 53.88204564 184.80091859 53.35375977 191.18432617 C53.27364088 192.15239008 53.193522 193.12045399 53.11097527 194.11785316 C51.58758189 212.53984014 50.09468249 230.96425606 48.6080029 249.38923383 C48.42404841 251.66899678 48.24004421 253.94875572 48.05602837 256.22851372 C46.95081934 269.92155465 45.84627983 283.61464939 44.74508667 297.30801392 C44.5091187 300.24180291 44.27312045 303.17558947 44.03710938 306.109375 C43.97953842 306.82514729 43.92196747 307.54091958 43.86265194 308.27838194 C42.9392704 319.75588421 42.00530789 331.23248949 41.06465816 342.70859051 C40.53867974 349.14101697 40.02534335 355.57412202 39.53326797 362.00923061 C39.27965673 365.30398242 39.01593047 368.59785987 38.74910736 371.89156532 C38.63584959 373.32095367 38.52744889 374.75073696 38.42441559 376.18089867 C38.28937349 378.05188449 38.1362159 379.92153819 37.98168945 381.79101562 C37.90513123 382.79244095 37.828573 383.79386627 37.74969482 384.82563782 C37.21704102 387.14526367 37.21704102 387.14526367 34.21704102 389.14526367 C33.22704102 388.81526367 32.23704102 388.48526367 31.21704102 388.14526367 C28.72801975 372.02810325 26.96624833 355.87295431 25.36497116 339.64640427 C25.00142769 335.97323978 24.63256948 332.30060878 24.26416016 328.62792969 C23.78009663 323.79904098 23.29659071 318.97009845 22.81517029 314.14094543 C21.47150283 300.66330467 20.11239481 287.18725654 18.74829102 273.71166992 C18.5339833 271.59411653 18.3196787 269.47656281 18.1053772 267.35900879 C17.78110815 264.15498554 17.45682823 260.95096339 17.13251686 257.74694443 C11.8663688 205.71744724 11.8663688 205.71744724 9.34985352 180.43041992 C9.21039808 179.03010511 9.07093793 177.62979077 8.93147278 176.22947693 C8.32043761 170.09218176 7.71121848 163.95471382 7.10546875 157.81689453 C5.93547309 146.00811147 4.68073397 134.21204574 3.35508728 122.41972351 C1.92107469 109.60883242 0.63131901 96.78388806 -0.65795898 83.95776367 C-1.17648768 78.80662043 -1.6959565 73.65557338 -2.21655273 68.50463867 C-2.34612869 67.22250992 -2.47570465 65.94038116 -2.60920715 64.61940002 C-3.48342732 56.00504258 -4.39069703 47.3946685 -5.31811523 38.78588867 C-5.55727074 36.55176428 -5.7963673 34.31763358 -6.03540039 32.08349609 C-6.37421605 28.9185095 -6.71537229 25.75387478 -7.06439209 22.58999634 C-7.38158396 19.71450484 -7.69050149 16.83823248 -7.99780273 13.96166992 C-8.09327896 13.11973083 -8.18875519 12.27779175 -8.28712463 11.41033936 C-8.6733686 7.7286028 -8.90867192 4.68367276 -7.78295898 1.14526367 C-5.88295499 -0.75474032 -2.51981438 0.00745394 0 0 Z " fill="#1289A1" transform="translate(403.782958984375,38.854736328125)"/>
<path d="M0 0 C0.33 0.66 0.66 1.32 1 2 C0.19897461 3.99267578 0.19897461 3.99267578 -1.09765625 6.4453125 C-1.56671387 7.34918701 -2.03577148 8.25306152 -2.51904297 9.18432617 C-3.02838379 10.15474854 -3.53772461 11.1251709 -4.0625 12.125 C-11.81668001 27.30096794 -17.24650271 42.37248559 -21 59 C-21.16661133 59.72960937 -21.33322266 60.45921875 -21.50488281 61.2109375 C-23.82931357 71.87540657 -24.27163542 82.41371631 -24.3125 93.3125 C-24.31805908 94.55169189 -24.32361816 95.79088379 -24.3293457 97.06762695 C-24.27175129 104.46875509 -23.64303589 111.56610585 -22.42651367 118.86791992 C-22.00612623 121.95501237 -21.92657353 124.88888262 -22 128 C-33.39613417 107.78259042 -27.16241086 72.59034943 -22 51 C-20.00740906 44.36036346 -17.49049834 37.90249663 -15 31.4375 C-14.31231341 29.64460281 -13.62481065 27.85163509 -12.9375 26.05859375 C-12.60983643 25.20571777 -12.28217285 24.3528418 -11.94458008 23.47412109 C-11.05917325 21.15499141 -10.1891817 18.83072263 -9.32421875 16.50390625 C-8.33560284 13.88801105 -7.32833707 11.45231459 -6 9 C-5.34 9 -4.68 9 -4 9 C-3.71125 8.071875 -3.4225 7.14375 -3.125 6.1875 C-2 3 -2 3 0 0 Z " fill="#E4E8E8" transform="translate(311,287)"/>
<path d="M0 0 C1.14095045 3.87438081 0.62652858 5.9007267 -0.6875 9.75 C-10.03737787 38.6407991 -14.35224539 71.9822707 -3 101 C-2.4049442 102.62074408 -1.82163258 104.24584716 -1.25 105.875 C-0.98703125 106.59429687 -0.7240625 107.31359375 -0.453125 108.0546875 C0 110 0 110 -1 113 C-9.92682604 90.23514912 -14.24340395 67.16143029 -10.8125 42.6875 C-10.68157959 41.74616211 -10.55065918 40.80482422 -10.41577148 39.83496094 C-9.42050865 33.06920134 -8.12324546 26.40737629 -6.5625 19.75 C-6.36954346 18.91815186 -6.17658691 18.08630371 -5.9777832 17.22924805 C-4.50668369 11.2542931 -2.40754209 5.65828556 0 0 Z " fill="#E6EAEA" transform="translate(222,314)"/>
<path d="M0 0 C-1.98 0.99 -1.98 0.99 -4 2 C-2.5905727 4.24905348 -2.5905727 4.24905348 0 6 C4.00244907 6.14934511 7.84698055 5.23584489 11.75 4.4375 C14.21174959 3.95882647 16.49828751 3.9285225 19 4 C16.26270183 6.73729817 13.41050251 6.78565384 9.7265625 7.32421875 C9.00640961 7.43474075 8.28625671 7.54526276 7.54428101 7.65913391 C6.02004209 7.8908358 4.49516372 8.11836376 2.96972656 8.34204102 C0.63927891 8.68539622 -1.68807 9.04581602 -4.015625 9.40820312 C-5.49724064 9.63124172 -6.97900729 9.85327992 -8.4609375 10.07421875 C-9.15585297 10.18247482 -9.85076843 10.2907309 -10.56674194 10.40226746 C-17.13220704 11.34326049 -17.13220704 11.34326049 -20 10 C-20.33 9.01 -20.66 8.02 -21 7 C-19.25884047 3.51768094 -15.15333238 3.03761541 -11.625 1.8125 C-10.84382813 1.52697266 -10.06265625 1.24144531 -9.2578125 0.94726562 C-8.505 0.68236328 -7.7521875 0.41746094 -6.9765625 0.14453125 C-5.94136475 -0.22128052 -5.94136475 -0.22128052 -4.88525391 -0.59448242 C-3 -1 -3 -1 0 0 Z " fill="#E9D7A1" transform="translate(478,516)"/>
<path d="M0 0 C6.02716035 6.02716035 5.33445504 19.77061698 5.375 27.8125 C5.12563292 52.63086427 -2.24106046 76.74244382 -13 99 C-14.04449911 95.86650268 -13.93423645 95.01031744 -13 92 C-12.34 92 -11.68 92 -11 92 C-10.86207031 91.27167969 -10.72414063 90.54335937 -10.58203125 89.79296875 C-9.31954007 83.73470572 -7.44303685 77.93169872 -5 72.25 C-2.4386853 66.03245746 -1.27758031 59.57801767 0 53 C0.1959375 52.12214844 0.391875 51.24429688 0.59375 50.33984375 C3.69258184 36.3267439 5.68549411 15.37098823 -1 2 C-0.67 1.34 -0.34 0.68 0 0 Z " fill="#E5EAEA" transform="translate(341,158)"/>
<path d="M0 0 C8.31521313 10.29502578 11.58847857 24.44915869 15.125 36.9375 C15.68001555 38.88005442 16.28535613 40.80947962 16.95703125 42.71484375 C18.09976378 46.31423724 18.88127557 49.91755843 19.5625 53.625 C19.69180908 54.31851563 19.82111816 55.01203125 19.9543457 55.7265625 C21.04319149 61.79010298 21.66210102 67.84790821 22 74 C19.07924294 71.07924294 19.25686305 67.68933172 18.75 63.75 C15.89825206 44.08854207 10.25363311 23.34426323 1.26171875 5.5625 C0 3 0 3 0 0 Z " fill="#E5EFEC" transform="translate(552,275)"/>
<path d="M0 0 C0.99 0.495 0.99 0.495 2 1 C2 1.66 2 2.32 2 3 C2.66 3.33 3.32 3.66 4 4 C5.0703125 5.7421875 5.0703125 5.7421875 6.125 7.875 C6.47820312 8.57367188 6.83140625 9.27234375 7.1953125 9.9921875 C8 12 8 12 8 15 C8.66 15.33 9.32 15.66 10 16 C10.78125 17.93359375 10.78125 17.93359375 11.5 20.4375 C11.7371875 21.24058594 11.974375 22.04367188 12.21875 22.87109375 C12.4765625 23.90363281 12.734375 24.93617188 13 26 C13.17426514 26.67111816 13.34853027 27.34223633 13.52807617 28.03369141 C15.18297533 35.1400666 15.33914994 42.18602352 15.31567383 49.44970703 C15.31250471 51.49695732 15.33608889 53.54276993 15.36132812 55.58984375 C15.39612652 63.18347394 14.79463968 69.88598722 12 77 C11.67 77 11.34 77 11 77 C11.14362477 75.16649232 11.29002705 73.33320217 11.4375 71.5 C11.51871094 70.4790625 11.59992188 69.458125 11.68359375 68.40625 C11.90977908 65.97126723 12.19370123 63.54137107 12.515625 61.1171875 C15.00452005 41.49635919 11.69804643 21.26802512 1.31640625 4.23828125 C0 2 0 2 0 0 Z " fill="#EFF2F1" transform="translate(272,107)"/>
<path d="M0 0 C0.66 0.66 1.32 1.32 2 2 C1.34 3.32 0.68 4.64 0 6 C-3.63 6 -7.26 6 -11 6 C-10.67 4.68 -10.34 3.36 -10 2 C-9.04287109 1.90912109 -9.04287109 1.90912109 -8.06640625 1.81640625 C-6.82697266 1.69072266 -6.82697266 1.69072266 -5.5625 1.5625 C-4.73878906 1.48128906 -3.91507812 1.40007813 -3.06640625 1.31640625 C-1.01337975 1.21069185 -1.01337975 1.21069185 0 0 Z " fill="#F7AD0E" transform="translate(468,519)"/>
<path d="M0 0 C1.14095045 3.87438081 0.62652858 5.9007267 -0.6875 9.75 C-2.37834006 14.94581059 -3.87117693 20.13774579 -5.1875 25.4375 C-5.35403076 26.09911133 -5.52056152 26.76072266 -5.69213867 27.44238281 C-6.63765688 31.27490917 -7.40299285 35.09834723 -8 39 C-8.33 39 -8.66 39 -9 39 C-9.27182155 32.52158649 -8.30553113 26.90170454 -6.75 20.625 C-6.54503906 19.74328125 -6.34007812 18.8615625 -6.12890625 17.953125 C-4.62070295 11.71921803 -2.52772096 5.8911439 0 0 Z " fill="#F4F9F8" transform="translate(222,314)"/>
<path d="M0 0 C2.125 0.9375 2.125 0.9375 4 2 C2.68 2.33 1.36 2.66 0 3 C0.7425 3.721875 1.485 4.44375 2.25 5.1875 C4.69290515 7.68592573 6.8681047 10.23643202 9 13 C6 13 6 13 3.73828125 11.03125 C2.53751953 9.77828125 2.53751953 9.77828125 1.3125 8.5 C0.50425781 7.6646875 -0.30398438 6.829375 -1.13671875 5.96875 C-1.75160156 5.3190625 -2.36648438 4.669375 -3 4 C-2.67 3.01 -2.34 2.02 -2 1 C-1.34 0.67 -0.68 0.34 0 0 Z " fill="#EED38E" transform="translate(522,226)"/>
<path d="M0 0 C0.99 0.66 1.98 1.32 3 2 C0.77155786 2.6483289 -1.4577846 3.29356369 -3.6875 3.9375 C-5.54955078 4.47697266 -5.54955078 4.47697266 -7.44921875 5.02734375 C-12.83139203 6.50166844 -17.40123882 7.10977963 -23 7 C-23 6.67 -23 6.34 -23 6 C-16.3174126 4.27768366 -9.65458632 2.66447024 -2.86328125 1.4296875 C-0.99567875 1.17238834 -0.99567875 1.17238834 0 0 Z " fill="#D4DEDA" transform="translate(521,513)"/>
<path d="M0 0 C0.33 0 0.66 0 1 0 C1.33328851 8.56674915 1.11584616 15.95073076 -2 24 C-2.33 24 -2.66 24 -3 24 C-2.45423097 15.89963866 -1.45852964 7.98651182 0 0 Z " fill="#E1E3E2" transform="translate(286,160)"/>
<path d="M0 0 C0.66 0 1.32 0 2 0 C1.37942343 2.56364399 0.75370801 5.12584926 0.125 7.6875 C-0.04902344 8.40873047 -0.22304688 9.12996094 -0.40234375 9.87304688 C-1.35097866 13.72028845 -2.40490841 17.35715569 -4 21 C-5.44490842 17.18653918 -4.49383755 14.80556267 -3.125 11.0625 C-1.79284625 7.37811674 -0.66892225 3.86409345 0 0 Z " fill="#EFF5EE" transform="translate(646,410)"/>
<path d="M0 0 C5.03405033 0.47194222 9.48120657 2.88335384 14 5 C10.22134307 6.25955231 8.96588214 5.48087189 5.3125 4.0625 C4.31863281 3.68222656 3.32476562 3.30195312 2.30078125 2.91015625 C1.54152344 2.60980469 0.78226562 2.30945313 0 2 C0.33 3.65 0.66 5.3 1 7 C0.01 6.34 -0.98 5.68 -2 5 C-1.125 1.125 -1.125 1.125 0 0 Z " fill="#ECEFEF" transform="translate(259,85)"/>
<path d="M0 0 C0.33 0 0.66 0 1 0 C0.45298368 7.44230094 -0.54198409 14.68160944 -2 22 C-2.99 22 -3.98 22 -5 22 C-4.80664062 21.16597656 -4.61328125 20.33195312 -4.4140625 19.47265625 C-2.91358477 12.98791833 -1.43223691 6.50015215 0 0 Z " fill="#EBF3F2" transform="translate(573,397)"/>
<path d="M0 0 C0.33 0 0.66 0 1 0 C1.11039334 8.40215965 0.95458649 16.64736824 0 25 C-0.33 25 -0.66 25 -1 25 C-1.33 20.38 -1.66 15.76 -2 11 C-1.34 11 -0.68 11 0 11 C0 7.37 0 3.74 0 0 Z " fill="#DDBDB3" transform="translate(212,367)"/>
<path d="M0 0 C-0.66 1.32 -1.32 2.64 -2 4 C-1.34 4.33 -0.68 4.66 0 5 C-2.31 5 -4.62 5 -7 5 C-6.6875 3.0625 -6.6875 3.0625 -6 1 C-3 0 -3 0 0 0 Z " fill="#EBC876" transform="translate(464,520)"/>
<path d="M0 0 C0 3.63053243 -1.2278255 4.95750337 -3.5546875 7.63671875 C-5.49136818 9.46347972 -7.46012234 10.27432067 -10 11 C-6.79239749 7.19364503 -3.59253891 3.45436433 0 0 Z " fill="#F2D585" transform="translate(539,473)"/>
<path d="M0 0 C0.33 1.32 0.66 2.64 1 4 C-1.61514317 6.12038635 -4.19637616 8.13091744 -7 10 C-5.33248852 6.05860922 -2.77289351 3.2107188 0 0 Z " fill="#EDE1B8" transform="translate(547,463)"/>
<path d="M0 0 C1.12377697 3.30435084 0.89554742 5.0506862 -0.4375 8.25 C-0.72496094 8.95640625 -1.01242188 9.6628125 -1.30859375 10.390625 C-1.53675781 10.92171875 -1.76492187 11.4528125 -2 12 C-2.66 12 -3.32 12 -4 12 C-3.52309796 10.37433394 -3.04340334 8.74948689 -2.5625 7.125 C-2.29566406 6.22007812 -2.02882812 5.31515625 -1.75390625 4.3828125 C-1 2 -1 2 0 0 Z " fill="#EEEDEB" transform="translate(222,314)"/>
<path d="M0 0 C1.12758089 3.38274266 0.81750262 4.76778223 0.0625 8.1875 C-0.13214844 9.08855469 -0.32679688 9.98960937 -0.52734375 10.91796875 C-0.68332031 11.60503906 -0.83929688 12.29210937 -1 13 C-3.30903272 9.01647791 -2.86516528 6.49885947 -2 2 C-1.34 2 -0.68 2 0 2 C0 1.34 0 0.68 0 0 Z " fill="#CFD2D0" transform="translate(344,202)"/>
<path d="M0 0 C0.99 0.66 1.98 1.32 3 2 C-1.17737474 3.59138085 -4.53160785 4.21278058 -9 4 C-7.67661368 3.31379969 -6.34050052 2.65213539 -5 2 C-4.154375 1.5875 -3.30875 1.175 -2.4375 0.75 C-1.633125 0.5025 -0.82875 0.255 0 0 Z " fill="#E1E8E1" transform="translate(521,513)"/>
</svg>
